<svg viewBox="0 0 129.94 128.4" xmlns="http://www.w3.org/2000/svg"><g stroke="#000" stroke-miterlimit="10"><path d="m156.31 47.9h-.16c-.55 0-1.09.1-1.63.17a5.89 5.89 0 0 0 -4.46 5.71 15.56 15.56 0 0 1 -31.12 0 5.9 5.9 0 0 0 -5.9-5.9h-24a5.9 5.9 0 0 0 -5.9 5.9 15.56 15.56 0 1 1 -31.12 0 5.9 5.9 0 0 0 -5.9-5.9 9.55 9.55 0 0 0 -9.55 9.55v92.72a9.54 9.54 0 0 0 9.53 9.55h109.9a9.54 9.54 0 0 0 9.55-9.51v-92.76a9.53 9.53 0 0 0 -9.24-9.53zm-.31 93.6a8.73 8.73 0 0 1 -8.73 8.74h-92.27a8.74 8.74 0 0 1 -8.74-8.74v-49.69a8.73 8.73 0 0 1 8.74-8.73h92.28a8.73 8.73 0 0 1 8.72 8.73z" transform="translate(-36.07 -31.8)"/><rect height="31.12" rx="7.64" width="15.29" x="23.87" y=".5"/><rect height="31.12" rx="7.64" width="15.29" x="90.78" y=".5"/></g><path d="m102.21 93.27a1.06 1.06 0 0 0 -2 0l-13.35 23.13c-.55.95-.1 1.73 1 1.73h5.14c1.1 0 1.55.78 1 1.73l-7.14 12.36c-.55.95-.1 1.73 1 1.73h7.14a2 2 0 0 1 2 2v4.1a2 2 0 0 0 2 2h4.49a2 2 0 0 0 2-2v-4.05a2 2 0 0 1 2-2h7.1c1.1 0 1.55-.78 1-1.73l-7.13-12.36c-.55-1-.1-1.73 1-1.73h5.13c1.1 0 1.55-.78 1-1.73z" transform="translate(-36.07 -31.8)"/><path d="m102.21 93.27a1.06 1.06 0 0 0 -2 0l-13.35 23.13c-.55.95-.1 1.73 1 1.73h5.14c1.1 0 1.55.78 1 1.73l-7.14 12.36c-.55.95-.1 1.73 1 1.73h7.14a2 2 0 0 1 2 2v4.1a2 2 0 0 0 2 2h4.49a2 2 0 0 0 2-2v-4.05a2 2 0 0 1 2-2h7.1c1.1 0 1.55-.78 1-1.73l-7.13-12.36c-.55-1-.1-1.73 1-1.73h5.13c1.1 0 1.55-.78 1-1.73z" fill="none" stroke="#000" stroke-miterlimit="10" transform="translate(-36.07 -31.8)"/></svg>