<svg id="Layer_1" data-name="Layer 1" xmlns="http://www.w3.org/2000/svg" viewBox="0 0 69.53 68.69"><path d="M79.56,24.27h-.09a6.42,6.42,0,0,0-.87.09,3.15,3.15,0,0,0-2.39,3.05,8.32,8.32,0,1,1-16.64,0,3.16,3.16,0,0,0-3.16-3.15H43.57a3.16,3.16,0,0,0-3.16,3.15h0a8.32,8.32,0,1,1-16.64,0,3.16,3.16,0,0,0-3.16-3.15h0a5.11,5.11,0,0,0-5.11,5.11V79a5.11,5.11,0,0,0,5.1,5.11H79.39A5.11,5.11,0,0,0,84.5,79V29.37a5.1,5.1,0,0,0-4.94-5.1Zm-.17,50.07A4.68,4.68,0,0,1,74.73,79H25.36a4.69,4.69,0,0,1-4.68-4.68h0V47.76a4.67,4.67,0,0,1,4.67-4.67H74.73a4.67,4.67,0,0,1,4.66,4.67Z" transform="translate(-15.23 -15.66)" style="stroke:#000;stroke-miterlimit:10;stroke-width:0.534966616958994px"/><rect x="12.77" y="0.27" width="8.18" height="16.65" rx="4.09" style="stroke:#000;stroke-miterlimit:10;stroke-width:0.534966616958994px"/><rect x="48.56" y="0.27" width="8.18" height="16.65" rx="4.09" style="stroke:#000;stroke-miterlimit:10;stroke-width:0.534966616958994px"/><path d="M50.62,48.54a.58.58,0,0,0-.73-.35.56.56,0,0,0-.34.35L42.4,60.91c-.29.51,0,.93.54.93h2.75c.59,0,.83.42.53.92L42.4,69.38c-.29.5,0,.92.54.92h3.82a1.07,1.07,0,0,1,1.07,1.07v2.2a1.07,1.07,0,0,0,1.07,1.07h2.4a1.07,1.07,0,0,0,1.07-1.07V71.4a1.07,1.07,0,0,1,1.07-1.07h3.8c.59,0,.83-.42.53-.93L54,62.79c-.3-.53-.05-.92.53-.92h2.75c.59,0,.83-.42.53-.93Z" transform="translate(-15.23 -15.66)"/><path d="M50.62,48.54a.58.58,0,0,0-.73-.35.56.56,0,0,0-.34.35L42.4,60.91c-.29.51,0,.93.54.93h2.75c.59,0,.83.42.53.92L42.4,69.38c-.29.5,0,.92.54.92h3.82a1.07,1.07,0,0,1,1.07,1.07v2.2a1.07,1.07,0,0,0,1.07,1.07h2.4a1.07,1.07,0,0,0,1.07-1.07V71.4a1.07,1.07,0,0,1,1.07-1.07h3.8c.59,0,.83-.42.53-.93L54,62.79c-.3-.53-.05-.92.53-.92h2.75c.59,0,.83-.42.53-.93Z" transform="translate(-15.23 -15.66)" style="fill:none;stroke:#000;stroke-miterlimit:10;stroke-width:0.534966616958994px"/></svg>