<svg id="Layer_1" data-name="Layer 1" xmlns="http://www.w3.org/2000/svg" viewBox="0 0 86.35 78.69"><defs><style>.cls-1,.cls-12,.cls-2,.cls-4,.cls-9{fill:none;}.cls-1,.cls-10,.cls-11,.cls-12,.cls-2,.cls-3,.cls-4,.cls-5,.cls-6,.cls-7,.cls-8,.cls-9{stroke:#000;}.cls-1,.cls-2,.cls-3,.cls-4,.cls-5,.cls-6,.cls-7,.cls-8,.cls-9{stroke-linecap:round;stroke-linejoin:round;}.cls-1{stroke-width:1.5px;}.cls-2,.cls-5,.cls-7{stroke-width:0.1px;}.cls-3{stroke-width:0.15px;}.cls-4,.cls-6,.cls-8{stroke-width:0.75px;}.cls-7,.cls-8{fill:#231f20;}.cls-9{stroke-width:0.2px;}.cls-10,.cls-11,.cls-12{stroke-miterlimit:10;}.cls-10{stroke-width:1.25px;}.cls-11{stroke-width:0.25px;}.cls-12{stroke-width:0.35px;}</style></defs><line class="cls-1" x1="43.4" y1="9.85" x2="42.99" y2="16.04"/><line class="cls-1" x1="43.82" y1="16.04" x2="43.46" y2="9.85"/><line class="cls-2" x1="42.99" y1="16.04" x2="43.82" y2="16.04"/><line class="cls-1" x1="72.83" y1="54.84" x2="72.68" y2="72.05"/><line class="cls-1" x1="72.83" y1="54.84" x2="72.76" y2="50.45"/><line class="cls-2" x1="66.79" y1="50.56" x2="67.56" y2="53.98"/><line class="cls-2" x1="68.42" y1="50.57" x2="69.53" y2="53.97"/><line class="cls-2" x1="61.2" y1="65.88" x2="61.24" y2="69.6"/><line class="cls-2" x1="61.21" y1="65.87" x2="61.21" y2="69.59"/><line class="cls-2" x1="63" y1="65.87" x2="63.03" y2="69.59"/><line class="cls-2" x1="61.21" y1="65.87" x2="63" y2="65.87"/><line class="cls-2" x1="61.21" y1="69.59" x2="63.03" y2="69.59"/><line class="cls-2" x1="62.12" y1="65.87" x2="62.12" y2="69.59"/><line class="cls-2" x1="61.21" y1="68.69" x2="63.01" y2="68.7"/><line class="cls-2" x1="63.01" y1="67.73" x2="61.21" y2="67.74"/><line class="cls-2" x1="63.01" y1="66.72" x2="61.21" y2="66.72"/><line class="cls-2" x1="61.17" y1="56.97" x2="62.09" y2="56.22"/><line class="cls-2" x1="61.21" y1="56.12" x2="61.2" y2="56.97"/><line class="cls-2" x1="62.77" y1="56.51" x2="61.23" y2="56.93"/><path class="cls-2" d="M67.94,66.86a2.54,2.54,0,0,0,.67,1.2A6.19,6.19,0,0,0,70,69.14" transform="translate(-6.74 -10.74)"/><line class="cls-2" x1="66.44" y1="65.88" x2="66.44" y2="69.6"/><line class="cls-2" x1="68.23" y1="65.88" x2="68.26" y2="69.6"/><line class="cls-2" x1="66.44" y1="65.88" x2="68.23" y2="65.88"/><line class="cls-2" x1="66.44" y1="69.6" x2="68.26" y2="69.6"/><line class="cls-2" x1="67.35" y1="65.88" x2="67.35" y2="69.6"/><line class="cls-2" x1="66.44" y1="68.69" x2="68.24" y2="68.71"/><line class="cls-2" x1="68.24" y1="67.74" x2="66.44" y2="67.75"/><line class="cls-2" x1="68.24" y1="66.73" x2="66.44" y2="66.73"/><line class="cls-2" x1="68.23" y1="65.87" x2="68.23" y2="69.59"/><line class="cls-2" x1="70.02" y1="65.87" x2="70.05" y2="69.59"/><line class="cls-2" x1="68.23" y1="65.87" x2="70.02" y2="65.87"/><line class="cls-2" x1="68.23" y1="69.59" x2="70.05" y2="69.59"/><line class="cls-2" x1="69.14" y1="65.87" x2="69.14" y2="69.59"/><line class="cls-2" x1="68.23" y1="68.69" x2="70.03" y2="68.7"/><line class="cls-2" x1="70.03" y1="67.73" x2="68.23" y2="67.74"/><line class="cls-2" x1="70.03" y1="66.72" x2="68.23" y2="66.72"/><path class="cls-3" d="M77.15,72.62h-4.3l0-5.05c0-.62,1-1.12,2.12-1.12s2.08.5,2.12,1.12Z" transform="translate(-6.74 -10.74)"/><path class="cls-2" d="M74.94,66.86a2.52,2.52,0,0,1-.64,1.2,5.87,5.87,0,0,1-1.36,1.08" transform="translate(-6.74 -10.74)"/><polyline class="cls-2" points="66.13 56.97 66.41 56.97 68.55 56.97"/><line class="cls-2" x1="67.11" y1="61.97" x2="67.11" y2="56.97"/><line class="cls-2" x1="66.14" y1="61.06" x2="70.41" y2="61.05"/><line class="cls-2" x1="66.13" y1="60.17" x2="70.38" y2="60.2"/><line class="cls-2" x1="66.13" y1="59.07" x2="70.38" y2="59.04"/><line class="cls-2" x1="66.13" y1="58.02" x2="70.38" y2="58"/><line class="cls-2" x1="68.2" y1="56.97" x2="69.11" y2="56.22"/><line class="cls-2" x1="67.56" y1="56.15" x2="68.2" y2="56.97"/><line class="cls-2" x1="68.23" y1="56.12" x2="68.22" y2="56.97"/><line class="cls-2" x1="69.79" y1="56.51" x2="68.25" y2="56.93"/><line class="cls-2" x1="66.89" y1="56.39" x2="68.2" y2="56.97"/><path class="cls-2" d="M76.42,67.71H73.51c0-.31.66-.55,1.46-.55S76.42,67.4,76.42,67.71Z" transform="translate(-6.74 -10.74)"/><path class="cls-2" d="M76.79,67.72l-3.6,0c0-.48.81-.88,1.8-.88S76.79,67.23,76.79,67.72Z" transform="translate(-6.74 -10.74)"/><path class="cls-2" d="M75,66.86a2.54,2.54,0,0,0,.67,1.2,6.19,6.19,0,0,0,1.43,1.08" transform="translate(-6.74 -10.74)"/><line class="cls-2" x1="68.27" y1="56.97" x2="68.27" y2="61.97"/><line class="cls-2" x1="69.57" y1="56.93" x2="69.57" y2="61.93"/><rect class="cls-3" x="66.11" y="65.55" width="4.3" height="4.4"/><line class="cls-1" x1="69.56" y1="50.45" x2="72.74" y2="50.45"/><line class="cls-2" x1="70.25" y1="50.59" x2="71.36" y2="53.99"/><path d="M87.3,74c-.36-.59-.07-1,.64-1h4.3c.71,0,1-.46.64-1L82.65,55.88a.71.71,0,0,0-.87-.38.64.64,0,0,0-.42.38L71.1,72c-.35.58-.06,1,.65,1h4.3c.71,0,1,.45.64,1L71.1,82.73c-.35.59-.06,1,.65,1h5.79a1.23,1.23,0,0,1,1.29,1.16v3.18a1.23,1.23,0,0,0,1.29,1.17h3.8a1.23,1.23,0,0,0,1.29-1.17V84.94a1.23,1.23,0,0,1,1.29-1.16h5.79c.71,0,1-.46.65-1Z" transform="translate(-6.74 -10.74)"/><line class="cls-1" x1="42.99" y1="16.04" x2="42.52" y2="16.27"/><line class="cls-1" x1="43.82" y1="16.04" x2="44.3" y2="16.31"/><line class="cls-1" x1="42.52" y1="16.27" x2="42.52" y2="16.68"/><line class="cls-1" x1="44.3" y1="16.31" x2="44.31" y2="16.68"/><line class="cls-1" x1="42.52" y1="16.68" x2="42.7" y2="16.87"/><line class="cls-1" x1="44.31" y1="16.68" x2="44.14" y2="16.84"/><line class="cls-1" x1="38.86" y1="31.82" x2="48.02" y2="31.87"/><line class="cls-1" x1="47.66" y1="38.4" x2="47.53" y2="38.15"/><line class="cls-1" x1="39.24" y1="38.37" x2="39.37" y2="38.15"/><line class="cls-1" x1="38.85" y1="38.41" x2="48" y2="38.41"/><line class="cls-2" x1="42.22" y1="66.38" x2="44.97" y2="66.38"/><line class="cls-4" x1="39.26" y1="57.53" x2="39.5" y2="58.01"/><line class="cls-4" x1="47.73" y1="57.52" x2="47.43" y2="58"/><line class="cls-1" x1="13.49" y1="53.9" x2="13.58" y2="72.02"/><line class="cls-1" x1="13.58" y1="72.02" x2="72.67" y2="72.05"/><line class="cls-1" x1="36.91" y1="50.4" x2="13.53" y2="50.45"/><line class="cls-1" x1="36.17" y1="47.89" x2="36.91" y2="50.4"/><line class="cls-1" x1="50.83" y1="47.94" x2="36.17" y2="47.89"/><line class="cls-1" x1="49.99" y1="50.45" x2="50.83" y2="47.94"/><rect class="cls-5" x="42.31" y="41.44" width="2.28" height="3.26"/><line class="cls-1" x1="37.16" y1="40.48" x2="37.06" y2="47.89"/><line class="cls-1" x1="49.82" y1="41.34" x2="49.82" y2="47.8"/><line class="cls-1" x1="69.56" y1="50.45" x2="49.99" y2="50.45"/><line class="cls-1" x1="37.1" y1="72.03" x2="36.91" y2="50.4"/><line class="cls-1" x1="49.99" y1="50.45" x2="49.99" y2="72.03"/><path class="cls-6" d="M51.86,61.48h0l-.25.23v2.67H49V61.72l-.24-.22,0,0a2.33,2.33,0,0,1,3.16,0Z" transform="translate(-6.74 -10.74)"/><line class="cls-2" x1="13.49" y1="53.9" x2="36.94" y2="53.92"/><line class="cls-2" x1="49.99" y1="53.99" x2="72.54" y2="53.96"/><path class="cls-3" d="M51.42,73.36H49.25v-4.5a1.08,1.08,0,0,1,2.15,0Z" transform="translate(-6.74 -10.74)"/><path class="cls-2" d="M50.68,68.15a4.77,4.77,0,0,1-.22,1.06,4.43,4.43,0,0,1-.45,1" transform="translate(-6.74 -10.74)"/><path class="cls-2" d="M50,68.15a4.18,4.18,0,0,0,.21,1.06,4.41,4.41,0,0,0,.46,1" transform="translate(-6.74 -10.74)"/><polyline class="cls-2" points="42.49 58.16 42.74 58.16 44.65 58.16"/><line class="cls-2" x1="43.6" y1="62.62" x2="43.6" y2="58.16"/><line class="cls-5" x1="42.49" y1="62.05" x2="44.65" y2="62.04"/><line class="cls-2" x1="42.51" y1="61.51" x2="44.68" y2="61.51"/><line class="cls-2" x1="42.51" y1="61.01" x2="44.68" y2="61.03"/><line class="cls-2" x1="42.51" y1="60.53" x2="44.68" y2="60.54"/><line class="cls-2" x1="42.49" y1="60.04" x2="44.67" y2="60.02"/><line class="cls-2" x1="42.53" y1="59.56" x2="44.68" y2="59.53"/><line class="cls-2" x1="42.49" y1="59.1" x2="44.66" y2="59.09"/><line class="cls-2" x1="42.51" y1="58.65" x2="44.65" y2="58.65"/><line class="cls-2" x1="43.58" y1="58.16" x2="44.03" y2="57.52"/><line class="cls-2" x1="43.18" y1="57.5" x2="43.58" y2="58.16"/><line class="cls-2" x1="43.61" y1="57.41" x2="43.6" y2="58.16"/><line class="cls-2" x1="44.34" y1="57.83" x2="43.58" y2="58.16"/><line class="cls-2" x1="42.88" y1="57.78" x2="43.58" y2="58.16"/><line class="cls-2" x1="43.59" y1="58.16" x2="43.6" y2="62.62"/><line class="cls-2" x1="43.6" y1="58.16" x2="43.6" y2="62.62"/><line class="cls-2" x1="43.6" y1="59.44" x2="43.6" y2="62.35"/><line class="cls-2" x1="43.6" y1="59.44" x2="43.6" y2="62.35"/><line class="cls-2" x1="42.92" y1="62.35" x2="44.3" y2="62.35"/><path class="cls-2" d="M50.84,68.9h-1a.52.52,0,0,1,1,0Z" transform="translate(-6.74 -10.74)"/><path class="cls-2" d="M51.17,68.9H49.52a.83.83,0,0,1,1.65,0Z" transform="translate(-6.74 -10.74)"/><path class="cls-2" d="M50.93,77.12h-1.3c0-.27.29-.49.65-.49A.59.59,0,0,1,50.93,77.12Z" transform="translate(-6.74 -10.74)"/><path class="cls-5" d="M51.7,77.14H48.84a1.44,1.44,0,0,1,2.86,0Z" transform="translate(-6.74 -10.74)"/><path class="cls-2" d="M50.49,77.12h-.38A.18.18,0,0,1,50.3,77,.17.17,0,0,1,50.49,77.12Z" transform="translate(-6.74 -10.74)"/><line class="cls-2" x1="43.57" y1="65.29" x2="43.56" y2="66.23"/><line class="cls-2" x1="44.6" y1="65.62" x2="43.71" y2="66.28"/><line class="cls-2" x1="42.56" y1="65.64" x2="43.41" y2="66.29"/><line class="cls-2" x1="43.03" y1="65.38" x2="43.31" y2="65.91"/><line class="cls-2" x1="44.16" y1="65.38" x2="43.82" y2="65.93"/><line class="cls-2" x1="42.28" y1="66.01" x2="42.93" y2="66.2"/><line class="cls-2" x1="44.89" y1="65.98" x2="44.16" y2="66.21"/><path class="cls-7" d="M50.52,27.57h0v.57h.17v-.57h0V27.5l0,0v0h-.13v0h0v0h0Z" transform="translate(-6.74 -10.74)"/><path class="cls-7" d="M49.76,27.56h0v.58h-.18v-.58h0v0a0,0,0,0,1,0,0v-.06h0l0,0h.09v0h0v0h0Z" transform="translate(-6.74 -10.74)"/><line class="cls-2" x1="40" y1="38.17" x2="40.13" y2="38.41"/><line class="cls-2" x1="40.46" y1="38.18" x2="40.39" y2="38.41"/><line class="cls-2" x1="41.09" y1="38.18" x2="41.18" y2="38.41"/><line class="cls-2" x1="45.75" y1="38.16" x2="45.68" y2="38.38"/><line class="cls-2" x1="46.45" y1="38.16" x2="46.53" y2="38.41"/><line class="cls-2" x1="46.87" y1="38.16" x2="46.82" y2="38.36"/><line class="cls-2" x1="38.9" y1="32.18" x2="47.98" y2="32.21"/><line class="cls-2" x1="39.37" y1="38.15" x2="40" y2="38.17"/><line class="cls-2" x1="40.46" y1="38.18" x2="41.09" y2="38.18"/><line class="cls-2" x1="45.75" y1="38.16" x2="46.45" y2="38.16"/><line class="cls-2" x1="46.87" y1="38.16" x2="47.53" y2="38.15"/><rect class="cls-2" x="42.56" y="41.69" width="1.78" height="2.76"/><line class="cls-2" x1="43.43" y1="41.69" x2="43.46" y2="44.45"/><line class="cls-2" x1="42.56" y1="42.56" x2="44.34" y2="42.55"/><line class="cls-2" x1="42.56" y1="43.5" x2="44.34" y2="43.48"/><line class="cls-5" x1="36.17" y1="50.4" x2="35.81" y2="53.91"/><line class="cls-5" x1="34.66" y1="50.41" x2="34.3" y2="53.91"/><line class="cls-5" x1="33.17" y1="50.41" x2="32.76" y2="53.93"/><line class="cls-5" x1="31.84" y1="50.4" x2="31.48" y2="53.91"/><line class="cls-5" x1="30.33" y1="50.41" x2="29.97" y2="53.91"/><line class="cls-5" x1="28.96" y1="50.4" x2="28.55" y2="53.91"/><line class="cls-5" x1="27.46" y1="50.41" x2="27.1" y2="53.92"/><line class="cls-5" x1="25.95" y1="50.42" x2="25.59" y2="53.92"/><line class="cls-5" x1="19.99" y1="50.5" x2="19.22" y2="53.91"/><line class="cls-5" x1="18.2" y1="50.45" x2="17.09" y2="53.85"/><line class="cls-2" x1="50.61" y1="50.47" x2="50.98" y2="53.98"/><line class="cls-2" x1="52.12" y1="50.48" x2="52.48" y2="53.98"/><line class="cls-2" x1="53.61" y1="50.48" x2="54.02" y2="54"/><line class="cls-2" x1="54.94" y1="50.46" x2="55.3" y2="53.98"/><line class="cls-2" x1="56.45" y1="50.47" x2="56.81" y2="53.98"/><line class="cls-2" x1="57.82" y1="50.46" x2="58.24" y2="53.98"/><line class="cls-8" x1="42.31" y1="50.8" x2="44.77" y2="50.83"/><line class="cls-2" x1="52.23" y1="65.79" x2="52.23" y2="69.51"/><line class="cls-2" x1="54.01" y1="65.79" x2="54.04" y2="69.51"/><line class="cls-2" x1="52.23" y1="65.79" x2="54.01" y2="65.79"/><line class="cls-2" x1="52.23" y1="69.51" x2="54.04" y2="69.51"/><line class="cls-2" x1="53.14" y1="65.79" x2="53.14" y2="69.51"/><line class="cls-2" x1="52.23" y1="68.61" x2="54.03" y2="68.62"/><line class="cls-2" x1="54.03" y1="67.65" x2="52.23" y2="67.66"/><line class="cls-2" x1="54.03" y1="66.64" x2="52.23" y2="66.64"/><line class="cls-2" x1="54.02" y1="65.79" x2="54.02" y2="69.51"/><line class="cls-2" x1="55.8" y1="65.79" x2="55.83" y2="69.51"/><line class="cls-2" x1="54.02" y1="65.79" x2="55.8" y2="65.79"/><line class="cls-2" x1="54.02" y1="69.51" x2="55.83" y2="69.51"/><line class="cls-2" x1="54.93" y1="65.79" x2="54.93" y2="69.51"/><line class="cls-2" x1="54.02" y1="68.6" x2="55.82" y2="68.61"/><line class="cls-2" x1="55.82" y1="67.65" x2="54.02" y2="67.65"/><line class="cls-2" x1="55.82" y1="66.63" x2="54.02" y2="66.63"/><path class="cls-3" d="M62.93,72.62h-4.3l0-5.05c0-.62,1-1.12,2.12-1.12s2.09.5,2.12,1.12Z" transform="translate(-6.74 -10.74)"/><path class="cls-2" d="M60.73,66.78A2.58,2.58,0,0,1,60.08,68a5.67,5.67,0,0,1-1.36,1.08" transform="translate(-6.74 -10.74)"/><polyline class="cls-2" points="51.91 56.88 52.19 56.88 54.34 56.88"/><line class="cls-2" x1="52.89" y1="61.88" x2="52.89" y2="56.88"/><line class="cls-2" x1="51.92" y1="60.97" x2="56.2" y2="60.96"/><line class="cls-2" x1="51.92" y1="60.08" x2="56.17" y2="60.11"/><line class="cls-2" x1="51.91" y1="58.99" x2="56.17" y2="58.95"/><line class="cls-2" x1="51.91" y1="57.93" x2="56.17" y2="57.91"/><line class="cls-2" x1="53.98" y1="56.88" x2="54.9" y2="56.13"/><line class="cls-2" x1="53.35" y1="56.06" x2="53.98" y2="56.88"/><line class="cls-2" x1="54.01" y1="56.03" x2="54" y2="56.88"/><line class="cls-2" x1="55.58" y1="56.43" x2="54.04" y2="56.84"/><line class="cls-2" x1="52.68" y1="56.3" x2="53.98" y2="56.88"/><path class="cls-2" d="M62.21,67.62H59.3c0-.3.65-.55,1.45-.55S62.21,67.32,62.21,67.62Z" transform="translate(-6.74 -10.74)"/><path class="cls-2" d="M62.57,67.63H59c0-.49.8-.89,1.8-.88S62.58,67.14,62.57,67.63Z" transform="translate(-6.74 -10.74)"/><path class="cls-2" d="M60.75,66.77a2.45,2.45,0,0,0,.67,1.2,6,6,0,0,0,1.43,1.08" transform="translate(-6.74 -10.74)"/><line class="cls-2" x1="54.06" y1="56.88" x2="54.06" y2="61.88"/><line class="cls-2" x1="55.35" y1="56.84" x2="55.35" y2="61.84"/><rect class="cls-5" x="42.28" y="67.28" width="2.42" height="4.09"/><line class="cls-1" x1="38.86" y1="31.82" x2="39.37" y2="38.15"/><line class="cls-1" x1="48.02" y1="31.87" x2="47.46" y2="38.15"/><rect class="cls-3" x="51.89" y="65.55" width="4.3" height="4.4"/><line class="cls-2" x1="59.42" y1="65.88" x2="59.42" y2="69.6"/><line class="cls-2" x1="59.42" y1="65.88" x2="61.2" y2="65.88"/><line class="cls-2" x1="59.42" y1="69.6" x2="61.24" y2="69.6"/><line class="cls-2" x1="60.33" y1="65.88" x2="60.33" y2="69.6"/><line class="cls-2" x1="59.42" y1="68.69" x2="61.22" y2="68.71"/><line class="cls-2" x1="61.22" y1="67.74" x2="59.42" y2="67.75"/><line class="cls-2" x1="61.22" y1="66.73" x2="59.42" y2="66.73"/><path class="cls-3" d="M70.13,72.62h-4.3l0-5.05c0-.62,1-1.12,2.12-1.12s2.08.5,2.12,1.12Z" transform="translate(-6.74 -10.74)"/><path class="cls-2" d="M67.92,66.86a2.52,2.52,0,0,1-.64,1.2,5.87,5.87,0,0,1-1.36,1.08" transform="translate(-6.74 -10.74)"/><polyline class="cls-2" points="59.11 56.97 59.39 56.97 61.53 56.97"/><line class="cls-2" x1="59.12" y1="61.06" x2="63.39" y2="61.05"/><line class="cls-2" x1="59.11" y1="60.17" x2="63.36" y2="60.2"/><line class="cls-2" x1="59.11" y1="59.07" x2="63.36" y2="59.04"/><line class="cls-2" x1="59.11" y1="58.02" x2="63.36" y2="58"/><line class="cls-2" x1="60.54" y1="56.15" x2="61.17" y2="56.97"/><line class="cls-2" x1="59.87" y1="56.39" x2="61.17" y2="56.97"/><path class="cls-2" d="M69.4,67.71H66.49c0-.31.65-.55,1.46-.55S69.4,67.4,69.4,67.71Z" transform="translate(-6.74 -10.74)"/><path class="cls-2" d="M69.77,67.72l-3.6,0c0-.48.81-.88,1.8-.88S69.77,67.23,69.77,67.72Z" transform="translate(-6.74 -10.74)"/><rect class="cls-3" x="59.09" y="65.55" width="4.3" height="4.4"/><line class="cls-2" x1="16.56" y1="65.79" x2="16.56" y2="69.51"/><line class="cls-2" x1="18.34" y1="65.79" x2="18.38" y2="69.51"/><line class="cls-2" x1="16.56" y1="65.79" x2="18.34" y2="65.79"/><line class="cls-2" x1="16.56" y1="69.51" x2="18.38" y2="69.51"/><line class="cls-2" x1="17.47" y1="65.79" x2="17.47" y2="69.51"/><line class="cls-2" x1="16.56" y1="68.61" x2="18.36" y2="68.62"/><line class="cls-2" x1="18.36" y1="67.65" x2="16.56" y2="67.66"/><line class="cls-2" x1="18.36" y1="66.64" x2="16.56" y2="66.64"/><line class="cls-2" x1="18.35" y1="65.79" x2="18.35" y2="69.51"/><line class="cls-2" x1="20.13" y1="65.79" x2="20.17" y2="69.51"/><line class="cls-2" x1="18.35" y1="65.79" x2="20.13" y2="65.79"/><line class="cls-2" x1="18.35" y1="69.51" x2="20.17" y2="69.51"/><line class="cls-2" x1="19.26" y1="65.79" x2="19.26" y2="69.51"/><line class="cls-2" x1="18.35" y1="68.6" x2="20.15" y2="68.61"/><line class="cls-2" x1="20.15" y1="67.65" x2="18.35" y2="67.65"/><line class="cls-2" x1="20.15" y1="66.63" x2="18.35" y2="66.63"/><path class="cls-3" d="M27.26,72.62H23l0-5.05c0-.62,1-1.12,2.11-1.12s2.09.5,2.12,1.12Z" transform="translate(-6.74 -10.74)"/><path class="cls-2" d="M25.06,66.78A2.54,2.54,0,0,1,24.42,68a5.87,5.87,0,0,1-1.36,1.08" transform="translate(-6.74 -10.74)"/><polyline class="cls-2" points="16.24 56.88 16.52 56.88 18.67 56.88"/><line class="cls-2" x1="17.23" y1="61.88" x2="17.23" y2="56.88"/><line class="cls-2" x1="16.25" y1="60.97" x2="20.53" y2="60.96"/><line class="cls-2" x1="16.25" y1="60.08" x2="20.5" y2="60.11"/><line class="cls-2" x1="16.24" y1="58.99" x2="20.5" y2="58.95"/><line class="cls-2" x1="16.24" y1="57.93" x2="20.5" y2="57.91"/><line class="cls-2" x1="18.31" y1="56.88" x2="19.23" y2="56.13"/><line class="cls-2" x1="17.68" y1="56.06" x2="18.31" y2="56.88"/><line class="cls-2" x1="18.35" y1="56.03" x2="18.34" y2="56.88"/><line class="cls-2" x1="19.91" y1="56.43" x2="18.37" y2="56.84"/><line class="cls-2" x1="17.01" y1="56.3" x2="18.31" y2="56.88"/><path class="cls-2" d="M26.54,67.62H23.63c0-.3.65-.55,1.46-.55S26.54,67.32,26.54,67.62Z" transform="translate(-6.74 -10.74)"/><path class="cls-2" d="M26.91,67.63h-3.6c0-.49.81-.89,1.8-.88S26.91,67.14,26.91,67.63Z" transform="translate(-6.74 -10.74)"/><path class="cls-2" d="M25.08,66.77a2.54,2.54,0,0,0,.67,1.2,6.19,6.19,0,0,0,1.43,1.08" transform="translate(-6.74 -10.74)"/><line class="cls-2" x1="18.39" y1="56.88" x2="18.39" y2="61.88"/><line class="cls-2" x1="19.68" y1="56.84" x2="19.68" y2="61.84"/><rect class="cls-3" x="16.23" y="65.55" width="4.3" height="4.4"/><line class="cls-2" x1="23.76" y1="65.88" x2="23.76" y2="69.6"/><line class="cls-2" x1="25.54" y1="65.88" x2="25.57" y2="69.6"/><line class="cls-2" x1="23.76" y1="65.88" x2="25.54" y2="65.88"/><line class="cls-2" x1="23.76" y1="69.6" x2="25.57" y2="69.6"/><line class="cls-2" x1="24.66" y1="65.88" x2="24.66" y2="69.6"/><line class="cls-2" x1="23.76" y1="68.69" x2="25.55" y2="68.71"/><line class="cls-2" x1="25.55" y1="67.74" x2="23.76" y2="67.75"/><line class="cls-2" x1="25.55" y1="66.73" x2="23.76" y2="66.73"/><line class="cls-2" x1="25.55" y1="65.87" x2="25.55" y2="69.59"/><line class="cls-2" x1="27.33" y1="65.87" x2="27.36" y2="69.59"/><line class="cls-2" x1="25.55" y1="65.87" x2="27.33" y2="65.87"/><line class="cls-2" x1="25.55" y1="69.59" x2="27.36" y2="69.59"/><line class="cls-2" x1="26.45" y1="65.87" x2="26.45" y2="69.59"/><line class="cls-2" x1="25.55" y1="68.69" x2="27.35" y2="68.7"/><line class="cls-2" x1="27.35" y1="67.73" x2="25.55" y2="67.74"/><line class="cls-2" x1="27.35" y1="66.72" x2="25.55" y2="66.72"/><path class="cls-3" d="M34.17,72.62h-4.3l0-5.05c0-.62,1-1.12,2.11-1.12s2.09.5,2.12,1.12Z" transform="translate(-6.74 -10.74)"/><path class="cls-2" d="M32.25,66.86a2.52,2.52,0,0,1-.64,1.2,5.87,5.87,0,0,1-1.36,1.08" transform="translate(-6.74 -10.74)"/><polyline class="cls-2" points="23.44 56.97 23.72 56.97 25.86 56.97"/><line class="cls-2" x1="25.51" y1="56.97" x2="26.43" y2="56.22"/><line class="cls-2" x1="24.88" y1="56.15" x2="25.51" y2="56.97"/><line class="cls-2" x1="25.54" y1="56.12" x2="25.53" y2="56.97"/><line class="cls-2" x1="27.11" y1="56.51" x2="25.57" y2="56.93"/><line class="cls-2" x1="24.21" y1="56.39" x2="25.51" y2="56.97"/><path class="cls-2" d="M33.74,67.71H30.82c0-.31.66-.55,1.46-.55S33.74,67.4,33.74,67.71Z" transform="translate(-6.74 -10.74)"/><path class="cls-2" d="M34.1,67.72l-3.6,0c0-.48.81-.88,1.81-.88S34.1,67.23,34.1,67.72Z" transform="translate(-6.74 -10.74)"/><rect class="cls-3" x="23.42" y="65.55" width="4.3" height="4.4"/><line class="cls-2" x1="30.78" y1="65.88" x2="30.78" y2="69.6"/><line class="cls-2" x1="32.56" y1="65.88" x2="32.59" y2="69.6"/><line class="cls-2" x1="30.78" y1="65.88" x2="32.56" y2="65.88"/><line class="cls-2" x1="30.78" y1="69.6" x2="32.59" y2="69.6"/><line class="cls-2" x1="31.68" y1="65.88" x2="31.68" y2="69.6"/><line class="cls-2" x1="30.78" y1="68.69" x2="32.58" y2="68.71"/><line class="cls-2" x1="32.58" y1="67.74" x2="30.78" y2="67.75"/><line class="cls-2" x1="32.58" y1="66.73" x2="30.78" y2="66.73"/><line class="cls-2" x1="32.57" y1="65.87" x2="32.57" y2="69.59"/><line class="cls-2" x1="34.35" y1="65.87" x2="34.38" y2="69.59"/><line class="cls-2" x1="32.57" y1="65.87" x2="34.35" y2="65.87"/><line class="cls-2" x1="32.57" y1="69.59" x2="34.38" y2="69.59"/><line class="cls-2" x1="33.48" y1="65.87" x2="33.48" y2="69.59"/><line class="cls-2" x1="32.57" y1="68.69" x2="34.37" y2="68.7"/><line class="cls-2" x1="34.37" y1="67.73" x2="32.57" y2="67.74"/><line class="cls-2" x1="34.37" y1="66.72" x2="32.57" y2="66.72"/><path class="cls-3" d="M41.37,72.62h-4.3l0-5.05c0-.62,1-1.12,2.12-1.12s2.08.5,2.12,1.12Z" transform="translate(-6.74 -10.74)"/><path class="cls-2" d="M39.27,66.86a2.43,2.43,0,0,1-.64,1.2,5.87,5.87,0,0,1-1.36,1.08" transform="translate(-6.74 -10.74)"/><polyline class="cls-2" points="30.46 56.97 30.74 56.97 32.89 56.97"/><line class="cls-2" x1="32.53" y1="56.97" x2="33.45" y2="56.22"/><line class="cls-2" x1="31.9" y1="56.15" x2="32.53" y2="56.97"/><line class="cls-2" x1="32.56" y1="56.12" x2="32.55" y2="56.97"/><line class="cls-2" x1="34.13" y1="56.51" x2="32.59" y2="56.93"/><line class="cls-2" x1="31.23" y1="56.39" x2="32.53" y2="56.97"/><path class="cls-2" d="M40.76,67.71H37.85c0-.31.65-.55,1.45-.55S40.76,67.4,40.76,67.71Z" transform="translate(-6.74 -10.74)"/><path class="cls-2" d="M41.12,67.72l-3.59,0c0-.48.8-.88,1.8-.88S41.12,67.23,41.12,67.72Z" transform="translate(-6.74 -10.74)"/><rect class="cls-3" x="30.44" y="65.55" width="4.3" height="4.4"/><line class="cls-1" x1="13.49" y1="55.06" x2="13.53" y2="50.45"/><line class="cls-5" x1="16.42" y1="50.52" x2="15.31" y2="53.92"/><rect class="cls-5" x="13.51" y="50.43" width="23.02" height="3.49"/><rect class="cls-5" x="49.99" y="50.45" width="22.55" height="3.5"/><line class="cls-1" x1="38.85" y1="38.41" x2="37.2" y2="40.35"/><line class="cls-1" x1="48.15" y1="38.29" x2="49.82" y2="41.09"/><circle class="cls-4" cx="43.42" cy="35.07" r="1.63"/><path class="cls-2" d="M50.25,45.75a.09.09,0,1,1-.18,0,.09.09,0,0,1,.18,0Z" transform="translate(-6.74 -10.74)"/><line class="cls-2" x1="43.42" y1="34.07" x2="43.42" y2="34.88"/><line class="cls-9" x1="43.42" y1="35.14" x2="43.42" y2="35.7"/><path class="cls-4" d="M46,68.27l2.21,0h.08a2,2,0,1,1,4,0h2.16" transform="translate(-6.74 -10.74)"/><line class="cls-4" x1="43.55" y1="63.74" x2="40.79" y2="65.27"/><line class="cls-4" x1="46.31" y1="65.28" x2="43.55" y2="63.74"/><line class="cls-4" x1="45.88" y1="65.74" x2="46.31" y2="65.28"/><line class="cls-4" x1="41.19" y1="65.73" x2="40.79" y2="65.27"/><line class="cls-4" x1="41.19" y1="65.73" x2="41.22" y2="71.01"/><line class="cls-4" x1="45.84" y1="65.74" x2="45.86" y2="70.99"/><line class="cls-4" x1="39.5" y1="58.01" x2="39.63" y2="71.81"/><line class="cls-4" x1="47.43" y1="58" x2="47.58" y2="71.69"/><path d="M51.86,36.82a.09.09,0,0,1,0,0v2.56h-.79V36.66a.43.43,0,0,0,0,0v-.1l0-.07s0,0,0,0,0,0,0,0a.1.1,0,0,1,0,0s0,0,0,0,0,0,0,0a.15.15,0,0,1,.07,0l0,0h.07l0,0,.07,0,.07.06.09.06a.24.24,0,0,0,.07.09s0,.05.05.1a.92.92,0,0,1,0,.09.34.34,0,0,1,0,.1A.78.78,0,0,0,51.86,36.82Z" transform="translate(-6.74 -10.74)"/><path d="M50.76,36.65h0v2.78H49.56V36.65h0a.1.1,0,0,1,0-.07.62.62,0,0,1,.62-.59.61.61,0,0,1,.6.59A.1.1,0,0,1,50.76,36.65Z" transform="translate(-6.74 -10.74)"/><path d="M49.27,36.85a0,0,0,0,0,0,0v2.56h-.79V36.82a.2.2,0,0,1,0-.09.87.87,0,0,0,0-.1s0-.05,0-.09l.07-.1.07-.09.07-.06s.07,0,.08-.06l.07,0,0,0H49l0,0a.19.19,0,0,1,.09,0,0,0,0,0,0,0,0s0,0,0,0a.1.1,0,0,0,0,0s0,0,0,0,0,0,0,0v.1s0,0,0,0v.08s0,0,0,.07v.09S49.25,36.84,49.27,36.85Z" transform="translate(-6.74 -10.74)"/><path class="cls-1" d="M53.05,35.4h0v7.19H47.24V35.4a2.61,2.61,0,0,1-.1-.69,2.82,2.82,0,0,1,2-2.67A2,2,0,0,1,48,30.21a2.18,2.18,0,0,1,4.36,0A2,2,0,0,1,51.1,32a2.8,2.8,0,0,1,2,2.67A2.61,2.61,0,0,1,53.05,35.4Z" transform="translate(-6.74 -10.74)"/><path class="cls-10" d="M25.06,38.89a.32.32,0,0,1-.14,0,10.91,10.91,0,0,1-3.45-3.37,2.39,2.39,0,0,1-.37-1.29V34a2,2,0,0,1,.58-1.41l.16-.14A2,2,0,0,1,23.19,32a2.27,2.27,0,0,1,1.87,1,2.21,2.21,0,0,1,1.84-1,2.11,2.11,0,0,1,1.38.48l.15.14A2,2,0,0,1,29,34v.2a2.31,2.31,0,0,1-.38,1.29,10.91,10.91,0,0,1-3.45,3.37A.31.31,0,0,1,25.06,38.89Zm-1.87-6.43a1.61,1.61,0,0,0-1,.37l-.12.11A1.52,1.52,0,0,0,21.59,34v.2a1.84,1.84,0,0,0,.3,1,10.27,10.27,0,0,0,3.17,3.12,10.23,10.23,0,0,0,3.16-3.12,1.84,1.84,0,0,0,.3-1V34a1.47,1.47,0,0,0-.44-1.06L28,32.83a1.61,1.61,0,0,0-1.06-.37,1.76,1.76,0,0,0-1.54,1l-.08.17a.26.26,0,0,1-.45,0l-.08-.17A1.74,1.74,0,0,0,23.19,32.46Z" transform="translate(-6.74 -10.74)"/><path class="cls-11" d="M29.62,26.05H20.49a7.14,7.14,0,0,0-7.12,7.12v3.9a7.14,7.14,0,0,0,7.12,7.13h9.59l4.33,4.33a1.36,1.36,0,0,0,1,.4,1.36,1.36,0,0,0,1.38-1.37V33.17A7.14,7.14,0,0,0,29.62,26.05Zm5.47,20.83L31.16,43a1.35,1.35,0,0,0-1-.4h-9.7A5.49,5.49,0,0,1,15,37.07v-3.9a5.48,5.48,0,0,1,5.47-5.47h9.13a5.48,5.48,0,0,1,5.47,5.47V46.88Z" transform="translate(-6.74 -10.74)"/><path d="M23.26,74c-.36-.59-.07-1,.64-1h4.3c.71,0,1-.46.64-1L18.61,55.88a.71.71,0,0,0-.87-.38.64.64,0,0,0-.42.38L7.06,72c-.35.58-.06,1,.65,1H12c.71,0,1,.45.64,1L7.06,82.73c-.35.59-.06,1,.65,1H13.5a1.23,1.23,0,0,1,1.29,1.16v3.18a1.23,1.23,0,0,0,1.29,1.17h3.8a1.23,1.23,0,0,0,1.29-1.17V84.94a1.23,1.23,0,0,1,1.29-1.16h5.79c.71,0,1-.46.65-1Z" transform="translate(-6.74 -10.74)"/><path class="cls-12" d="M23.26,74c-.36-.59-.07-1,.64-1h4.3c.71,0,1-.46.64-1L18.61,55.88a.71.71,0,0,0-.87-.38.64.64,0,0,0-.42.38L7.06,72c-.35.58-.06,1,.65,1H12c.71,0,1,.45.64,1L7.06,82.73c-.35.59-.06,1,.65,1H13.5a1.23,1.23,0,0,1,1.29,1.16v3.18a1.23,1.23,0,0,0,1.29,1.17h3.8a1.23,1.23,0,0,0,1.29-1.17V84.94a1.23,1.23,0,0,1,1.29-1.16h5.79c.71,0,1-.46.65-1Z" transform="translate(-6.74 -10.74)"/><path d="M69.67,19.47H84.82a.93.93,0,0,0,0-1.86H69.67a.93.93,0,0,0,0,1.86Z" transform="translate(-6.74 -10.74)"/><path d="M69.67,23.57H84.82a.93.93,0,0,0,0-1.85H69.67a.93.93,0,0,0,0,1.85Z" transform="translate(-6.74 -10.74)"/><path d="M69.67,27.67H84.82a.93.93,0,0,0,0-1.85H69.67a.93.93,0,0,0,0,1.85Z" transform="translate(-6.74 -10.74)"/><path d="M62.24,19.9V38.38A1.75,1.75,0,0,0,63.33,40a1.8,1.8,0,0,0,.68.14,1.74,1.74,0,0,0,1.24-.52l5.58-5.57H83.17a9.17,9.17,0,0,0,9.18-9.15v-5a9.18,9.18,0,0,0-9.18-9.16H71.42A9.18,9.18,0,0,0,62.24,19.9Zm2.13,17.61V19.9a7.05,7.05,0,0,1,7-7H83.17a7.05,7.05,0,0,1,7,7v5a7,7,0,0,1-7,7H70.68a1.77,1.77,0,0,0-1.25.52l-5.06,5Z" transform="translate(-6.74 -10.74)"/></svg>