<svg viewBox="0 0 86.35 78.69" xmlns="http://www.w3.org/2000/svg"><path d="m43.4 9.85-.41 6.19" fill="none" stroke="#000" stroke-linecap="round" stroke-linejoin="round" stroke-width="1.5"/><path d="m43.82 16.04-.36-6.19" fill="none" stroke="#000" stroke-linecap="round" stroke-linejoin="round" stroke-width="1.5"/><path d="m42.99 16.04h.83" fill="none" stroke="#000" stroke-linecap="round" stroke-linejoin="round" stroke-width=".1"/><path d="m72.83 54.84-.15 17.21" fill="none" stroke="#000" stroke-linecap="round" stroke-linejoin="round" stroke-width="1.5"/><path d="m72.83 54.84-.07-4.39" fill="none" stroke="#000" stroke-linecap="round" stroke-linejoin="round" stroke-width="1.5"/><path d="m66.79 50.56.77 3.42" fill="none" stroke="#000" stroke-linecap="round" stroke-linejoin="round" stroke-width=".1"/><path d="m68.42 50.57 1.11 3.4" fill="none" stroke="#000" stroke-linecap="round" stroke-linejoin="round" stroke-width=".1"/><path d="m61.2 65.88.04 3.72" fill="none" stroke="#000" stroke-linecap="round" stroke-linejoin="round" stroke-width=".1"/><path d="m61.21 65.87v3.72" fill="none" stroke="#000" stroke-linecap="round" stroke-linejoin="round" stroke-width=".1"/><path d="m63 65.87.03 3.72" fill="none" stroke="#000" stroke-linecap="round" stroke-linejoin="round" stroke-width=".1"/><path d="m61.21 65.87h1.79" fill="none" stroke="#000" stroke-linecap="round" stroke-linejoin="round" stroke-width=".1"/><path d="m61.21 69.59h1.82" fill="none" stroke="#000" stroke-linecap="round" stroke-linejoin="round" stroke-width=".1"/><path d="m62.12 65.87v3.72" fill="none" stroke="#000" stroke-linecap="round" stroke-linejoin="round" stroke-width=".1"/><path d="m61.21 68.69 1.8.01" fill="none" stroke="#000" stroke-linecap="round" stroke-linejoin="round" stroke-width=".1"/><path d="m63.01 67.73-1.8.01" fill="none" stroke="#000" stroke-linecap="round" stroke-linejoin="round" stroke-width=".1"/><path d="m63.01 66.72h-1.8" fill="none" stroke="#000" stroke-linecap="round" stroke-linejoin="round" stroke-width=".1"/><path d="m61.17 56.97.92-.75" fill="none" stroke="#000" stroke-linecap="round" stroke-linejoin="round" stroke-width=".1"/><path d="m61.21 56.12-.01.85" fill="none" stroke="#000" stroke-linecap="round" stroke-linejoin="round" stroke-width=".1"/><path d="m62.77 56.51-1.54.42" fill="none" stroke="#000" stroke-linecap="round" stroke-linejoin="round" stroke-width=".1"/><path d="m67.94 66.86a2.54 2.54 0 0 0 .67 1.2 6.19 6.19 0 0 0 1.39 1.08" fill="none" stroke="#000" stroke-linecap="round" stroke-linejoin="round" stroke-width=".1" transform="translate(-6.74 -10.74)"/><path d="m66.44 65.88v3.72" fill="none" stroke="#000" stroke-linecap="round" stroke-linejoin="round" stroke-width=".1"/><path d="m68.23 65.88.03 3.72" fill="none" stroke="#000" stroke-linecap="round" stroke-linejoin="round" stroke-width=".1"/><path d="m66.44 65.88h1.79" fill="none" stroke="#000" stroke-linecap="round" stroke-linejoin="round" stroke-width=".1"/><path d="m66.44 69.6h1.82" fill="none" stroke="#000" stroke-linecap="round" stroke-linejoin="round" stroke-width=".1"/><path d="m67.35 65.88v3.72" fill="none" stroke="#000" stroke-linecap="round" stroke-linejoin="round" stroke-width=".1"/><path d="m66.44 68.69 1.8.02" fill="none" stroke="#000" stroke-linecap="round" stroke-linejoin="round" stroke-width=".1"/><path d="m68.24 67.74-1.8.01" fill="none" stroke="#000" stroke-linecap="round" stroke-linejoin="round" stroke-width=".1"/><path d="m68.24 66.73h-1.8" fill="none" stroke="#000" stroke-linecap="round" stroke-linejoin="round" stroke-width=".1"/><path d="m68.23 65.87v3.72" fill="none" stroke="#000" stroke-linecap="round" stroke-linejoin="round" stroke-width=".1"/><path d="m70.02 65.87.03 3.72" fill="none" stroke="#000" stroke-linecap="round" stroke-linejoin="round" stroke-width=".1"/><path d="m68.23 65.87h1.79" fill="none" stroke="#000" stroke-linecap="round" stroke-linejoin="round" stroke-width=".1"/><path d="m68.23 69.59h1.82" fill="none" stroke="#000" stroke-linecap="round" stroke-linejoin="round" stroke-width=".1"/><path d="m69.14 65.87v3.72" fill="none" stroke="#000" stroke-linecap="round" stroke-linejoin="round" stroke-width=".1"/><path d="m68.23 68.69 1.8.01" fill="none" stroke="#000" stroke-linecap="round" stroke-linejoin="round" stroke-width=".1"/><path d="m70.03 67.73-1.8.01" fill="none" stroke="#000" stroke-linecap="round" stroke-linejoin="round" stroke-width=".1"/><path d="m70.03 66.72h-1.8" fill="none" stroke="#000" stroke-linecap="round" stroke-linejoin="round" stroke-width=".1"/><path d="m77.15 72.62h-4.3v-5.05c0-.62 1-1.12 2.12-1.12s2.08.5 2.12 1.12z" stroke="#000" stroke-linecap="round" stroke-linejoin="round" stroke-width=".15" transform="translate(-6.74 -10.74)"/><path d="m74.94 66.86a2.52 2.52 0 0 1 -.64 1.2 5.87 5.87 0 0 1 -1.36 1.08" fill="none" stroke="#000" stroke-linecap="round" stroke-linejoin="round" stroke-width=".1" transform="translate(-6.74 -10.74)"/><path d="m66.13 56.97h.28 2.14" fill="none" stroke="#000" stroke-linecap="round" stroke-linejoin="round" stroke-width=".1"/><path d="m67.11 61.97v-5" fill="none" stroke="#000" stroke-linecap="round" stroke-linejoin="round" stroke-width=".1"/><path d="m66.14 61.06 4.27-.01" fill="none" stroke="#000" stroke-linecap="round" stroke-linejoin="round" stroke-width=".1"/><path d="m66.13 60.17 4.25.03" fill="none" stroke="#000" stroke-linecap="round" stroke-linejoin="round" stroke-width=".1"/><path d="m66.13 59.07 4.25-.03" fill="none" stroke="#000" stroke-linecap="round" stroke-linejoin="round" stroke-width=".1"/><path d="m66.13 58.02 4.25-.02" fill="none" stroke="#000" stroke-linecap="round" stroke-linejoin="round" stroke-width=".1"/><path d="m68.2 56.97.91-.75" fill="none" stroke="#000" stroke-linecap="round" stroke-linejoin="round" stroke-width=".1"/><path d="m67.56 56.15.64.82" fill="none" stroke="#000" stroke-linecap="round" stroke-linejoin="round" stroke-width=".1"/><path d="m68.23 56.12-.01.85" fill="none" stroke="#000" stroke-linecap="round" stroke-linejoin="round" stroke-width=".1"/><path d="m69.79 56.51-1.54.42" fill="none" stroke="#000" stroke-linecap="round" stroke-linejoin="round" stroke-width=".1"/><path d="m66.89 56.39 1.31.58" fill="none" stroke="#000" stroke-linecap="round" stroke-linejoin="round" stroke-width=".1"/><path d="m76.42 67.71h-2.91c0-.31.66-.55 1.46-.55s1.45.24 1.45.55z" fill="none" stroke="#000" stroke-linecap="round" stroke-linejoin="round" stroke-width=".1" transform="translate(-6.74 -10.74)"/><path d="m76.79 67.72h-3.6c0-.48.81-.88 1.8-.88s1.8.39 1.8.88z" fill="none" stroke="#000" stroke-linecap="round" stroke-linejoin="round" stroke-width=".1" transform="translate(-6.74 -10.74)"/><path d="m75 66.86a2.54 2.54 0 0 0 .67 1.2 6.19 6.19 0 0 0 1.43 1.08" fill="none" stroke="#000" stroke-linecap="round" stroke-linejoin="round" stroke-width=".1" transform="translate(-6.74 -10.74)"/><path d="m68.27 56.97v5" fill="none" stroke="#000" stroke-linecap="round" stroke-linejoin="round" stroke-width=".1"/><path d="m69.57 56.93v5" fill="none" stroke="#000" stroke-linecap="round" stroke-linejoin="round" stroke-width=".1"/><path d="m66.11 65.55h4.3v4.4h-4.3z" stroke="#000" stroke-linecap="round" stroke-linejoin="round" stroke-width=".15"/><path d="m69.56 50.45h3.18" fill="none" stroke="#000" stroke-linecap="round" stroke-linejoin="round" stroke-width="1.5"/><path d="m70.25 50.59 1.11 3.4" fill="none" stroke="#000" stroke-linecap="round" stroke-linejoin="round" stroke-width=".1"/><path d="m87.3 74c-.36-.59-.07-1 .64-1h4.3c.71 0 1-.46.64-1l-10.23-16.12a.71.71 0 0 0 -.87-.38.64.64 0 0 0 -.42.38l-10.26 16.12c-.35.58-.06 1 .65 1h4.3c.71 0 1 .45.64 1l-5.59 8.73c-.35.59-.06 1 .65 1h5.79a1.23 1.23 0 0 1 1.29 1.16v3.18a1.23 1.23 0 0 0 1.29 1.17h3.8a1.23 1.23 0 0 0 1.29-1.17v-3.13a1.23 1.23 0 0 1 1.29-1.16h5.79c.71 0 1-.46.65-1z" transform="translate(-6.74 -10.74)"/><g stroke="#000"><path d="m42.99 16.04-.47.23" fill="none" stroke-linecap="round" stroke-linejoin="round" stroke-width="1.5"/><path d="m43.82 16.04.48.27" fill="none" stroke-linecap="round" stroke-linejoin="round" stroke-width="1.5"/><path d="m42.52 16.27v.41" fill="none" stroke-linecap="round" stroke-linejoin="round" stroke-width="1.5"/><path d="m44.3 16.31.01.37" fill="none" stroke-linecap="round" stroke-linejoin="round" stroke-width="1.5"/><path d="m42.52 16.68.18.19" fill="none" stroke-linecap="round" stroke-linejoin="round" stroke-width="1.5"/><path d="m44.31 16.68-.17.16" fill="none" stroke-linecap="round" stroke-linejoin="round" stroke-width="1.5"/><path d="m38.86 31.82 9.16.05" fill="none" stroke-linecap="round" stroke-linejoin="round" stroke-width="1.5"/><path d="m47.66 38.4-.13-.25" fill="none" stroke-linecap="round" stroke-linejoin="round" stroke-width="1.5"/><path d="m39.24 38.37.13-.22" fill="none" stroke-linecap="round" stroke-linejoin="round" stroke-width="1.5"/><path d="m38.85 38.41h9.15" fill="none" stroke-linecap="round" stroke-linejoin="round" stroke-width="1.5"/><path d="m42.22 66.38h2.75" fill="none" stroke-linecap="round" stroke-linejoin="round" stroke-width=".1"/><path d="m39.26 57.53.24.48" fill="none" stroke-linecap="round" stroke-linejoin="round" stroke-width=".75"/><path d="m47.73 57.52-.3.48" fill="none" stroke-linecap="round" stroke-linejoin="round" stroke-width=".75"/><path d="m13.49 53.9.09 18.12" fill="none" stroke-linecap="round" stroke-linejoin="round" stroke-width="1.5"/><path d="m13.58 72.02 59.09.03" fill="none" stroke-linecap="round" stroke-linejoin="round" stroke-width="1.5"/><path d="m36.91 50.4-23.38.05" fill="none" stroke-linecap="round" stroke-linejoin="round" stroke-width="1.5"/><path d="m36.17 47.89.74 2.51" fill="none" stroke-linecap="round" stroke-linejoin="round" stroke-width="1.5"/><path d="m50.83 47.94-14.66-.05" fill="none" stroke-linecap="round" stroke-linejoin="round" stroke-width="1.5"/><path d="m49.99 50.45.84-2.51" fill="none" stroke-linecap="round" stroke-linejoin="round" stroke-width="1.5"/><path d="m42.31 41.44h2.28v3.26h-2.28z" stroke-linecap="round" stroke-linejoin="round" stroke-width=".1"/><path d="m37.16 40.48-.1 7.41" fill="none" stroke-linecap="round" stroke-linejoin="round" stroke-width="1.5"/><path d="m49.82 41.34v6.46" fill="none" stroke-linecap="round" stroke-linejoin="round" stroke-width="1.5"/><path d="m69.56 50.45h-19.57" fill="none" stroke-linecap="round" stroke-linejoin="round" stroke-width="1.5"/><path d="m37.1 72.03-.19-21.63" fill="none" stroke-linecap="round" stroke-linejoin="round" stroke-width="1.5"/><path d="m49.99 50.45v21.58" fill="none" stroke-linecap="round" stroke-linejoin="round" stroke-width="1.5"/><path d="m51.86 61.48-.25.23v2.67h-2.61v-2.66l-.24-.22a2.33 2.33 0 0 1 3.16 0z" stroke-linecap="round" stroke-linejoin="round" stroke-width=".75" transform="translate(-6.74 -10.74)"/><path d="m13.49 53.9 23.45.02" fill="none" stroke-linecap="round" stroke-linejoin="round" stroke-width=".1"/><path d="m49.99 53.99 22.55-.03" fill="none" stroke-linecap="round" stroke-linejoin="round" stroke-width=".1"/><path d="m51.42 73.36h-2.17v-4.5a1.08 1.08 0 0 1 2.15 0z" stroke-linecap="round" stroke-linejoin="round" stroke-width=".15" transform="translate(-6.74 -10.74)"/><path d="m50.68 68.15a4.77 4.77 0 0 1 -.22 1.06 4.43 4.43 0 0 1 -.45 1" fill="none" stroke-linecap="round" stroke-linejoin="round" stroke-width=".1" transform="translate(-6.74 -10.74)"/><path d="m50 68.15a4.18 4.18 0 0 0 .21 1.06 4.41 4.41 0 0 0 .46 1" fill="none" stroke-linecap="round" stroke-linejoin="round" stroke-width=".1" transform="translate(-6.74 -10.74)"/><path d="m42.49 58.16h.25 1.91" fill="none" stroke-linecap="round" stroke-linejoin="round" stroke-width=".1"/><path d="m43.6 62.62v-4.46" fill="none" stroke-linecap="round" stroke-linejoin="round" stroke-width=".1"/><path d="m42.49 62.05 2.16-.01" stroke-linecap="round" stroke-linejoin="round" stroke-width=".1"/><path d="m42.51 61.51h2.17" fill="none" stroke-linecap="round" stroke-linejoin="round" stroke-width=".1"/><path d="m42.51 61.01 2.17.02" fill="none" stroke-linecap="round" stroke-linejoin="round" stroke-width=".1"/><path d="m42.51 60.53 2.17.01" fill="none" stroke-linecap="round" stroke-linejoin="round" stroke-width=".1"/><path d="m42.49 60.04 2.18-.02" fill="none" stroke-linecap="round" stroke-linejoin="round" stroke-width=".1"/><path d="m42.53 59.56 2.15-.03" fill="none" stroke-linecap="round" stroke-linejoin="round" stroke-width=".1"/><path d="m42.49 59.1 2.17-.01" fill="none" stroke-linecap="round" stroke-linejoin="round" stroke-width=".1"/><path d="m42.51 58.65h2.14" fill="none" stroke-linecap="round" stroke-linejoin="round" stroke-width=".1"/><path d="m43.58 58.16.45-.64" fill="none" stroke-linecap="round" stroke-linejoin="round" stroke-width=".1"/><path d="m43.18 57.5.4.66" fill="none" stroke-linecap="round" stroke-linejoin="round" stroke-width=".1"/><path d="m43.61 57.41-.01.75" fill="none" stroke-linecap="round" stroke-linejoin="round" stroke-width=".1"/><path d="m44.34 57.83-.76.33" fill="none" stroke-linecap="round" stroke-linejoin="round" stroke-width=".1"/><path d="m42.88 57.78.7.38" fill="none" stroke-linecap="round" stroke-linejoin="round" stroke-width=".1"/><path d="m43.59 58.16.01 4.46" fill="none" stroke-linecap="round" stroke-linejoin="round" stroke-width=".1"/><path d="m43.6 58.16v4.46" fill="none" stroke-linecap="round" stroke-linejoin="round" stroke-width=".1"/><path d="m43.6 59.44v2.91" fill="none" stroke-linecap="round" stroke-linejoin="round" stroke-width=".1"/><path d="m43.6 59.44v2.91" fill="none" stroke-linecap="round" stroke-linejoin="round" stroke-width=".1"/><path d="m42.92 62.35h1.38" fill="none" stroke-linecap="round" stroke-linejoin="round" stroke-width=".1"/><path d="m50.84 68.9h-1a.52.52 0 0 1 1 0z" fill="none" stroke-linecap="round" stroke-linejoin="round" stroke-width=".1" transform="translate(-6.74 -10.74)"/><path d="m51.17 68.9h-1.65a.83.83 0 0 1 1.65 0z" fill="none" stroke-linecap="round" stroke-linejoin="round" stroke-width=".1" transform="translate(-6.74 -10.74)"/><path d="m50.93 77.12h-1.3c0-.27.29-.49.65-.49a.59.59 0 0 1 .65.49z" fill="none" stroke-linecap="round" stroke-linejoin="round" stroke-width=".1" transform="translate(-6.74 -10.74)"/><path d="m51.7 77.14h-2.86a1.44 1.44 0 0 1 2.86 0z" stroke-linecap="round" stroke-linejoin="round" stroke-width=".1" transform="translate(-6.74 -10.74)"/><path d="m50.49 77.12h-.38a.18.18 0 0 1 .19-.12.17.17 0 0 1 .19.12z" fill="none" stroke-linecap="round" stroke-linejoin="round" stroke-width=".1" transform="translate(-6.74 -10.74)"/><path d="m43.57 65.29-.01.94" fill="none" stroke-linecap="round" stroke-linejoin="round" stroke-width=".1"/><path d="m44.6 65.62-.89.66" fill="none" stroke-linecap="round" stroke-linejoin="round" stroke-width=".1"/><path d="m42.56 65.64.85.65" fill="none" stroke-linecap="round" stroke-linejoin="round" stroke-width=".1"/><path d="m43.03 65.38.28.53" fill="none" stroke-linecap="round" stroke-linejoin="round" stroke-width=".1"/><path d="m44.16 65.38-.34.55" fill="none" stroke-linecap="round" stroke-linejoin="round" stroke-width=".1"/><path d="m42.28 66.01.65.19" fill="none" stroke-linecap="round" stroke-linejoin="round" stroke-width=".1"/><path d="m44.89 65.98-.73.23" fill="none" stroke-linecap="round" stroke-linejoin="round" stroke-width=".1"/><path d="m50.52 27.57v.57h.17v-.57-.07h-.13z" fill="#231f20" stroke-linecap="round" stroke-linejoin="round" stroke-width=".1" transform="translate(-6.74 -10.74)"/><path d="m49.76 27.56v.58h-.18v-.58a0 0 0 0 1 0 0v-.06h.09z" fill="#231f20" stroke-linecap="round" stroke-linejoin="round" stroke-width=".1" transform="translate(-6.74 -10.74)"/><path d="m40 38.17.13.24" fill="none" stroke-linecap="round" stroke-linejoin="round" stroke-width=".1"/><path d="m40.46 38.18-.07.23" fill="none" stroke-linecap="round" stroke-linejoin="round" stroke-width=".1"/><path d="m41.09 38.18.09.23" fill="none" stroke-linecap="round" stroke-linejoin="round" stroke-width=".1"/><path d="m45.75 38.16-.07.22" fill="none" stroke-linecap="round" stroke-linejoin="round" stroke-width=".1"/><path d="m46.45 38.16.08.25" fill="none" stroke-linecap="round" stroke-linejoin="round" stroke-width=".1"/><path d="m46.87 38.16-.05.2" fill="none" stroke-linecap="round" stroke-linejoin="round" stroke-width=".1"/><path d="m38.9 32.18 9.08.03" fill="none" stroke-linecap="round" stroke-linejoin="round" stroke-width=".1"/><path d="m39.37 38.15.63.02" fill="none" stroke-linecap="round" stroke-linejoin="round" stroke-width=".1"/><path d="m40.46 38.18h.63" fill="none" stroke-linecap="round" stroke-linejoin="round" stroke-width=".1"/><path d="m45.75 38.16h.7" fill="none" stroke-linecap="round" stroke-linejoin="round" stroke-width=".1"/><path d="m46.87 38.16.66-.01" fill="none" stroke-linecap="round" stroke-linejoin="round" stroke-width=".1"/><path d="m42.56 41.69h1.78v2.76h-1.78z" fill="none" stroke-linecap="round" stroke-linejoin="round" stroke-width=".1"/><path d="m43.43 41.69.03 2.76" fill="none" stroke-linecap="round" stroke-linejoin="round" stroke-width=".1"/><path d="m42.56 42.56 1.78-.01" fill="none" stroke-linecap="round" stroke-linejoin="round" stroke-width=".1"/><path d="m42.56 43.5 1.78-.02" fill="none" stroke-linecap="round" stroke-linejoin="round" stroke-width=".1"/><path d="m36.17 50.4-.36 3.51" stroke-linecap="round" stroke-linejoin="round" stroke-width=".1"/><path d="m34.66 50.41-.36 3.5" stroke-linecap="round" stroke-linejoin="round" stroke-width=".1"/><path d="m33.17 50.41-.41 3.52" stroke-linecap="round" stroke-linejoin="round" stroke-width=".1"/><path d="m31.84 50.4-.36 3.51" stroke-linecap="round" stroke-linejoin="round" stroke-width=".1"/><path d="m30.33 50.41-.36 3.5" stroke-linecap="round" stroke-linejoin="round" stroke-width=".1"/><path d="m28.96 50.4-.41 3.51" stroke-linecap="round" stroke-linejoin="round" stroke-width=".1"/><path d="m27.46 50.41-.36 3.51" stroke-linecap="round" stroke-linejoin="round" stroke-width=".1"/><path d="m25.95 50.42-.36 3.5" stroke-linecap="round" stroke-linejoin="round" stroke-width=".1"/><path d="m19.99 50.5-.77 3.41" stroke-linecap="round" stroke-linejoin="round" stroke-width=".1"/><path d="m18.2 50.45-1.11 3.4" stroke-linecap="round" stroke-linejoin="round" stroke-width=".1"/><path d="m50.61 50.47.37 3.51" fill="none" stroke-linecap="round" stroke-linejoin="round" stroke-width=".1"/><path d="m52.12 50.48.36 3.5" fill="none" stroke-linecap="round" stroke-linejoin="round" stroke-width=".1"/><path d="m53.61 50.48.41 3.52" fill="none" stroke-linecap="round" stroke-linejoin="round" stroke-width=".1"/><path d="m54.94 50.46.36 3.52" fill="none" stroke-linecap="round" stroke-linejoin="round" stroke-width=".1"/><path d="m56.45 50.47.36 3.51" fill="none" stroke-linecap="round" stroke-linejoin="round" stroke-width=".1"/><path d="m57.82 50.46.42 3.52" fill="none" stroke-linecap="round" stroke-linejoin="round" stroke-width=".1"/><path d="m42.31 50.8 2.46.03" fill="#231f20" stroke-linecap="round" stroke-linejoin="round" stroke-width=".75"/><path d="m52.23 65.79v3.72" fill="none" stroke-linecap="round" stroke-linejoin="round" stroke-width=".1"/><path d="m54.01 65.79.03 3.72" fill="none" stroke-linecap="round" stroke-linejoin="round" stroke-width=".1"/><path d="m52.23 65.79h1.78" fill="none" stroke-linecap="round" stroke-linejoin="round" stroke-width=".1"/><path d="m52.23 69.51h1.81" fill="none" stroke-linecap="round" stroke-linejoin="round" stroke-width=".1"/><path d="m53.14 65.79v3.72" fill="none" stroke-linecap="round" stroke-linejoin="round" stroke-width=".1"/><path d="m52.23 68.61 1.8.01" fill="none" stroke-linecap="round" stroke-linejoin="round" stroke-width=".1"/><path d="m54.03 67.65-1.8.01" fill="none" stroke-linecap="round" stroke-linejoin="round" stroke-width=".1"/><path d="m54.03 66.64h-1.8" fill="none" stroke-linecap="round" stroke-linejoin="round" stroke-width=".1"/><path d="m54.02 65.79v3.72" fill="none" stroke-linecap="round" stroke-linejoin="round" stroke-width=".1"/><path d="m55.8 65.79.03 3.72" fill="none" stroke-linecap="round" stroke-linejoin="round" stroke-width=".1"/><path d="m54.02 65.79h1.78" fill="none" stroke-linecap="round" stroke-linejoin="round" stroke-width=".1"/><path d="m54.02 69.51h1.81" fill="none" stroke-linecap="round" stroke-linejoin="round" stroke-width=".1"/><path d="m54.93 65.79v3.72" fill="none" stroke-linecap="round" stroke-linejoin="round" stroke-width=".1"/><path d="m54.02 68.6 1.8.01" fill="none" stroke-linecap="round" stroke-linejoin="round" stroke-width=".1"/><path d="m55.82 67.65h-1.8" fill="none" stroke-linecap="round" stroke-linejoin="round" stroke-width=".1"/><path d="m55.82 66.63h-1.8" fill="none" stroke-linecap="round" stroke-linejoin="round" stroke-width=".1"/><path d="m62.93 72.62h-4.3v-5.05c0-.62 1-1.12 2.12-1.12s2.09.5 2.12 1.12z" stroke-linecap="round" stroke-linejoin="round" stroke-width=".15" transform="translate(-6.74 -10.74)"/><path d="m60.73 66.78a2.58 2.58 0 0 1 -.65 1.22 5.67 5.67 0 0 1 -1.36 1.08" fill="none" stroke-linecap="round" stroke-linejoin="round" stroke-width=".1" transform="translate(-6.74 -10.74)"/><path d="m51.91 56.88h.28 2.15" fill="none" stroke-linecap="round" stroke-linejoin="round" stroke-width=".1"/><path d="m52.89 61.88v-5" fill="none" stroke-linecap="round" stroke-linejoin="round" stroke-width=".1"/><path d="m51.92 60.97 4.28-.01" fill="none" stroke-linecap="round" stroke-linejoin="round" stroke-width=".1"/><path d="m51.92 60.08 4.25.03" fill="none" stroke-linecap="round" stroke-linejoin="round" stroke-width=".1"/><path d="m51.91 58.99 4.26-.04" fill="none" stroke-linecap="round" stroke-linejoin="round" stroke-width=".1"/><path d="m51.91 57.93 4.26-.02" fill="none" stroke-linecap="round" stroke-linejoin="round" stroke-width=".1"/><path d="m53.98 56.88.92-.75" fill="none" stroke-linecap="round" stroke-linejoin="round" stroke-width=".1"/><path d="m53.35 56.06.63.82" fill="none" stroke-linecap="round" stroke-linejoin="round" stroke-width=".1"/><path d="m54.01 56.03-.01.85" fill="none" stroke-linecap="round" stroke-linejoin="round" stroke-width=".1"/><path d="m55.58 56.43-1.54.41" fill="none" stroke-linecap="round" stroke-linejoin="round" stroke-width=".1"/><path d="m52.68 56.3 1.3.58" fill="none" stroke-linecap="round" stroke-linejoin="round" stroke-width=".1"/><path d="m62.21 67.62h-2.91c0-.3.65-.55 1.45-.55s1.46.25 1.46.55z" fill="none" stroke-linecap="round" stroke-linejoin="round" stroke-width=".1" transform="translate(-6.74 -10.74)"/><path d="m62.57 67.63h-3.57c0-.49.8-.89 1.8-.88s1.78.39 1.77.88z" fill="none" stroke-linecap="round" stroke-linejoin="round" stroke-width=".1" transform="translate(-6.74 -10.74)"/><path d="m60.75 66.77a2.45 2.45 0 0 0 .67 1.2 6 6 0 0 0 1.43 1.08" fill="none" stroke-linecap="round" stroke-linejoin="round" stroke-width=".1" transform="translate(-6.74 -10.74)"/><path d="m54.06 56.88v5" fill="none" stroke-linecap="round" stroke-linejoin="round" stroke-width=".1"/><path d="m55.35 56.84v5" fill="none" stroke-linecap="round" stroke-linejoin="round" stroke-width=".1"/><path d="m42.28 67.28h2.42v4.09h-2.42z" stroke-linecap="round" stroke-linejoin="round" stroke-width=".1"/><path d="m38.86 31.82.51 6.33" fill="none" stroke-linecap="round" stroke-linejoin="round" stroke-width="1.5"/><path d="m48.02 31.87-.56 6.28" fill="none" stroke-linecap="round" stroke-linejoin="round" stroke-width="1.5"/><path d="m51.89 65.55h4.3v4.4h-4.3z" stroke-linecap="round" stroke-linejoin="round" stroke-width=".15"/><path d="m59.42 65.88v3.72" fill="none" stroke-linecap="round" stroke-linejoin="round" stroke-width=".1"/><path d="m59.42 65.88h1.78" fill="none" stroke-linecap="round" stroke-linejoin="round" stroke-width=".1"/><path d="m59.42 69.6h1.82" fill="none" stroke-linecap="round" stroke-linejoin="round" stroke-width=".1"/><path d="m60.33 65.88v3.72" fill="none" stroke-linecap="round" stroke-linejoin="round" stroke-width=".1"/><path d="m59.42 68.69 1.8.02" fill="none" stroke-linecap="round" stroke-linejoin="round" stroke-width=".1"/><path d="m61.22 67.74-1.8.01" fill="none" stroke-linecap="round" stroke-linejoin="round" stroke-width=".1"/><path d="m61.22 66.73h-1.8" fill="none" stroke-linecap="round" stroke-linejoin="round" stroke-width=".1"/><path d="m70.13 72.62h-4.3v-5.05c0-.62 1-1.12 2.12-1.12s2.08.5 2.12 1.12z" stroke-linecap="round" stroke-linejoin="round" stroke-width=".15" transform="translate(-6.74 -10.74)"/><path d="m67.92 66.86a2.52 2.52 0 0 1 -.64 1.2 5.87 5.87 0 0 1 -1.36 1.08" fill="none" stroke-linecap="round" stroke-linejoin="round" stroke-width=".1" transform="translate(-6.74 -10.74)"/><path d="m59.11 56.97h.28 2.14" fill="none" stroke-linecap="round" stroke-linejoin="round" stroke-width=".1"/><path d="m59.12 61.06 4.27-.01" fill="none" stroke-linecap="round" stroke-linejoin="round" stroke-width=".1"/><path d="m59.11 60.17 4.25.03" fill="none" stroke-linecap="round" stroke-linejoin="round" stroke-width=".1"/><path d="m59.11 59.07 4.25-.03" fill="none" stroke-linecap="round" stroke-linejoin="round" stroke-width=".1"/><path d="m59.11 58.02 4.25-.02" fill="none" stroke-linecap="round" stroke-linejoin="round" stroke-width=".1"/><path d="m60.54 56.15.63.82" fill="none" stroke-linecap="round" stroke-linejoin="round" stroke-width=".1"/><path d="m59.87 56.39 1.3.58" fill="none" stroke-linecap="round" stroke-linejoin="round" stroke-width=".1"/><path d="m69.4 67.71h-2.91c0-.31.65-.55 1.46-.55s1.45.24 1.45.55z" fill="none" stroke-linecap="round" stroke-linejoin="round" stroke-width=".1" transform="translate(-6.74 -10.74)"/><path d="m69.77 67.72h-3.6c0-.48.81-.88 1.8-.88s1.8.39 1.8.88z" fill="none" stroke-linecap="round" stroke-linejoin="round" stroke-width=".1" transform="translate(-6.74 -10.74)"/><path d="m59.09 65.55h4.3v4.4h-4.3z" stroke-linecap="round" stroke-linejoin="round" stroke-width=".15"/><path d="m16.56 65.79v3.72" fill="none" stroke-linecap="round" stroke-linejoin="round" stroke-width=".1"/><path d="m18.34 65.79.04 3.72" fill="none" stroke-linecap="round" stroke-linejoin="round" stroke-width=".1"/><path d="m16.56 65.79h1.78" fill="none" stroke-linecap="round" stroke-linejoin="round" stroke-width=".1"/><path d="m16.56 69.51h1.82" fill="none" stroke-linecap="round" stroke-linejoin="round" stroke-width=".1"/><path d="m17.47 65.79v3.72" fill="none" stroke-linecap="round" stroke-linejoin="round" stroke-width=".1"/><path d="m16.56 68.61 1.8.01" fill="none" stroke-linecap="round" stroke-linejoin="round" stroke-width=".1"/><path d="m18.36 67.65-1.8.01" fill="none" stroke-linecap="round" stroke-linejoin="round" stroke-width=".1"/><path d="m18.36 66.64h-1.8" fill="none" stroke-linecap="round" stroke-linejoin="round" stroke-width=".1"/><path d="m18.35 65.79v3.72" fill="none" stroke-linecap="round" stroke-linejoin="round" stroke-width=".1"/><path d="m20.13 65.79.04 3.72" fill="none" stroke-linecap="round" stroke-linejoin="round" stroke-width=".1"/><path d="m18.35 65.79h1.78" fill="none" stroke-linecap="round" stroke-linejoin="round" stroke-width=".1"/><path d="m18.35 69.51h1.82" fill="none" stroke-linecap="round" stroke-linejoin="round" stroke-width=".1"/><path d="m19.26 65.79v3.72" fill="none" stroke-linecap="round" stroke-linejoin="round" stroke-width=".1"/><path d="m18.35 68.6 1.8.01" fill="none" stroke-linecap="round" stroke-linejoin="round" stroke-width=".1"/><path d="m20.15 67.65h-1.8" fill="none" stroke-linecap="round" stroke-linejoin="round" stroke-width=".1"/><path d="m20.15 66.63h-1.8" fill="none" stroke-linecap="round" stroke-linejoin="round" stroke-width=".1"/><path d="m27.26 72.62h-4.26v-5.05c0-.62 1-1.12 2.11-1.12s2.09.5 2.12 1.12z" stroke-linecap="round" stroke-linejoin="round" stroke-width=".15" transform="translate(-6.74 -10.74)"/><path d="m25.06 66.78a2.54 2.54 0 0 1 -.64 1.22 5.87 5.87 0 0 1 -1.36 1.08" fill="none" stroke-linecap="round" stroke-linejoin="round" stroke-width=".1" transform="translate(-6.74 -10.74)"/><path d="m16.24 56.88h.28 2.15" fill="none" stroke-linecap="round" stroke-linejoin="round" stroke-width=".1"/><path d="m17.23 61.88v-5" fill="none" stroke-linecap="round" stroke-linejoin="round" stroke-width=".1"/><path d="m16.25 60.97 4.28-.01" fill="none" stroke-linecap="round" stroke-linejoin="round" stroke-width=".1"/><path d="m16.25 60.08 4.25.03" fill="none" stroke-linecap="round" stroke-linejoin="round" stroke-width=".1"/><path d="m16.24 58.99 4.26-.04" fill="none" stroke-linecap="round" stroke-linejoin="round" stroke-width=".1"/><path d="m16.24 57.93 4.26-.02" fill="none" stroke-linecap="round" stroke-linejoin="round" stroke-width=".1"/><path d="m18.31 56.88.92-.75" fill="none" stroke-linecap="round" stroke-linejoin="round" stroke-width=".1"/><path d="m17.68 56.06.63.82" fill="none" stroke-linecap="round" stroke-linejoin="round" stroke-width=".1"/><path d="m18.35 56.03-.01.85" fill="none" stroke-linecap="round" stroke-linejoin="round" stroke-width=".1"/><path d="m19.91 56.43-1.54.41" fill="none" stroke-linecap="round" stroke-linejoin="round" stroke-width=".1"/><path d="m17.01 56.3 1.3.58" fill="none" stroke-linecap="round" stroke-linejoin="round" stroke-width=".1"/><path d="m26.54 67.62h-2.91c0-.3.65-.55 1.46-.55s1.45.25 1.45.55z" fill="none" stroke-linecap="round" stroke-linejoin="round" stroke-width=".1" transform="translate(-6.74 -10.74)"/><path d="m26.91 67.63h-3.6c0-.49.81-.89 1.8-.88s1.8.39 1.8.88z" fill="none" stroke-linecap="round" stroke-linejoin="round" stroke-width=".1" transform="translate(-6.74 -10.74)"/><path d="m25.08 66.77a2.54 2.54 0 0 0 .67 1.2 6.19 6.19 0 0 0 1.43 1.08" fill="none" stroke-linecap="round" stroke-linejoin="round" stroke-width=".1" transform="translate(-6.74 -10.74)"/><path d="m18.39 56.88v5" fill="none" stroke-linecap="round" stroke-linejoin="round" stroke-width=".1"/><path d="m19.68 56.84v5" fill="none" stroke-linecap="round" stroke-linejoin="round" stroke-width=".1"/><path d="m16.23 65.55h4.3v4.4h-4.3z" stroke-linecap="round" stroke-linejoin="round" stroke-width=".15"/><path d="m23.76 65.88v3.72" fill="none" stroke-linecap="round" stroke-linejoin="round" stroke-width=".1"/><path d="m25.54 65.88.03 3.72" fill="none" stroke-linecap="round" stroke-linejoin="round" stroke-width=".1"/><path d="m23.76 65.88h1.78" fill="none" stroke-linecap="round" stroke-linejoin="round" stroke-width=".1"/><path d="m23.76 69.6h1.81" fill="none" stroke-linecap="round" stroke-linejoin="round" stroke-width=".1"/><path d="m24.66 65.88v3.72" fill="none" stroke-linecap="round" stroke-linejoin="round" stroke-width=".1"/><path d="m23.76 68.69 1.79.02" fill="none" stroke-linecap="round" stroke-linejoin="round" stroke-width=".1"/><path d="m25.55 67.74-1.79.01" fill="none" stroke-linecap="round" stroke-linejoin="round" stroke-width=".1"/><path d="m25.55 66.73h-1.79" fill="none" stroke-linecap="round" stroke-linejoin="round" stroke-width=".1"/><path d="m25.55 65.87v3.72" fill="none" stroke-linecap="round" stroke-linejoin="round" stroke-width=".1"/><path d="m27.33 65.87.03 3.72" fill="none" stroke-linecap="round" stroke-linejoin="round" stroke-width=".1"/><path d="m25.55 65.87h1.78" fill="none" stroke-linecap="round" stroke-linejoin="round" stroke-width=".1"/><path d="m25.55 69.59h1.81" fill="none" stroke-linecap="round" stroke-linejoin="round" stroke-width=".1"/><path d="m26.45 65.87v3.72" fill="none" stroke-linecap="round" stroke-linejoin="round" stroke-width=".1"/><path d="m25.55 68.69 1.8.01" fill="none" stroke-linecap="round" stroke-linejoin="round" stroke-width=".1"/><path d="m27.35 67.73-1.8.01" fill="none" stroke-linecap="round" stroke-linejoin="round" stroke-width=".1"/><path d="m27.35 66.72h-1.8" fill="none" stroke-linecap="round" stroke-linejoin="round" stroke-width=".1"/><path d="m34.17 72.62h-4.3v-5.05c0-.62 1-1.12 2.11-1.12s2.09.5 2.12 1.12z" stroke-linecap="round" stroke-linejoin="round" stroke-width=".15" transform="translate(-6.74 -10.74)"/><path d="m32.25 66.86a2.52 2.52 0 0 1 -.64 1.2 5.87 5.87 0 0 1 -1.36 1.08" fill="none" stroke-linecap="round" stroke-linejoin="round" stroke-width=".1" transform="translate(-6.74 -10.74)"/><path d="m23.44 56.97h.28 2.14" fill="none" stroke-linecap="round" stroke-linejoin="round" stroke-width=".1"/><path d="m25.51 56.97.92-.75" fill="none" stroke-linecap="round" stroke-linejoin="round" stroke-width=".1"/><path d="m24.88 56.15.63.82" fill="none" stroke-linecap="round" stroke-linejoin="round" stroke-width=".1"/><path d="m25.54 56.12-.01.85" fill="none" stroke-linecap="round" stroke-linejoin="round" stroke-width=".1"/><path d="m27.11 56.51-1.54.42" fill="none" stroke-linecap="round" stroke-linejoin="round" stroke-width=".1"/><path d="m24.21 56.39 1.3.58" fill="none" stroke-linecap="round" stroke-linejoin="round" stroke-width=".1"/><path d="m33.74 67.71h-2.92c0-.31.66-.55 1.46-.55s1.46.24 1.46.55z" fill="none" stroke-linecap="round" stroke-linejoin="round" stroke-width=".1" transform="translate(-6.74 -10.74)"/><path d="m34.1 67.72h-3.6c0-.48.81-.88 1.81-.88s1.79.39 1.79.88z" fill="none" stroke-linecap="round" stroke-linejoin="round" stroke-width=".1" transform="translate(-6.74 -10.74)"/><path d="m23.42 65.55h4.3v4.4h-4.3z" stroke-linecap="round" stroke-linejoin="round" stroke-width=".15"/><path d="m30.78 65.88v3.72" fill="none" stroke-linecap="round" stroke-linejoin="round" stroke-width=".1"/><path d="m32.56 65.88.03 3.72" fill="none" stroke-linecap="round" stroke-linejoin="round" stroke-width=".1"/><path d="m30.78 65.88h1.78" fill="none" stroke-linecap="round" stroke-linejoin="round" stroke-width=".1"/><path d="m30.78 69.6h1.81" fill="none" stroke-linecap="round" stroke-linejoin="round" stroke-width=".1"/><path d="m31.68 65.88v3.72" fill="none" stroke-linecap="round" stroke-linejoin="round" stroke-width=".1"/><path d="m30.78 68.69 1.8.02" fill="none" stroke-linecap="round" stroke-linejoin="round" stroke-width=".1"/><path d="m32.58 67.74-1.8.01" fill="none" stroke-linecap="round" stroke-linejoin="round" stroke-width=".1"/><path d="m32.58 66.73h-1.8" fill="none" stroke-linecap="round" stroke-linejoin="round" stroke-width=".1"/><path d="m32.57 65.87v3.72" fill="none" stroke-linecap="round" stroke-linejoin="round" stroke-width=".1"/><path d="m34.35 65.87.03 3.72" fill="none" stroke-linecap="round" stroke-linejoin="round" stroke-width=".1"/><path d="m32.57 65.87h1.78" fill="none" stroke-linecap="round" stroke-linejoin="round" stroke-width=".1"/><path d="m32.57 69.59h1.81" fill="none" stroke-linecap="round" stroke-linejoin="round" stroke-width=".1"/><path d="m33.48 65.87v3.72" fill="none" stroke-linecap="round" stroke-linejoin="round" stroke-width=".1"/><path d="m32.57 68.69 1.8.01" fill="none" stroke-linecap="round" stroke-linejoin="round" stroke-width=".1"/><path d="m34.37 67.73-1.8.01" fill="none" stroke-linecap="round" stroke-linejoin="round" stroke-width=".1"/><path d="m34.37 66.72h-1.8" fill="none" stroke-linecap="round" stroke-linejoin="round" stroke-width=".1"/><path d="m41.37 72.62h-4.3v-5.05c0-.62 1-1.12 2.12-1.12s2.08.5 2.12 1.12z" stroke-linecap="round" stroke-linejoin="round" stroke-width=".15" transform="translate(-6.74 -10.74)"/><path d="m39.27 66.86a2.43 2.43 0 0 1 -.64 1.2 5.87 5.87 0 0 1 -1.36 1.08" fill="none" stroke-linecap="round" stroke-linejoin="round" stroke-width=".1" transform="translate(-6.74 -10.74)"/><path d="m30.46 56.97h.28 2.15" fill="none" stroke-linecap="round" stroke-linejoin="round" stroke-width=".1"/><path d="m32.53 56.97.92-.75" fill="none" stroke-linecap="round" stroke-linejoin="round" stroke-width=".1"/><path d="m31.9 56.15.63.82" fill="none" stroke-linecap="round" stroke-linejoin="round" stroke-width=".1"/><path d="m32.56 56.12-.01.85" fill="none" stroke-linecap="round" stroke-linejoin="round" stroke-width=".1"/><path d="m34.13 56.51-1.54.42" fill="none" stroke-linecap="round" stroke-linejoin="round" stroke-width=".1"/><path d="m31.23 56.39 1.3.58" fill="none" stroke-linecap="round" stroke-linejoin="round" stroke-width=".1"/><path d="m40.76 67.71h-2.91c0-.31.65-.55 1.45-.55s1.46.24 1.46.55z" fill="none" stroke-linecap="round" stroke-linejoin="round" stroke-width=".1" transform="translate(-6.74 -10.74)"/><path d="m41.12 67.72h-3.59c0-.48.8-.88 1.8-.88s1.79.39 1.79.88z" fill="none" stroke-linecap="round" stroke-linejoin="round" stroke-width=".1" transform="translate(-6.74 -10.74)"/><path d="m30.44 65.55h4.3v4.4h-4.3z" stroke-linecap="round" stroke-linejoin="round" stroke-width=".15"/><path d="m13.49 55.06.04-4.61" fill="none" stroke-linecap="round" stroke-linejoin="round" stroke-width="1.5"/><path d="m16.42 50.52-1.11 3.4" stroke-linecap="round" stroke-linejoin="round" stroke-width=".1"/><path d="m13.51 50.43h23.02v3.49h-23.02z" stroke-linecap="round" stroke-linejoin="round" stroke-width=".1"/><path d="m49.99 50.45h22.55v3.5h-22.55z" stroke-linecap="round" stroke-linejoin="round" stroke-width=".1"/><path d="m38.85 38.41-1.65 1.94" fill="none" stroke-linecap="round" stroke-linejoin="round" stroke-width="1.5"/><path d="m48.15 38.29 1.67 2.8" fill="none" stroke-linecap="round" stroke-linejoin="round" stroke-width="1.5"/><circle cx="43.42" cy="35.07" fill="none" r="1.63" stroke-linecap="round" stroke-linejoin="round" stroke-width=".75"/><path d="m50.25 45.75a.09.09 0 1 1 -.18 0 .09.09 0 0 1 .18 0z" fill="none" stroke-linecap="round" stroke-linejoin="round" stroke-width=".1" transform="translate(-6.74 -10.74)"/><path d="m43.42 34.07v.81" fill="none" stroke-linecap="round" stroke-linejoin="round" stroke-width=".1"/><path d="m43.42 35.14v.56" fill="none" stroke-linecap="round" stroke-linejoin="round" stroke-width=".2"/><path d="m46 68.27h2.21.08a2 2 0 1 1 4 0h2.16" fill="none" stroke-linecap="round" stroke-linejoin="round" stroke-width=".75" transform="translate(-6.74 -10.74)"/><path d="m43.55 63.74-2.76 1.53" fill="none" stroke-linecap="round" stroke-linejoin="round" stroke-width=".75"/><path d="m46.31 65.28-2.76-1.54" fill="none" stroke-linecap="round" stroke-linejoin="round" stroke-width=".75"/><path d="m45.88 65.74.43-.46" fill="none" stroke-linecap="round" stroke-linejoin="round" stroke-width=".75"/><path d="m41.19 65.73-.4-.46" fill="none" stroke-linecap="round" stroke-linejoin="round" stroke-width=".75"/><path d="m41.19 65.73.03 5.28" fill="none" stroke-linecap="round" stroke-linejoin="round" stroke-width=".75"/><path d="m45.84 65.74.02 5.25" fill="none" stroke-linecap="round" stroke-linejoin="round" stroke-width=".75"/><path d="m39.5 58.01.13 13.8" fill="none" stroke-linecap="round" stroke-linejoin="round" stroke-width=".75"/><path d="m47.43 58 .15 13.69" fill="none" stroke-linecap="round" stroke-linejoin="round" stroke-width=".75"/></g><path d="m51.86 36.82a.09.09 0 0 1 0 0v2.56h-.79v-2.72a.43.43 0 0 0 0 0v-.1-.07s0 0 0 0a.1.1 0 0 1 0 0s0 0 0 0a.15.15 0 0 1 .07 0h.07.07l.07.06.09.06a.24.24 0 0 0 .07.09s0 .05.05.1a.92.92 0 0 1 0 .09.34.34 0 0 1 0 .1.78.78 0 0 0 .3-.17z" transform="translate(-6.74 -10.74)"/><path d="m50.76 36.65v2.78h-1.2v-2.78a.1.1 0 0 1 0-.07.62.62 0 0 1 .62-.59.61.61 0 0 1 .6.59.1.1 0 0 1 -.02.07z" transform="translate(-6.74 -10.74)"/><path d="m49.27 36.85a0 0 0 0 0 0 0v2.56h-.79v-2.59a.2.2 0 0 1 0-.09.87.87 0 0 0 0-.1s0-.05 0-.09l.07-.1.07-.09.07-.06s.07 0 .08-.06h.07.16a.19.19 0 0 1 .09 0 0 0 0 0 0 0 0s0 0 0 0a.1.1 0 0 0 0 0s0 0 0 0v.1s0 0 0 0v.08s0 0 0 .07v.09s.16.27.18.28z" transform="translate(-6.74 -10.74)"/><path d="m53.05 35.4v7.19h-5.81v-7.19a2.61 2.61 0 0 1 -.1-.69 2.82 2.82 0 0 1 2-2.67 2 2 0 0 1 -1.14-1.83 2.18 2.18 0 0 1 4.36 0 2 2 0 0 1 -1.26 1.79 2.8 2.8 0 0 1 2 2.67 2.61 2.61 0 0 1 -.05.73z" fill="none" stroke="#000" stroke-linecap="round" stroke-linejoin="round" stroke-width="1.5" transform="translate(-6.74 -10.74)"/><path d="m25.06 38.89a.32.32 0 0 1 -.14 0 10.91 10.91 0 0 1 -3.45-3.37 2.39 2.39 0 0 1 -.37-1.29v-.23a2 2 0 0 1 .58-1.41l.16-.14a2 2 0 0 1 1.35-.45 2.27 2.27 0 0 1 1.87 1 2.21 2.21 0 0 1 1.84-1 2.11 2.11 0 0 1 1.38.48l.15.14a2 2 0 0 1 .57 1.38v.2a2.31 2.31 0 0 1 -.38 1.29 10.91 10.91 0 0 1 -3.45 3.37.31.31 0 0 1 -.11.03zm-1.87-6.43a1.61 1.61 0 0 0 -1 .37l-.12.11a1.52 1.52 0 0 0 -.48 1.06v.2a1.84 1.84 0 0 0 .3 1 10.27 10.27 0 0 0 3.17 3.12 10.23 10.23 0 0 0 3.16-3.12 1.84 1.84 0 0 0 .3-1v-.2a1.47 1.47 0 0 0 -.44-1.06l-.08-.11a1.61 1.61 0 0 0 -1.06-.37 1.76 1.76 0 0 0 -1.54 1l-.08.17a.26.26 0 0 1 -.45 0l-.08-.17a1.74 1.74 0 0 0 -1.6-1z" stroke="#000" stroke-miterlimit="10" stroke-width="1.25" transform="translate(-6.74 -10.74)"/><path d="m29.62 26.05h-9.13a7.14 7.14 0 0 0 -7.12 7.12v3.9a7.14 7.14 0 0 0 7.12 7.13h9.59l4.33 4.33a1.36 1.36 0 0 0 1 .4 1.36 1.36 0 0 0 1.38-1.37v-14.39a7.14 7.14 0 0 0 -7.17-7.12zm5.47 20.83-3.93-3.88a1.35 1.35 0 0 0 -1-.4h-9.7a5.49 5.49 0 0 1 -5.46-5.53v-3.9a5.48 5.48 0 0 1 5.47-5.47h9.13a5.48 5.48 0 0 1 5.47 5.47v13.71z" stroke="#000" stroke-miterlimit="10" stroke-width=".25" transform="translate(-6.74 -10.74)"/><path d="m23.26 74c-.36-.59-.07-1 .64-1h4.3c.71 0 1-.46.64-1l-10.23-16.12a.71.71 0 0 0 -.87-.38.64.64 0 0 0 -.42.38l-10.26 16.12c-.35.58-.06 1 .65 1h4.29c.71 0 1 .45.64 1l-5.58 8.73c-.35.59-.06 1 .65 1h5.79a1.23 1.23 0 0 1 1.29 1.16v3.18a1.23 1.23 0 0 0 1.29 1.17h3.8a1.23 1.23 0 0 0 1.29-1.17v-3.13a1.23 1.23 0 0 1 1.29-1.16h5.79c.71 0 1-.46.65-1z" transform="translate(-6.74 -10.74)"/><path d="m23.26 74c-.36-.59-.07-1 .64-1h4.3c.71 0 1-.46.64-1l-10.23-16.12a.71.71 0 0 0 -.87-.38.64.64 0 0 0 -.42.38l-10.26 16.12c-.35.58-.06 1 .65 1h4.29c.71 0 1 .45.64 1l-5.58 8.73c-.35.59-.06 1 .65 1h5.79a1.23 1.23 0 0 1 1.29 1.16v3.18a1.23 1.23 0 0 0 1.29 1.17h3.8a1.23 1.23 0 0 0 1.29-1.17v-3.13a1.23 1.23 0 0 1 1.29-1.16h5.79c.71 0 1-.46.65-1z" fill="none" stroke="#000" stroke-miterlimit="10" stroke-width=".353649" transform="translate(-6.74 -10.74)"/><path d="m69.67 19.47h15.15a.93.93 0 0 0 0-1.86h-15.15a.93.93 0 0 0 0 1.86z" transform="translate(-6.74 -10.74)"/><path d="m69.67 23.57h15.15a.93.93 0 0 0 0-1.85h-15.15a.93.93 0 0 0 0 1.85z" transform="translate(-6.74 -10.74)"/><path d="m69.67 27.67h15.15a.93.93 0 0 0 0-1.85h-15.15a.93.93 0 0 0 0 1.85z" transform="translate(-6.74 -10.74)"/><path d="m62.24 19.9v18.48a1.75 1.75 0 0 0 1.09 1.62 1.8 1.8 0 0 0 .68.14 1.74 1.74 0 0 0 1.24-.52l5.58-5.57h12.34a9.17 9.17 0 0 0 9.18-9.15v-5a9.18 9.18 0 0 0 -9.18-9.16h-11.75a9.18 9.18 0 0 0 -9.18 9.16zm2.13 17.61v-17.61a7.05 7.05 0 0 1 7-7h11.8a7.05 7.05 0 0 1 7 7v5a7 7 0 0 1 -7 7h-12.49a1.77 1.77 0 0 0 -1.25.52l-5.06 5z" transform="translate(-6.74 -10.74)"/></svg>