<?xml version="1.0" encoding="utf-8"?>
<!-- Generator: Adobe Illustrator 24.2.1, SVG Export Plug-In . SVG Version: 6.00 Build 0)  -->
<svg version="1.1" id="Layer_1" xmlns="http://www.w3.org/2000/svg" xmlns:xlink="http://www.w3.org/1999/xlink" x="0px" y="0px"
	 viewBox="0 0 73.3 83.9" style="enable-background:new 0 0 73.3 83.9;" xml:space="preserve">
<style type="text/css">
	.st0{fill:#231F20;stroke:#231F20;stroke-width:2.5524;stroke-miterlimit:10;}
	.st1{fill:none;}
	.st2{fill:none;stroke:#231F20;stroke-width:2.5524;stroke-miterlimit:10;}
	.st3{fill:none;stroke:#000000;stroke-width:7.131969e-02;stroke-miterlimit:10;}
	.st4{fill:none;stroke:#231F20;stroke-width:1.2762;stroke-miterlimit:10;}
</style>
<g>
	<path class="st0" d="M59.1,23.9c0.4,1,0.4,2-0.1,2.9c0.5,1.4,0.1,2.9-1,3.9l-0.2,0.2c0,0.8-0.3,1.6-0.9,2.2
		c-0.6,0.7-1.4,1.1-2.2,1.2h-0.3c-0.3,1.1-1,2.1-2.1,2.6c-0.9,0.5-2,0.6-3,0.3c-1.5,1.5-3.8,1.7-5.5,0.4c-0.9,0.1-1.8-0.6-1.9-1.5
		c0,0,0,0,0,0c-0.9-0.2-1.5-1-1.3-1.9c-0.8-0.6-1-1.7-0.4-2.5c0,0,0.1-0.1,0.1-0.1c-0.9-0.6-1.1-1.9-0.5-2.8c0,0,0.1-0.1,0.1-0.1
		c0.1-0.7,0.6-1.2,1.2-1.4c0.3-1.5,1.5-2.8,3.1-3.1c0-0.7,0.3-1.4,0.7-2c-0.4-1.1,0.1-2.3,1.2-2.9c-1.1-0.6-1.6-2-1-3.2
		c-0.8,0.2-1.6,0.1-2.3-0.4c-0.5-0.3-0.9-0.8-1.1-1.4c-1.2,1-2.8,0.9-3.9-0.1c-1,0.7-2.4,0.5-3.3-0.3c-0.1-0.1-0.1-0.1-0.2-0.2
		c-0.5,0.9-1.7,1.3-2.7,0.8c-0.1,0.5-0.4,0.9-0.8,1.3c-0.5,0.4-1.1,0.6-1.7,0.6c0,1.3-1,2.5-2.3,2.6c0.8,1,0.6,2.5-0.4,3.3
		c1.5,0.2,2.5,1.5,2.4,3c1.3,0.2,2.2,1.4,2.1,2.8c1.3-0.2,2.6,0.7,2.8,2.1c0.7,0.6,0.9,1.5,0.6,2.3c0.1,0.9-0.5,1.7-1.4,1.8
		c0,0.9-0.7,1.7-1.6,1.7c-0.2,0.9-1.1,1.4-2,1.2c-1.6,1.4-4.1,1.4-5.6-0.1c-1-0.2-2.1-1.6-2.4-1.6c-0.5,0-1-0.2-1.4-0.6
		c-0.3,0-0.6-0.1-0.9-0.3c-0.9-0.5-1.4-1.5-1.3-2.6l0,0c-0.8-0.3-1.4-0.9-1.8-1.6c-0.5-0.9-0.6-2-0.2-3c-2.9-2.1-3.5-6.1-1.4-8.9
		c0,0,0-0.1,0.1-0.1c-1.5-2.4-0.8-5.6,1.6-7.2c0.1-0.1,0.2-0.1,0.2-0.1c0.2-2,2-3.3,4-3.1c-0.4-1.3,0.2-2.7,1.4-3.2
		c0.8-1.8,2.8-2.7,4.7-2c1.4-1.3,3.5-1.3,4.9,0c0.5-1,1.7-1.5,2.8-1c1.6-1,3.6-0.6,4.8,0.8c1.5-0.9,3.4-0.4,4.3,1
		c1.6-1,3.8-0.5,4.9,1c0.2-0.1,0.5-0.2,0.8-0.3c0.9-0.2,1.9,0.2,2.5,0.9c1.7-0.1,3.2,0.9,3.8,2.5c1.6,0.6,2.6,2.2,2.4,4
		c1.3,0.4,2.1,1.7,1.8,3c1.1,0.7,1.4,2.1,0.7,3.2c0.7,1.1,0.8,2.5,0.1,3.7C60.2,22.4,59.9,23.4,59.1,23.9z"/>
	<path class="st1" d="M21.3,49.2c0.1,0.7,0.4,1.3,0.9,1.8l0,0c0.3,0.3,0.7,0.5,1.1,0.5h12.4v-8.9H23.3c-0.6,0-1.1-0.1-1.6-0.4
		c-0.2,0.3-0.3,0.7-0.4,1.1C20.9,45.2,20.9,47.2,21.3,49.2L21.3,49.2z"/>
	<path class="st1" d="M21.3,60.7c0.1,0.7,0.4,1.3,0.9,1.8l0,0c0.3,0.3,0.6,0.4,1,0.4h12.4V54H23.3c-0.6,0-1.1-0.1-1.6-0.4
		c-0.2,0.3-0.3,0.7-0.4,1.1c-0.4,1.9-0.4,3.9,0,5.9L21.3,60.7z"/>
	<path class="st1" d="M23.2,77.1c-0.3,0.6-0.4,1.2-0.3,1.8v0.7c0,0.6,0.1,1.2,0.3,1.8h27c0.3-0.6,0.4-1.2,0.3-1.8v-0.7
		c0-0.6-0.1-1.2-0.3-1.8H23.2z"/>
	<path class="st1" d="M35.7,74.5v-8.9H23.3c-0.5,0-1.1-0.1-1.6-0.4c-0.2,0.3-0.3,0.7-0.4,1.1c-0.4,1.9-0.4,3.9,0,5.9l0,0
		c0.3,1.3,1.1,2.3,2,2.3L35.7,74.5z"/>
	<path class="st1" d="M19.2,49.8c-0.2-0.8-0.3-1.6-0.3-2.5l0,0c-3.1-2.1-5.3-5.2-6.3-8.8c-2.6,2.8-4.3,6.4-4.9,10.2c0,0,0,0,0,0.1
		c1.4,3.4,3.8,6.2,7,8c2.1-1.8,3.6-4.2,4.6-6.8C19.2,49.9,19.2,49.9,19.2,49.8L19.2,49.8z"/>
	<path class="st1" d="M2.4,63.3c-0.1,0.2-0.2,0.4-0.1,0.6c0,0.2,0.1,0.4,0.3,0.5l3.1,2.8c0.1,0.1,0.2,0.1,0.3,0.1
		c0.3,0,0.5-0.1,0.7-0.3L7.2,66l-4.1-3.8L2.4,63.3z"/>
	<path class="st1" d="M6.3,51.3c-1.3,2.8-2,5.8-2,8.8l4.5,4.1c2.2-1.1,3.8-3,4.7-5.3C10.4,57.1,7.9,54.5,6.3,51.3z"/>
	<path class="st1" d="M51.7,42.2c-0.5,0.3-1,0.4-1.6,0.4H37.9v8.9h12.3c0.4,0,0.8-0.2,1.1-0.5c0.5-0.5,0.8-1.1,0.9-1.8v0
		c0.4-1.9,0.4-3.9,0-5.9C52,42.9,51.9,42.5,51.7,42.2z"/>
	<path class="st1" d="M67.2,51.3c-1.6,3.2-4.1,5.8-7.2,7.6c0.8,2.3,2.5,4.2,4.7,5.3l4.5-4.1C69.2,57,68.5,54,67.2,51.3z"/>
	<path class="st1" d="M70.4,62.3l-4.1,3.8l0.7,1c0.1,0.2,0.4,0.3,0.7,0.3c0.1,0,0.2-0.1,0.3-0.1l3.1-2.8c0.1-0.1,0.2-0.3,0.3-0.5
		c0-0.2,0-0.4-0.1-0.6L70.4,62.3z"/>
	<path class="st1" d="M51.7,53.7c-0.5,0.3-1,0.4-1.6,0.4H37.8V63h12.3c0.4,0,0.7-0.2,1-0.4l0,0c0.5-0.5,0.8-1.1,0.9-1.8v-0.1
		c0.4-1.9,0.4-3.9,0-5.9C52,54.3,51.8,54,51.7,53.7z"/>
	<path class="st1" d="M51.7,65.2c-0.5,0.3-1,0.4-1.6,0.4H37.9v8.9h12.3c0.9,0,1.7-0.9,2-2.3l0,0c0.4-1.9,0.4-3.9,0-5.9
		C52.1,65.9,51.9,65.5,51.7,65.2z"/>
	<path class="st1" d="M65.8,48.7C65.8,48.7,65.8,48.7,65.8,48.7c-0.6-3.9-2.3-7.4-4.9-10.3c-1,3.6-3.2,6.7-6.3,8.8l0,0
		c-0.1,0.8-0.2,1.6-0.3,2.5l0,0c0,0,0,0.1,0,0.1c0.9,2.6,2.5,4.9,4.6,6.8C62,54.8,64.5,52.1,65.8,48.7z"/>
	<path d="M72.8,61.7l-0.9-1.4c-0.1-0.2-0.3-0.4-0.5-0.6c-0.1-4.2-1.3-8.3-3.4-11.9c-0.9-4.9-3.3-9.4-7-12.8c-0.8-1.6-1.8-3.1-3-4.4
		l-0.2,0.2c0,0.8-0.3,1.6-0.9,2.2c0.9,1.1,1.7,2.2,2.2,3.5l0,0c-0.5,3-2.2,5.8-4.5,7.7c-0.1-0.6-0.2-1.1-0.3-1.7
		c-0.2-0.8-0.4-1.5-0.8-2.2c0.4-0.7,0.7-1.4,0.8-2.2v-0.1c0.3-1.3,0.4-2.6,0.4-3.9h-0.3c-0.3,1.1-1,2.1-2.1,2.6
		c0,0.2-0.1,0.5-0.1,0.7v0.1c-0.1,0.7-0.4,1.3-0.9,1.8l0,0c-0.3,0.3-0.7,0.5-1.1,0.5H37.8v-3.5c-0.3,0.2-0.6,0.4-1,0.4
		c-0.4,0-0.9-0.1-1.2-0.4v3.6H23.3c-0.4,0-0.8-0.2-1.1-0.5l0,0c-0.5-0.5-0.8-1.1-0.9-1.8v-0.1c-0.2-0.7-0.2-1.4-0.3-2.1
		c-0.8-0.2-1.6-0.5-2.2-0.9c0,1.2,0.1,2.4,0.4,3.6v0.1c0.2,0.8,0.4,1.5,0.8,2.2c-0.4,0.7-0.7,1.4-0.8,2.2c-0.1,0.6-0.2,1.1-0.3,1.7
		c-2.4-1.9-4-4.7-4.5-7.7l0,0c0.7-1.7,1.8-3.2,3.1-4.5l0,0c-0.8-0.3-1.4-0.9-1.8-1.6c-1.3,1.4-2.4,2.9-3.2,4.7
		c-3.7,3.4-6.1,7.9-7,12.8c-2.2,3.6-3.4,7.7-3.4,11.8c-0.2,0.2-0.5,0.4-0.6,0.7l-0.9,1.3c-0.5,0.7-0.7,1.6-0.6,2.5
		c0.1,0.9,0.5,1.7,1.1,2.2l3.1,2.8c0.3,0.3,0.7,0.5,1.1,0.6C5.5,70,5.7,70,5.9,70c0.9,0,1.8-0.5,2.3-1.3l0.9-1.3
		c0.1-0.2,0.2-0.4,0.3-0.5c1-0.4,4.6-2.3,6.6-7.9c1.2-1,2.2-2.2,3.1-3.5c-0.3,2-0.2,3.9,0.2,5.9v0.1c0.2,0.8,0.4,1.5,0.8,2.2
		c-0.4,0.7-0.7,1.4-0.8,2.2c-0.5,2.4-0.5,4.8,0,7.1v0.1c0.2,1.3,0.9,2.5,1.9,3.4c-0.3,0.8-0.4,1.7-0.4,2.5v0.7c0,2.5,1,4.4,2.4,4.4
		h27.3c1.4,0,2.4-1.8,2.4-4.4v-0.7c0-0.9-0.1-1.8-0.4-2.6c1-0.9,1.7-2.1,1.9-3.4v-0.1c0.5-2.4,0.5-4.8,0-7.1
		c-0.2-0.8-0.4-1.5-0.8-2.2c0.4-0.7,0.7-1.4,0.8-2.2v-0.1c0.4-1.9,0.5-3.9,0.2-5.9c0.9,1.3,1.9,2.4,3.1,3.5c1.8,5.4,5.3,7.4,6.4,7.9
		c0.1,0.2,0.2,0.4,0.3,0.6l0.9,1.4c0.5,0.8,1.3,1.3,2.3,1.3c0.2,0,0.4,0,0.6-0.1c0.4-0.1,0.8-0.3,1.1-0.6l3.1-2.8
		c0.6-0.6,1-1.4,1.1-2.2C73.4,63.3,73.2,62.5,72.8,61.7z M6.5,67.1c-0.2,0.2-0.4,0.3-0.7,0.3c-0.1,0-0.2-0.1-0.3-0.1l-3.1-2.8
		c-0.1-0.1-0.2-0.3-0.3-0.5c0-0.2,0-0.4,0.1-0.6l0.7-1.1L7.2,66L6.5,67.1z M8.8,64.2l-4.5-4.1c0-3.1,0.7-6.1,2-8.8
		c1.6,3.2,4.1,5.8,7.2,7.6C12.7,61.2,11,63.1,8.8,64.2z M14.7,56.7c-3.2-1.8-5.6-4.6-7-8c0,0,0,0,0-0.1c0.6-3.8,2.3-7.3,4.9-10.2
		c1,3.6,3.2,6.7,6.3,8.8l0,0c0.1,0.8,0.2,1.6,0.3,2.5l0,0c0,0,0,0.1,0,0.1C18.3,52.4,16.7,54.8,14.7,56.7z M21.3,43.3
		c0.1-0.4,0.2-0.8,0.4-1.1c0.5,0.3,1,0.4,1.6,0.4h12.4v8.9H23.3c-0.4,0-0.8-0.2-1.1-0.5l0,0c-0.5-0.5-0.8-1.1-0.9-1.8v0
		C20.9,47.2,20.9,45.2,21.3,43.3L21.3,43.3z M21.3,54.8c0.1-0.4,0.2-0.8,0.4-1.1c0.5,0.3,1,0.4,1.6,0.4h12.4V63H23.3
		c-0.4,0-0.7-0.2-1-0.4l0,0c-0.5-0.5-0.8-1.1-0.9-1.8v-0.1C21,58.7,20.9,56.7,21.3,54.8L21.3,54.8z M21.3,72.2L21.3,72.2
		c-0.4-1.9-0.4-3.9,0-5.9c0.1-0.4,0.2-0.8,0.4-1.1c0.5,0.3,1,0.4,1.6,0.4h12.4v8.9H23.3C22.4,74.5,21.7,73.6,21.3,72.2L21.3,72.2z
		 M50.6,79.5c0,0.6-0.1,1.2-0.3,1.8h-27c-0.3-0.6-0.4-1.2-0.3-1.8v-0.7c0-0.6,0.1-1.2,0.3-1.8h27c0.3,0.6,0.4,1.2,0.3,1.8V79.5z
		 M52.1,72.1L52.1,72.1c-0.3,1.3-1.1,2.3-2,2.3H37.9v-8.8h12.3c0.5,0,1.1-0.1,1.6-0.4c0.2,0.3,0.3,0.7,0.4,1.1
		C52.5,68.2,52.5,70.2,52.1,72.1L52.1,72.1z M52.1,60.6L52.1,60.6c-0.1,0.7-0.4,1.3-0.9,1.8l0,0c-0.3,0.3-0.6,0.4-1,0.4H37.8V54
		h12.3c0.6,0,1.1-0.1,1.6-0.4c0.2,0.3,0.3,0.7,0.4,1.1C52.6,56.7,52.6,58.6,52.1,60.6L52.1,60.6z M52.1,49.1L52.1,49.1
		c-0.1,0.7-0.4,1.3-0.9,1.8c-0.3,0.3-0.7,0.5-1.1,0.5H37.9v-8.9h12.3c0.6,0,1.1-0.1,1.6-0.4c0.2,0.3,0.3,0.7,0.4,1.1
		C52.5,45.2,52.6,47.2,52.1,49.1L52.1,49.1z M54.2,49.9C54.2,49.9,54.2,49.8,54.2,49.9L54.2,49.9c0.2-0.9,0.3-1.7,0.3-2.6l0,0
		c3.1-2.1,5.3-5.2,6.3-8.8c2.6,2.9,4.3,6.4,4.9,10.2c0,0,0,0,0,0.1c-1.4,3.4-3.8,6.2-7,8C56.7,54.9,55.1,52.5,54.2,49.9L54.2,49.9z
		 M64.7,64.2c-2.2-1.1-3.8-3-4.7-5.3c3.1-1.8,5.6-4.5,7.2-7.6c1.3,2.8,2,5.8,2,8.8L64.7,64.2z M70.9,64.4l-3.1,2.8
		c-0.1,0.1-0.2,0.1-0.3,0.1c-0.3,0.1-0.5-0.1-0.7-0.3l-0.7-1l4.1-3.8l0.7,1c0.1,0.2,0.1,0.4,0.1,0.6C71.1,64.1,71,64.3,70.9,64.4
		L70.9,64.4z"/>
	<line class="st2" x1="34.1" y1="33.5" x2="36.7" y2="36.7"/>
	<line class="st2" x1="39.8" y1="33.2" x2="36.7" y2="36.7"/>
	<path d="M12.8,47c0-0.1,0-0.1,0.1-0.1h0.5c0.1,0,0.1-0.1,0.1-0.1l-1.1-2.1c0,0-0.1,0-0.1,0c0,0,0,0,0,0l0,0l-1.1,2.1
		c0,0.1,0,0.1,0.1,0.1h0.5c0.1,0,0.1,0.1,0.1,0.1l-0.6,1.1c0,0.1,0,0.1,0.1,0.1h0.6c0.1,0,0.1,0.1,0.1,0.2c0,0,0,0,0,0v0.4
		c0,0.1,0.1,0.1,0.1,0.1c0,0,0,0,0,0h0.4c0.1,0,0.1-0.1,0.1-0.1c0,0,0,0,0,0v-0.4c0-0.1,0.1-0.1,0.1-0.1c0,0,0,0,0,0h0.6
		c0.1,0,0.1-0.1,0.1-0.1L12.8,47z"/>
	<path class="st3" d="M12.8,47c0-0.1,0-0.1,0.1-0.1h0.5c0.1,0,0.1-0.1,0.1-0.1l-1.1-2.1c0,0-0.1,0-0.1,0c0,0,0,0,0,0l0,0l-1.1,2.1
		c0,0.1,0,0.1,0.1,0.1h0.5c0.1,0,0.1,0.1,0.1,0.1l-0.6,1.1c0,0.1,0,0.1,0.1,0.1h0.6c0.1,0,0.1,0.1,0.1,0.2c0,0,0,0,0,0v0.4
		c0,0.1,0.1,0.1,0.1,0.1c0,0,0,0,0,0h0.4c0.1,0,0.1-0.1,0.1-0.1c0,0,0,0,0,0v-0.4c0-0.1,0.1-0.1,0.1-0.1c0,0,0,0,0,0h0.6
		c0.1,0,0.1-0.1,0.1-0.1L12.8,47z"/>
	<ellipse class="st4" cx="12.2" cy="46.8" rx="2.8" ry="3.2"/>
</g>
</svg>
