<svg id="Layer_1" data-name="Layer 1" xmlns="http://www.w3.org/2000/svg" viewBox="0 0 73.34 83.89"><path d="M72.43,31.28a3.39,3.39,0,0,1-.14,2.94,3.73,3.73,0,0,1-1,3.89l-.17.15a3.52,3.52,0,0,1-.88,2.22A3.71,3.71,0,0,1,68,41.69l-.3,0a4,4,0,0,1-2.09,2.61,4.27,4.27,0,0,1-3,.3,4.16,4.16,0,0,1-5.5.41,1.71,1.71,0,0,1-1.9-1.52,1.67,1.67,0,0,1-1.34-1.86,1.76,1.76,0,0,1-.3-2.56,2,2,0,0,1-.43-2.91,1.7,1.7,0,0,1,1.22-1.37,4.15,4.15,0,0,1,3.08-3.12,4.11,4.11,0,0,1,.67-2,2.41,2.41,0,0,1,1.17-2.87,2.43,2.43,0,0,1-1-3.17,2.9,2.9,0,0,1-2.33-.36,2.69,2.69,0,0,1-1.13-1.42,2.94,2.94,0,0,1-3.92-.14,2.6,2.6,0,0,1-3.25-.33,2.09,2.09,0,0,1-.2-.22,2,2,0,0,1-2.69.77A2.36,2.36,0,0,1,44,23.21a2.47,2.47,0,0,1-1.69.63A2.49,2.49,0,0,1,40,26.41a2.42,2.42,0,0,1-.43,3.3,2.76,2.76,0,0,1,2.37,3A2.46,2.46,0,0,1,44,35.46a2.51,2.51,0,0,1,2.82,2.06,2,2,0,0,1,.55,2.32A1.68,1.68,0,0,1,46,41.66a1.69,1.69,0,0,1-1.61,1.73,1.71,1.71,0,0,1-2,1.2,4.15,4.15,0,0,1-5.63-.09c-1-.16-2.06-1.62-2.4-1.62A1.67,1.67,0,0,1,33,42.31a2.39,2.39,0,0,1-.89-.29,2.55,2.55,0,0,1-1.27-2.56v0a3.67,3.67,0,0,1-1.79-1.61,3.48,3.48,0,0,1-.17-3,6.38,6.38,0,0,1-1.36-9,5.21,5.21,0,0,1,1.84-7.34,3.58,3.58,0,0,1,4-3.1,2.63,2.63,0,0,1,1.43-3.2,3.69,3.69,0,0,1,4.65-2,3.7,3.7,0,0,1,4.94,0,2.1,2.1,0,0,1,2.77-1,3.7,3.7,0,0,1,4.82.82,3.18,3.18,0,0,1,4.32,1,3.7,3.7,0,0,1,4.89,1,2.71,2.71,0,0,1,.76-.29,2.54,2.54,0,0,1,2.49.91,3.68,3.68,0,0,1,3.75,2.51,3.57,3.57,0,0,1,2.36,3.95,2.63,2.63,0,0,1,1.84,3,2.35,2.35,0,0,1,.73,3.22A3.47,3.47,0,0,1,73.24,29,2,2,0,0,1,72.43,31.28Z" transform="translate(-13.33 -7.42)" style="fill:#231f20;stroke:#231f20;stroke-miterlimit:10;stroke-width:2.552356883692888px"/><path d="M34.65,56.59a3.56,3.56,0,0,0,.9,1.79h0a1.54,1.54,0,0,0,1.08.49H49V50H36.64a3.38,3.38,0,0,1-1.59-.4,3.56,3.56,0,0,0-.41,1.11,14.46,14.46,0,0,0,0,5.86Z" transform="translate(-13.33 -7.42)" style="fill:none"/><path d="M34.65,68.1a3.7,3.7,0,0,0,.9,1.78s0,0,0,0a1.55,1.55,0,0,0,1,.45H49v-8.9H36.64a3.38,3.38,0,0,1-1.59-.4,3.65,3.65,0,0,0-.41,1.11,14.46,14.46,0,0,0,0,5.86Z" transform="translate(-13.33 -7.42)" style="fill:none"/><path d="M36.56,84.49a3.69,3.69,0,0,0-.35,1.77v.68a3.72,3.72,0,0,0,.35,1.77h27a3.72,3.72,0,0,0,.35-1.77v-.68a3.69,3.69,0,0,0-.35-1.77Z" transform="translate(-13.33 -7.42)" style="fill:none"/><path d="M49,81.87V73H36.65a3.39,3.39,0,0,1-1.57-.4,3.75,3.75,0,0,0-.41,1.11,14.51,14.51,0,0,0,0,5.87l0,0c.28,1.35,1.08,2.27,2,2.27Z" transform="translate(-13.33 -7.42)" style="fill:none"/><path d="M32.53,57.17a18,18,0,0,1-.32-2.45,0,0,0,0,0,0,0,15.36,15.36,0,0,1-6.3-8.81A20,20,0,0,0,21,56.06s0,0,0,.08a16.06,16.06,0,0,0,7,8,16.52,16.52,0,0,0,4.56-6.79.38.38,0,0,0,0-.1Z" transform="translate(-13.33 -7.42)" style="fill:none"/><path d="M15.7,70.73a.8.8,0,0,0-.14.58.83.83,0,0,0,.25.51l3.08,2.82a.52.52,0,0,0,.25.14.7.7,0,0,0,.68-.28l.68-1.08-4.1-3.76Z" transform="translate(-13.33 -7.42)" style="fill:none"/><path d="M19.62,58.69a20.83,20.83,0,0,0-2,8.82l4.52,4.14a10,10,0,0,0,4.67-5.32A18.64,18.64,0,0,1,19.62,58.69Z" transform="translate(-13.33 -7.42)" style="fill:none"/><path d="M65.05,49.57a3.28,3.28,0,0,1-1.58.4H51.2v8.9H63.47a1.56,1.56,0,0,0,1.08-.49,3.49,3.49,0,0,0,.9-1.79v-.05a13.78,13.78,0,0,0,0-5.86A4,4,0,0,0,65.05,49.57Z" transform="translate(-13.33 -7.42)" style="fill:none"/><path d="M80.51,58.69a19,19,0,0,1-7.2,7.64A9.83,9.83,0,0,0,78,71.65l4.52-4.14A20.46,20.46,0,0,0,80.51,58.69Z" transform="translate(-13.33 -7.42)" style="fill:none"/><path d="M83.69,69.73l-4.11,3.76.65,1a.63.63,0,0,0,.66.28.52.52,0,0,0,.25-.14l3.08-2.82a.85.85,0,0,0,.25-.51,1,1,0,0,0-.12-.56Z" transform="translate(-13.33 -7.42)" style="fill:none"/><path d="M65,61.07a3.4,3.4,0,0,1-1.58.4H51.18v8.9H63.47a1.57,1.57,0,0,0,1-.45s0,0,0,0a3.46,3.46,0,0,0,.9-1.78V68a13.78,13.78,0,0,0,0-5.86A3.7,3.7,0,0,0,65,61.07Z" transform="translate(-13.33 -7.42)" style="fill:none"/><path d="M65.05,72.57a3.29,3.29,0,0,1-1.56.4H51.2v8.9H63.47c.89,0,1.7-.92,2-2.27v0a13.83,13.83,0,0,0,0-5.87A3.86,3.86,0,0,0,65.05,72.57Z" transform="translate(-13.33 -7.42)" style="fill:none"/><path d="M79.16,56.14s0,0,0-.08a20.33,20.33,0,0,0-4.89-10.17,15.44,15.44,0,0,1-6.31,8.81s0,0,0,0a18.24,18.24,0,0,1-.32,2.45l0,0a.38.38,0,0,1,0,.1,16.42,16.42,0,0,0,4.56,6.79A16,16,0,0,0,79.16,56.14Z" transform="translate(-13.33 -7.42)" style="fill:none"/><path d="M86.08,69.14l-.88-1.36a3,3,0,0,0-.51-.6,23.55,23.55,0,0,0-3.45-11.92,22.54,22.54,0,0,0-7-12.77,16.12,16.12,0,0,0-3-4.38l-.17.15a3.52,3.52,0,0,1-.88,2.22A13.87,13.87,0,0,1,72.4,44s0,0,0,0a12.9,12.9,0,0,1-4.54,7.72c-.06-.57-.15-1.13-.26-1.68a6.85,6.85,0,0,0-.84-2.15,7.22,7.22,0,0,0,.84-2.17v-.11A17.09,17.09,0,0,0,68,41.69l-.3,0a4,4,0,0,1-2.09,2.61c0,.22-.08.45-.13.68v.1a3.53,3.53,0,0,1-.9,1.79h0a1.55,1.55,0,0,1-1.08.48H51.18V43.87a1.51,1.51,0,0,1-1,.37A1.49,1.49,0,0,1,49,43.79v3.56H36.65a1.5,1.5,0,0,1-1.08-.49h0a3.57,3.57,0,0,1-.9-1.78V45a12.07,12.07,0,0,1-.27-2.09A7.73,7.73,0,0,1,32.15,42a16.81,16.81,0,0,0,.36,3.61l0,.11a6.85,6.85,0,0,0,.83,2.16,6.75,6.75,0,0,0-.83,2.16,15.47,15.47,0,0,0-.27,1.68A12.84,12.84,0,0,1,27.72,44s0,0,0,0a13.89,13.89,0,0,1,3.15-4.52v0a3.67,3.67,0,0,1-1.79-1.61,16.13,16.13,0,0,0-3.21,4.66,22.47,22.47,0,0,0-7,12.77,23.67,23.67,0,0,0-3.43,11.83,3.36,3.36,0,0,0-.63.71l-.88,1.35a3.88,3.88,0,0,0-.57,2.5,3.48,3.48,0,0,0,1.08,2.24l3.08,2.81a2.68,2.68,0,0,0,1.12.63,2.55,2.55,0,0,0,.61.08,2.77,2.77,0,0,0,2.28-1.32l.88-1.35a4.58,4.58,0,0,0,.28-.54c1-.41,4.64-2.29,6.55-7.93a17,17,0,0,0,3.06-3.45,17.59,17.59,0,0,0,.21,5.88v.06a7,7,0,0,0,.84,2.16,7,7,0,0,0-.84,2.15,17.7,17.7,0,0,0,0,7.14v.05a6,6,0,0,0,1.91,3.42A7.07,7.07,0,0,0,34,86.26v.68c0,2.53,1,4.37,2.39,4.37H63.72c1.39,0,2.39-1.84,2.39-4.37v-.68a7.29,7.29,0,0,0-.43-2.58,6,6,0,0,0,1.91-3.42l0-.05a17.52,17.52,0,0,0,0-7.14,6.57,6.57,0,0,0-.84-2.15,6.54,6.54,0,0,0,.84-2.16l0-.06a17.85,17.85,0,0,0,.2-5.88,16.78,16.78,0,0,0,3.06,3.45c1.84,5.42,5.28,7.36,6.43,7.86a3.32,3.32,0,0,0,.31.59l.87,1.36a2.72,2.72,0,0,0,2.28,1.31,2.55,2.55,0,0,0,.61-.08,2.47,2.47,0,0,0,1.12-.63l3.08-2.81a3.51,3.51,0,0,0,1.08-2.23A3.94,3.94,0,0,0,86.08,69.14ZM19.82,74.5a.7.7,0,0,1-.68.28.52.52,0,0,1-.25-.14l-3.08-2.82a.83.83,0,0,1-.25-.51.8.8,0,0,1,.14-.58l.7-1.07,4.1,3.76Zm2.34-2.85-4.52-4.14a20.83,20.83,0,0,1,2-8.82,18.64,18.64,0,0,0,7.21,7.64A10,10,0,0,1,22.16,71.65ZM28,64.11a16.06,16.06,0,0,1-7-8s0,0,0-.08a20,20,0,0,1,4.9-10.17,15.36,15.36,0,0,0,6.3,8.81,0,0,0,0,1,0,0,18,18,0,0,0,.32,2.45v0a.38.38,0,0,1,0,.1A16.52,16.52,0,0,1,28,64.11Zm6.63-13.43a3.56,3.56,0,0,1,.41-1.11,3.38,3.38,0,0,0,1.59.4H49v8.9H36.65a1.54,1.54,0,0,1-1.08-.49h0a3.56,3.56,0,0,1-.9-1.79v-.05A14.46,14.46,0,0,1,34.64,50.68Zm0,11.5a3.65,3.65,0,0,1,.41-1.11,3.38,3.38,0,0,0,1.59.4H49v8.9H36.64a1.55,1.55,0,0,1-1-.45s0,0,0,0a3.7,3.7,0,0,1-.9-1.78V68A14.46,14.46,0,0,1,34.64,62.18Zm0,17.42,0,0a14.51,14.51,0,0,1,0-5.87,3.75,3.75,0,0,1,.41-1.11,3.39,3.39,0,0,0,1.57.4H49v8.9H36.65C35.75,81.87,35,81,34.67,79.6Zm29.25,7.34a3.72,3.72,0,0,1-.35,1.77h-27a3.72,3.72,0,0,1-.35-1.77v-.68a3.69,3.69,0,0,1,.35-1.77h27a3.69,3.69,0,0,1,.35,1.77Zm1.54-7.39v0c-.28,1.35-1.09,2.27-2,2.27H51.2V73H63.49a3.29,3.29,0,0,0,1.56-.4,3.86,3.86,0,0,1,.41,1.11A13.83,13.83,0,0,1,65.46,79.55Zm0-11.51v.06a3.46,3.46,0,0,1-.9,1.78s0,0,0,0a1.57,1.57,0,0,1-1,.45H51.18v-8.9H63.46a3.4,3.4,0,0,0,1.58-.4,3.7,3.7,0,0,1,.42,1.11A13.78,13.78,0,0,1,65.46,68Zm0-11.5v.05a3.49,3.49,0,0,1-.9,1.79,1.56,1.56,0,0,1-1.08.49H51.2V50H63.47a3.28,3.28,0,0,0,1.58-.4,4,4,0,0,1,.41,1.11A13.78,13.78,0,0,1,65.46,56.54Zm2.1.78a.38.38,0,0,0,0-.1l0,0a18.24,18.24,0,0,0,.32-2.45s0,0,0,0a15.44,15.44,0,0,0,6.31-8.81,20.33,20.33,0,0,1,4.89,10.17s0,0,0,.08a16,16,0,0,1-7,8A16.42,16.42,0,0,1,67.56,57.32ZM78,71.65a9.83,9.83,0,0,1-4.66-5.32,19,19,0,0,0,7.2-7.64,20.46,20.46,0,0,1,2,8.82Zm6.25.17-3.08,2.82a.52.52,0,0,1-.25.14.63.63,0,0,1-.66-.28l-.65-1,4.11-3.76.66,1a1,1,0,0,1,.12.56A.85.85,0,0,1,84.22,71.82Z" transform="translate(-13.33 -7.42)"/><line x1="34.06" y1="33.45" x2="36.67" y2="36.66" style="fill:none;stroke:#231f20;stroke-miterlimit:10;stroke-width:2.552356883692888px"/><line x1="39.81" y1="33.23" x2="36.67" y2="36.66" style="fill:none;stroke:#231f20;stroke-miterlimit:10;stroke-width:2.552356883692888px"/><path d="M26.08,54.43c0-.08,0-.13.06-.13h.45c.07,0,.1-.06.07-.13l-1.07-2.1a.06.06,0,0,0-.09,0s0,0,0,0l-1.06,2.1c0,.07,0,.13.06.13h.45c.07,0,.1.06.07.13l-.58,1.14c0,.08,0,.13.06.13h.6a.15.15,0,0,1,.14.16v.41a.14.14,0,0,0,.13.15h.4a.14.14,0,0,0,.13-.15v-.41a.14.14,0,0,1,.13-.15h.6c.08,0,.11-.06.07-.13Z" transform="translate(-13.33 -7.42)"/><path d="M26.08,54.43c0-.08,0-.13.06-.13h.45c.07,0,.1-.06.07-.13l-1.07-2.1a.06.06,0,0,0-.09,0s0,0,0,0l-1.06,2.1c0,.07,0,.13.06.13h.45c.07,0,.1.06.07.13l-.58,1.14c0,.08,0,.13.06.13h.6a.15.15,0,0,1,.14.16v.41a.14.14,0,0,0,.13.15h.4a.14.14,0,0,0,.13-.15v-.41a.14.14,0,0,1,.13-.15h.6c.08,0,.11-.06.07-.13Z" transform="translate(-13.33 -7.42)" style="fill:none;stroke:#000;stroke-miterlimit:10;stroke-width:0.07131968955159601px"/><ellipse cx="12.2" cy="46.8" rx="2.83" ry="3.23" style="fill:none;stroke:#231f20;stroke-miterlimit:10;stroke-width:1.276178441846444px"/></svg>