<svg id="Layer_1" data-name="Layer 1" xmlns="http://www.w3.org/2000/svg" viewBox="0 0 62.54 70.99"><path d="M68.85,34.1a2.8,2.8,0,0,1-.14,2.47,3.11,3.11,0,0,1-.84,3.24L67.8,40a2.87,2.87,0,0,1-.78,1.9,2.82,2.82,0,0,1-1.9,1h-.28A3.09,3.09,0,0,1,63.08,45a3.55,3.55,0,0,1-2.54.28,3.54,3.54,0,0,1-4.65.35,1.53,1.53,0,0,1-1.62-1.26,1.47,1.47,0,0,1-1.13-1.55,1.56,1.56,0,0,1-.35-2.05l.07-.07a1.62,1.62,0,0,1-.42-2.32c0-.07.07-.07.07-.14a1.34,1.34,0,0,1,1.06-1.13,3.39,3.39,0,0,1,2.6-2.61,3.41,3.41,0,0,1,.57-1.69,2,2,0,0,1,1-2.39,2.06,2.06,0,0,1-.84-2.68,2.47,2.47,0,0,1-2-.28,2.76,2.76,0,0,1-1-1.2,2.47,2.47,0,0,1-3.31-.14,2.26,2.26,0,0,1-2.75-.28c-.07-.07-.14-.14-.14-.21a1.71,1.71,0,0,1-2.26.63,1.68,1.68,0,0,1-.63,1.06,2.23,2.23,0,0,1-1.41.56,2.11,2.11,0,0,1-2,2.19,2,2,0,0,1-.35,2.74,2.25,2.25,0,0,1,2,2.54,2.06,2.06,0,0,1,1.76,2.32,2.19,2.19,0,0,1,2.4,1.76,1.76,1.76,0,0,1,.49,2A1.46,1.46,0,0,1,46.59,43a1.46,1.46,0,0,1-1.34,1.48,1.39,1.39,0,0,1-1.69,1,3.47,3.47,0,0,1-4.72-.07C38,45.23,37.08,44,36.8,44a1.41,1.41,0,0,1-1.13-.49,3.16,3.16,0,0,1-.77-.21,2.08,2.08,0,0,1-1.06-2.19,3.07,3.07,0,0,1-1.48-1.33,2.94,2.94,0,0,1-.14-2.54A5.33,5.33,0,0,1,31,29.8l.07-.07a4.44,4.44,0,0,1,1.34-6.06c.07-.07.14-.07.21-.14A3,3,0,0,1,36,20.93a2.14,2.14,0,0,1,1.19-2.68,3.17,3.17,0,0,1,4-1.69,3.11,3.11,0,0,1,4.15,0,1.78,1.78,0,0,1,2.33-.85,3.15,3.15,0,0,1,4.08.71,2.72,2.72,0,0,1,3.67.84,3,3,0,0,1,4.08.85,1.16,1.16,0,0,1,.64-.21,2.21,2.21,0,0,1,2.11.77,3.2,3.2,0,0,1,3.17,2.12,2.92,2.92,0,0,1,2,3.31,2.25,2.25,0,0,1,1.55,2.53,2,2,0,0,1,.64,2.68,3.07,3.07,0,0,1,.14,3.1,1.9,1.9,0,0,1-.85,1.69Z" transform="translate(-18.73 -14.13)" style="fill:none;stroke:#000;stroke-miterlimit:10;stroke-width:2.233631592427989px"/><path d="M37.08,55.37a2.47,2.47,0,0,0,.78,1.48,1.11,1.11,0,0,0,.91.43H49.2v-7.4H38.77a3,3,0,0,1-1.34-.35,4.86,4.86,0,0,0-.35.91A11.71,11.71,0,0,0,37.08,55.37Z" transform="translate(-18.73 -14.13)" style="fill:none"/><path d="M37.08,65.1a3,3,0,0,0,.78,1.48,1.16,1.16,0,0,0,.84.35H49.2V59.46H38.77a3,3,0,0,1-1.34-.35,4.86,4.86,0,0,0-.35.91,11.75,11.75,0,0,0,0,4.94Z" transform="translate(-18.73 -14.13)" style="fill:none"/><path d="M38.7,78.9a2.82,2.82,0,0,0-.28,1.48V81a3.52,3.52,0,0,0,.28,1.48H61.46A2.82,2.82,0,0,0,61.74,81v-.57a3.52,3.52,0,0,0-.28-1.48Z" transform="translate(-18.73 -14.13)" style="fill:none"/><path d="M49.13,76.65V69.18H38.77a3,3,0,0,1-1.34-.35,4.69,4.69,0,0,0-.35.92,11.71,11.71,0,0,0,0,4.93c.21,1.12.92,1.9,1.69,1.9Z" transform="translate(-18.73 -14.13)" style="fill:none"/><path d="M35.32,55.87a20.59,20.59,0,0,1-.28-2,12.72,12.72,0,0,1-5.28-7.39A16.92,16.92,0,0,0,25.6,55V55a13.84,13.84,0,0,0,5.92,6.77,13.59,13.59,0,0,0,3.8-5.71Z" transform="translate(-18.73 -14.13)" style="fill:none"/><path d="M21.09,67.28a1,1,0,0,0-.14.49.64.64,0,0,0,.21.43l2.61,2.39c.07.07.14.07.21.14a.58.58,0,0,0,.56-.21l.57-.92-3.46-3.17Z" transform="translate(-18.73 -14.13)" style="fill:none"/><path d="M24.4,57.14a16.9,16.9,0,0,0-1.69,7.39L26.52,68a8.22,8.22,0,0,0,3.94-4.5A15.08,15.08,0,0,1,24.4,57.14Z" transform="translate(-18.73 -14.13)" style="fill:none"/><path d="M62.65,49.46a2.9,2.9,0,0,1-1.34.35H51v7.47H61.39a1.11,1.11,0,0,0,.91-.43,3,3,0,0,0,.78-1.48V55.3a11.71,11.71,0,0,0,0-4.93C62.94,50.09,62.79,49.81,62.65,49.46Z" transform="translate(-18.73 -14.13)" style="fill:none"/><path d="M75.69,57.14a15.73,15.73,0,0,1-6.06,6.41,8.46,8.46,0,0,0,3.94,4.5l3.81-3.45A17.11,17.11,0,0,0,75.69,57.14Z" transform="translate(-18.73 -14.13)" style="fill:none"/><path d="M78.36,66.43,74.91,69.6l.56.85a.49.49,0,0,0,.57.21c.07,0,.14-.07.21-.14l2.61-2.39a.64.64,0,0,0,.21-.43,1.19,1.19,0,0,0-.07-.49Z" transform="translate(-18.73 -14.13)" style="fill:none"/><path d="M62.65,59.18a2.9,2.9,0,0,1-1.34.35H51V67H61.31a1.3,1.3,0,0,0,.85-.35,3.17,3.17,0,0,0,.78-1.48V65a11.75,11.75,0,0,0,0-4.94A3.89,3.89,0,0,0,62.65,59.18Z" transform="translate(-18.73 -14.13)" style="fill:none"/><path d="M62.65,68.83a2.9,2.9,0,0,1-1.34.35H51v7.47H61.39c.77,0,1.4-.78,1.69-1.9a11.71,11.71,0,0,0,0-4.93A5.71,5.71,0,0,0,62.65,68.83Z" transform="translate(-18.73 -14.13)" style="fill:none"/><path d="M74.56,55a17.34,17.34,0,0,0-4.09-8.59,13,13,0,0,1-5.28,7.39,18.11,18.11,0,0,1-.28,2v.07a14.24,14.24,0,0,0,3.8,5.7A13.75,13.75,0,0,0,74.56,55Z" transform="translate(-18.73 -14.13)" style="fill:none"/><path d="M80.34,65.94l-.78-1.13a3,3,0,0,0-.42-.49,20.11,20.11,0,0,0-2.89-10,19.14,19.14,0,0,0-5.92-10.78,13,13,0,0,0-2.53-3.66l-.07.07a2.87,2.87,0,0,1-.78,1.9,10.7,10.7,0,0,1,1.83,3A10.8,10.8,0,0,1,65,51.29c-.07-.49-.14-1-.21-1.41a5.85,5.85,0,0,0-.71-1.83,6,6,0,0,0,.71-1.83v-.07a17.2,17.2,0,0,0,.35-3.31h-.28A3.09,3.09,0,0,1,63.08,45a1.65,1.65,0,0,1-.14.56v.07a2.59,2.59,0,0,1-.78,1.48,1.14,1.14,0,0,1-.92.43H51v-3a1.23,1.23,0,0,1-.85.28,1.67,1.67,0,0,1-1-.35v3H38.77a1.14,1.14,0,0,1-.91-.43,2.92,2.92,0,0,1-.78-1.48v-.07a7.5,7.5,0,0,1-.21-1.76,6.38,6.38,0,0,1-1.9-.77,14.86,14.86,0,0,0,.28,3v.07A5.92,5.92,0,0,0,36,48a5.83,5.83,0,0,0-.7,1.83A9.8,9.8,0,0,0,35,51.22a10.8,10.8,0,0,1-3.8-6.48,11.94,11.94,0,0,1,2.67-3.81,3.07,3.07,0,0,1-1.48-1.33,12.54,12.54,0,0,0-2.67,3.94,19.27,19.27,0,0,0-5.92,10.78A19.86,19.86,0,0,0,21,64.25a4.22,4.22,0,0,0-.56.56L19.61,66a3.2,3.2,0,0,0-.49,2.12A2.9,2.9,0,0,0,20,70l2.61,2.39a2.59,2.59,0,0,0,.92.57,1.19,1.19,0,0,0,.49.07A2.23,2.23,0,0,0,26,71.93l.78-1.13.21-.42c.84-.35,3.87-1.9,5.49-6.69A17.1,17.1,0,0,0,35,60.8a14.61,14.61,0,0,0,.21,4.93v.07a5.83,5.83,0,0,0,.7,1.83,5.92,5.92,0,0,0-.7,1.83,14.4,14.4,0,0,0,0,6v.07a5.18,5.18,0,0,0,1.62,2.89,5.57,5.57,0,0,0-.35,2.11v.57c0,2.11.84,3.66,2,3.66h23c1.19,0,2-1.55,2-3.66v-.57a7.48,7.48,0,0,0-.35-2.18,5.21,5.21,0,0,0,1.62-2.89v-.07a14.4,14.4,0,0,0,0-6,5.7,5.7,0,0,0-.71-1.83,5.62,5.62,0,0,0,.71-1.83v-.07a14.59,14.59,0,0,0,.14-4.93,14.27,14.27,0,0,0,2.61,2.89c1.54,4.58,4.43,6.2,5.42,6.62a1.75,1.75,0,0,0,.28.49l.71,1.13A2.38,2.38,0,0,0,76,73a1.19,1.19,0,0,0,.49-.07,1.65,1.65,0,0,0,.92-.57L80,70a3,3,0,0,0,.92-1.91A3.85,3.85,0,0,0,80.34,65.94ZM24.61,70.45a.47.47,0,0,1-.56.21c-.07,0-.14-.07-.21-.14l-2.61-2.39A.64.64,0,0,1,21,67.7a.67.67,0,0,1,.14-.49l.57-.92,3.45,3.17Zm2-2.4L22.78,64.6a17,17,0,0,1,1.69-7.39,15.23,15.23,0,0,0,6.06,6.41A8.64,8.64,0,0,1,26.59,68.05Zm4.86-6.34A13.52,13.52,0,0,1,25.53,55v-.07a16.85,16.85,0,0,1,4.16-8.59A12.72,12.72,0,0,0,35,53.68a18.11,18.11,0,0,0,.28,2v.07A12.83,12.83,0,0,1,31.45,61.71Zm5.63-11.27a3.52,3.52,0,0,1,.35-.91,3,3,0,0,0,1.34.35H49.2v7.47H38.77a1.11,1.11,0,0,1-.91-.43,2.93,2.93,0,0,1-.78-1.47v-.08A11.71,11.71,0,0,1,37.08,50.44Zm0,9.65a3.52,3.52,0,0,1,.35-.91,3,3,0,0,0,1.34.35H49.2V67H38.77a1.16,1.16,0,0,1-.84-.35,3.83,3.83,0,0,1-.78-1.48V65A11.76,11.76,0,0,1,37.08,60.09Zm0,14.66a11.71,11.71,0,0,1,0-4.93,3.45,3.45,0,0,1,.35-.92,3,3,0,0,0,1.34.35H49.2v7.47H38.77C38,76.65,37.36,75.94,37.08,74.75ZM61.67,81a3.52,3.52,0,0,1-.28,1.48H38.63A2.82,2.82,0,0,1,38.35,81v-.57a3.52,3.52,0,0,1,.28-1.48H61.39a2.82,2.82,0,0,1,.28,1.48ZM63,74.75c-.22,1.12-.92,1.9-1.69,1.9H51V69.18H61.39a2.9,2.9,0,0,0,1.33-.35,4.74,4.74,0,0,1,.36.92A13.33,13.33,0,0,1,63,74.75ZM63,65a2.57,2.57,0,0,1-.78,1.55,1.16,1.16,0,0,1-.84.35H51V59.46H61.32a2.9,2.9,0,0,0,1.33-.35A4.91,4.91,0,0,1,63,60,12.08,12.08,0,0,1,63,65Zm0-9.66a2.52,2.52,0,0,1-.78,1.55,1.11,1.11,0,0,1-.91.43H51V49.88H61.39a2.9,2.9,0,0,0,1.33-.35,4.91,4.91,0,0,1,.36.91A13,13,0,0,1,63,55.37Zm1.76.64v-.07c.14-.71.21-1.34.28-2a12.77,12.77,0,0,0,5.28-7.4,16.31,16.31,0,0,1,4.09,8.59v.07a13.84,13.84,0,0,1-5.92,6.77A15.36,15.36,0,0,1,64.77,56Zm8.8,12a8.22,8.22,0,0,1-3.94-4.5,16.18,16.18,0,0,0,6.06-6.41,17,17,0,0,1,1.69,7.39Zm5.29.15-2.61,2.39c-.07.07-.14.07-.21.14a.61.61,0,0,1-.57-.21l-.56-.85,3.45-3.17.57.85a.58.58,0,0,1,.07.49A.56.56,0,0,1,78.86,68.2Z" transform="translate(-18.73 -14.13)" style="stroke:#000;stroke-miterlimit:10;stroke-width:0.7445438641426629px"/><path d="M47.81,42.15,50,44.82" transform="translate(-18.73 -14.13)" style="fill:none;stroke:#000;stroke-miterlimit:10;stroke-width:2.1464446426748744px"/><path d="M52.67,42,50,44.89" transform="translate(-18.73 -14.13)" style="fill:none;stroke:#000;stroke-miterlimit:10;stroke-width:2.1464446426748744px"/><path d="M29.85,53.56c0-.07,0-.14.07-.14h.35c.07,0,.07-.07.07-.14l-.92-1.77h-.07l-.91,1.77c0,.07,0,.14.07.14h.35c.07,0,.07.07.07.14l-.49,1c0,.07,0,.14.07.14H29a.15.15,0,0,1,.14.15v.35a.15.15,0,0,0,.14.14h.29a.15.15,0,0,0,.14-.14v-.35a.15.15,0,0,1,.14-.15h.49c.07,0,.07-.07.07-.14Z" transform="translate(-18.73 -14.13)"/><path d="M29.85,53.56c0-.07,0-.14.07-.14h.35c.07,0,.07-.07.07-.14l-.92-1.77h-.07l-.91,1.77c0,.07,0,.14.07.14h.35c.07,0,.07.07.07.14l-.49,1c0,.07,0,.14.07.14H29a.15.15,0,0,1,.14.15v.35a.15.15,0,0,0,.14.14h.29a.15.15,0,0,0,.14-.14v-.35a.15.15,0,0,1,.14-.15h.49c.07,0,.07-.07.07-.14Z" transform="translate(-18.73 -14.13)" style="fill:none;stroke:#000;stroke-miterlimit:10;stroke-width:0.058922620768526446px"/><ellipse cx="10.7" cy="39.28" rx="2.4" ry="2.75" style="fill:none;stroke:#000;stroke-miterlimit:10;stroke-width:1.0774490224252857px"/><path d="M34.05,30.4a4.32,4.32,0,0,0-.46,4.11c.27.7.93,1.2,1,1.91a4.85,4.85,0,0,0,.58,2.14A4.46,4.46,0,0,0,36.7,40a2.65,2.65,0,0,1,.44.33c-.08-.16-.2-.12-.18.07a3,3,0,0,0,.43,1.22c.6,1,2.31,2,3.41,1.48s2.77-1.65,1.73-3.05a1.59,1.59,0,0,0-.78-.57c-.06,0-.37-.11-.4-.08s.45.69.31.67c.4.07.55-1.28.39-1.7a2,2,0,0,0-1.47-1.16c-.27-.07-.67,0-.82-.19s0-.91,0-1.24a1.6,1.6,0,0,0-1.37-1.22c-.58-.15-1.77-.34-1.45-1.19,0,.06-.46.34.12,0,.17-.11.33-.25.49-.37a4.24,4.24,0,0,0,.81-.83,2.2,2.2,0,0,0-.05-2.39,4.58,4.58,0,0,0-1.6-1.85c-.87-.38-1.36.18-2.1.49l1.52.19c-.23-.19.19-1.08.41-1.45s.31-.49.44-.75L37.1,26c.16-.51,0-.41-.48.29l-.88-.36c0-.25,0-.28-.05-.07l-.08.23a2.06,2.06,0,0,0,0,.89,1.61,1.61,0,0,0,1.24,1.25,4.12,4.12,0,0,0,2-.12,3.86,3.86,0,0,0,.74-.2c.14-.07.93-.47.41-.33l-1-.13-.3-.32a1.22,1.22,0,0,0,.87.87l.12,0a1.23,1.23,0,0,0,1.22-.32,2.45,2.45,0,0,0,.29-2.88A2.55,2.55,0,0,0,40,23.94a6.51,6.51,0,0,0-1-.15c-.33-.06-.52-.47-.09,0l-.25,2a5.75,5.75,0,0,0,1-.65,5.65,5.65,0,0,0,.87-1.46A3.64,3.64,0,0,0,41,22.26a4.85,4.85,0,0,1,.14-1.11l-.74.58c-.21,0-.13,0,.23-.06-.29,0-.27,0,.06.1a2,2,0,0,0,1.12.17,2.26,2.26,0,0,0,1.07-.38c.14-.11.28-.22.41-.34.49-.08.27-.33-.68-.74l.37-.88a8.93,8.93,0,0,1-.93.46,7,7,0,0,0-1.09.78,3.89,3.89,0,0,0-1.17,2,2,2,0,0,0,1,2.12c.15.1.33.15.48.24.6.38-.13-.07.08.1a1.75,1.75,0,0,0,1,.42,1.27,1.27,0,0,0,1.08-.62c.14-.22.38-1.37.08-1.13.16-.13.54,0,.73,0a2.31,2.31,0,0,0,.9-.2c1.13-.52,1.28-1.52,1.4-2.63l-.36.89v0c1.31-.91.07-3.08-1.26-2.16a3,3,0,0,0-.52.42c-.26.3-.21.58-.36.88a1.29,1.29,0,0,0,0,.35c0,.06-1,0-1.19.05a2.66,2.66,0,0,0-1.39,1,1.85,1.85,0,0,0-.3.82,1.69,1.69,0,0,0,0,.55c0,.53,0,.51.1,0l1.08-.62h-.12l.88.37a2.64,2.64,0,0,0-.74-.59l-.33-.15s0,.39.23.34.49-.58.68-.72c.37-.27.8-.43,1.19-.66a1.65,1.65,0,0,0-1.29-3,2.74,2.74,0,0,0-1.09.48s-.43.31-.2.25-.32-.21-.46-.25a2.13,2.13,0,0,0-2.06.54,4.14,4.14,0,0,0-.55,2.12,2.52,2.52,0,0,1-1.1,1.69,1.27,1.27,0,0,0-.26,2,2.73,2.73,0,0,0,1.16.65,1.85,1.85,0,0,0,.7.09l.29.08c-.31-.26-.35-.41-.12-.43l1.22-.32-.13,0,.87.87a1.62,1.62,0,0,0-1.47-1.34,1.7,1.7,0,0,0-.79.21,3.23,3.23,0,0,0-.45.38c.21-.12.2-.14-.05-.07l-.79.18q.35,1.53.51.69a1.81,1.81,0,0,0,.11-.8,1.91,1.91,0,0,0-1.1-1.81c-1.78-.75-2.18,1-2.83,2.11s-1.25,3.32,0,4.37a1.34,1.34,0,0,0,1.51.19c.28-.12.5-.32.77-.46l-1,.13c-.19,0-.66-.88-.2-.06a2.47,2.47,0,0,0,.36.49c.36.44.42.19-.06.56a2.95,2.95,0,0,0-.41,4.7,4.53,4.53,0,0,0,1.23.74,7.92,7.92,0,0,1,1.3.4L37.23,36c.12,1-.06,1.81.63,2.68a2.63,2.63,0,0,0,1.09.83,1.71,1.71,0,0,0,.59.15c.49,0,.39.18.35-.61s0-.73-.27-.37a1.73,1.73,0,0,0-.28.56,2.45,2.45,0,0,0-.08,1.26,1.61,1.61,0,0,0,.6.94,1.93,1.93,0,0,0,.69.37c.23.06.44.23.12-.07l-.37-.88c.24-.35.25-.45,0-.31a2.14,2.14,0,0,0-.4.2c-.63.43.68.35.38,0s-.46-.18-.64-.32-.21-.05-.25-.53c-.08-1.31-1-1.54-1.84-2.3s-.32-2-.84-2.87c-.26-.45-.74-.76-.89-1.28a2.76,2.76,0,0,1,0-.91c0-.14.19-.63,0-.4,1-1.24-.75-3-1.76-1.76Z" transform="translate(-18.73 -14.13)"/><path d="M53.88,21.77a4.25,4.25,0,0,1-.08-.48l-1.08.62.18,0L52,21.53l.17.14c.32.28.33.26,0-.05,0,.15.07.31.12.45a1.72,1.72,0,0,0,1,1A2.37,2.37,0,0,0,56,22.18l.14-.2c-.31.13-.31.14,0,0-.89-.58.38.06.26,0,.25.12.4.77.58,1a1.76,1.76,0,0,0,1.3.75,2.52,2.52,0,0,0,1.26-.44c.52-.19.69.2,1.16.33.86.25.25-.21.13-.13A2.34,2.34,0,0,0,61,24c.26.61.63.7,1,1.12s.17,1,.56,1.41-.21-.78.06.14a2,2,0,0,0,.16.45,2.14,2.14,0,0,0,.67.67c.39.28.1.05.1,0a6.54,6.54,0,0,0,0,1.25c.14.55.62.87.56,1.46s-.38,1.05-.48,1.58a3.71,3.71,0,0,0,.07,1.52c.15.8.16.35-.25,1A3.41,3.41,0,0,0,63,36.27c0,.4.1.81.13,1.21s.25-.22,0-.1a7,7,0,0,0-.7.4c-.72.4-1.84,1.19-1.73,2.18l-.09.19.37-.18a3.24,3.24,0,0,1-.71-.06,3.69,3.69,0,0,0-1.52.11h-.28l.48.26c.14,0,.2-.64.21-.7a3.17,3.17,0,0,0,.07-.71c-.88.5-1,.67-.39.53a2.07,2.07,0,0,0,.53-.18,4.44,4.44,0,0,0,1.63-2,3.52,3.52,0,0,0,.19-1.44c0-.79-.07-.5.54-.92a5.05,5.05,0,0,0,1.62-2.36,3.71,3.71,0,0,0-.33-3.3c-.11-.21-.24-.41-.34-.62s-.13.05-.09-.31A6.2,6.2,0,0,0,62.67,27a8.68,8.68,0,0,0-1.22-3.08l-.74,1.83.11,0-1-.13c-.17-.11.06.08.11.16.15.23.38.39.54.62a9.54,9.54,0,0,1,.72,1.24A6.81,6.81,0,0,1,62,31a6.86,6.86,0,0,1-.62,3.23,12.18,12.18,0,0,1-2.09,2.5,2.57,2.57,0,0,0-.9,2.31c.21,1,1.21,1.22,2.07,1.2,2.42,0,3.46-2.34,3.55-4.4.06-1.61-2.44-1.61-2.5,0A2,2,0,0,1,61,37.38a1.47,1.47,0,0,1-.57.29h-.19c-.44-.06-.44-.06,0,0l.58.74c.06.41,0,.21.32-.08s.67-.65,1-1a14.61,14.61,0,0,0,1.35-1.78,9.65,9.65,0,0,0,1-5.21A10.37,10.37,0,0,0,63,25.63c-.53-.94-1.64-2.78-3-2.33a1.27,1.27,0,0,0-.74,1.83c.37.82,1,1.46.87,2.43a4.15,4.15,0,0,0-.05,1.61,7.68,7.68,0,0,0,.7,1.33,1.89,1.89,0,0,1-.51,2.32c-.76.66-1.61,1-1.66,2.2,0,.27,0,.54,0,.8,0,.07-.16.79,0,.54a2.59,2.59,0,0,1-.53.69c.29-.2-.07,0-.2,0a1.41,1.41,0,0,0-1.11,1,3.08,3.08,0,0,0-.08.68,4.56,4.56,0,0,1-.22,1.05,2.29,2.29,0,0,0,1.37,2.71,4,4,0,0,0,1.5,0c.61-.05,1.22.07,1.83,0a2.3,2.3,0,0,0,1.88-1.81c.32-.93,1.66-1.06,2.23-1.94s.09-1.5.21-2.3c.07-.52.54-.79.74-1.24a2.88,2.88,0,0,0,0-1.88c-.23-1.09.51-2.05.43-3.18a3.67,3.67,0,0,0-.47-1.48c-.32-.7-.08.31-.12-.37,0-.23,0-.47,0-.7a2.19,2.19,0,0,0-.75-1.6l-.25-.19c-.35-.22-.4-.17-.14.15l.16.29a1.24,1.24,0,0,0-.17-.63,8.09,8.09,0,0,0-.55-1.49A4,4,0,0,0,64,23.6c-.09-.11-.94-.76-.72-.48a5.93,5.93,0,0,1-.25-.78,2.15,2.15,0,0,0-.49-.66,1.86,1.86,0,0,0-.76-.4,2.69,2.69,0,0,0-.56,0c.34.11.32.07-.08-.12a2.53,2.53,0,0,0-1.62-.27c-.31,0-1.22.11-1.39.5l.84.21c-.07-.16-.15-.31-.23-.46a3.36,3.36,0,0,0-.52-.77,2.46,2.46,0,0,0-1.56-.83,3.34,3.34,0,0,0-1.65.26c-.3.12-1.17.9-1.06.94l.75.58c-.28-.38-.27-.89-.63-1.25a1.73,1.73,0,0,0-1.56-.6c-1.45.27-1.23,1.94-1.07,3,.23,1.58,2.64.91,2.4-.67Z" transform="translate(-18.73 -14.13)"/><path d="M62.82,25.28c-.19-.4-.59-.92-.85-1.39a4.51,4.51,0,0,0-1.49-1.58,2.75,2.75,0,0,0-1.9-.53,10.64,10.64,0,0,1-1.81-.13l.55.32-.28-.3a1.27,1.27,0,0,0-2,.25,2,2,0,0,0,0,2c-.08-.14.45.55.26.26s.14.28.17.33a1.55,1.55,0,0,0,1.05.65c.6.11,1.23,0,1.83.05.36,0,.69,0,1,0,0,0-.11-.11-.1-.11a1.82,1.82,0,0,1,.34.34l1.21-2.09-.11,0,.55.32a10.73,10.73,0,0,0-2.3-1.34,8.14,8.14,0,0,0-1.44-.57c-.5-.16-1-.41-1.45-.58s-.86-.07-1.27-.2-.82-.4-1.26-.54a2,2,0,0,0-2.55.77l.45-.45c-.15.06-.3.16-.36.14l.55.32c.11.34.15.39.14.15v-.27c0-.17,0-.34,0-.5a2,2,0,0,0-.49-1.24,3.75,3.75,0,0,0-2.31-1.07A3.46,3.46,0,0,0,47,18.6c-.18.09-.34.24-.51.34s.41,0-.34.11a2.05,2.05,0,0,0-.94.24,1.27,1.27,0,0,0,0,2.16,3.18,3.18,0,0,0,2.09.06c.42-.07.81-.26,1.22-.33a8.67,8.67,0,0,1,1.14,0,2.38,2.38,0,0,1,1,.16,3.86,3.86,0,0,0,1,.46,1.65,1.65,0,0,0,1.17-.17,2,2,0,0,0,.4-.32c-.12.12.38-.54.2-.34l-.56.32.15,0H52.4l.12,0L52,21l.1.09-.32-.55,0,.11.32-1.21-.09.1c-1.06,1.2.7,3,1.77,1.76a1.41,1.41,0,0,0-.45-2.32,1.47,1.47,0,0,0-1.23,0c-.41.19-.45.47-.75.72l.55-.32c.5-.12-.09-.23-.33-.33a5.15,5.15,0,0,0-.76-.24A9.22,9.22,0,0,0,49,18.69c-1.05,0-2,.49-3,.49l.63.17-.12-.06v2.16l.1-.06-.63.17a4,4,0,0,0,1.19-.15,9.72,9.72,0,0,0,1.14-.63,1.76,1.76,0,0,0,.4-.16c-.28.06-.31.09-.11.08a3.69,3.69,0,0,0,.52.1l.36.12c.15.08.13,0-.07-.18a2.12,2.12,0,0,0,0,.71c.08,2.27,3,2.48,4,.74l-.75.57c.36-.13,1.2.44,1.62.59a7,7,0,0,0,1.12.16,5.85,5.85,0,0,1,1,.43,14.91,14.91,0,0,1,2,.83c.33.18.67.33,1,.51a5.57,5.57,0,0,0,.83.47c1.27.44,2-1.22,1.21-2.09a2.94,2.94,0,0,0-3-.88h.67a7.18,7.18,0,0,0-1.31-.13,5.39,5.39,0,0,1-.92,0l.75.57a6.15,6.15,0,0,0-.32-.53c-.41-.51-.07.36,0,0l-.17.63.06-.1-2,.26a5.62,5.62,0,0,0,.53.5,2.58,2.58,0,0,0,1,.18,11.92,11.92,0,0,0,1.8.16H59c-.23-.07-.19,0,.12.16a1.44,1.44,0,0,1,.59.61,10.32,10.32,0,0,0,1,1.48L60.42,26c.08.2.16.39.25.58.69,1.45,2.84.18,2.15-1.26Z" transform="translate(-18.73 -14.13)"/></svg>