<svg enable-background="new 0 0 100 100" viewBox="0 0 100 100" xmlns="http://www.w3.org/2000/svg"><g transform="translate(-13.33 -7.42)"><g fill="none"><path d="m90.1 35.7c.5 1.1.4 2.4-.2 3.5.5 1.6.1 3.5-1.2 4.6l-.1.2c0 1-.4 1.9-1.1 2.7s-1.6 1.3-2.7 1.4h-.4c-.3 1.4-1.2 2.5-2.5 3.1-1.1.6-2.4.7-3.6.4-1.8 1.8-4.6 2-6.6.5-1.1.1-2.1-.7-2.3-1.8-1-.2-1.7-1.2-1.6-2.2-.9-.7-1.1-2-.5-2.9 0 0 .1-.1.1-.1-1.1-.7-1.4-2.2-.6-3.3 0-.1.1-.1.1-.2.1-.8.7-1.4 1.5-1.6.4-1.8 1.8-3.3 3.7-3.7.1-.9.3-1.7.8-2.4-.4-1.3.2-2.8 1.4-3.4-1.3-.8-1.9-2.4-1.2-3.8-.9.3-2 .1-2.8-.4-.6-.4-1.1-1-1.4-1.7-1.4 1.1-3.4 1.1-4.7-.2-1.2.8-2.8.6-3.9-.4-.1-.1-.2-.2-.2-.3-.6 1.1-2.1 1.5-3.2.9-.1.6-.4 1.1-.9 1.5-.6.5-1.3.8-2 .8.1 1.6-1.2 3-2.8 3.1.9 1.2.7 3-.5 3.9 1.8.2 3 1.8 2.8 3.6 1.6.2 2.7 1.7 2.5 3.3 1.6-.2 3.1.9 3.4 2.5.8.7 1.1 1.8.7 2.8.1 1-.6 2-1.6 2.2 0 1.1-.8 2-1.9 2.1-.3 1-1.3 1.7-2.4 1.4-1.9 1.7-4.9 1.7-6.7-.1-1.2-.2-2.5-1.9-2.9-1.9-.6 0-1.2-.2-1.6-.7-.4 0-.7-.2-1.1-.3-1.1-.6-1.7-1.8-1.5-3.1-.9-.4-1.7-1.1-2.1-1.9-.6-1.1-.7-2.4-.2-3.6-3.4-2.5-4.2-7.2-1.7-10.6 0 0 .1-.1.1-.1-1.8-2.9-1-6.7 1.9-8.6.1-.1.2-.1.3-.2.3-2.3 2.4-4 4.8-3.7-.5-1.5.2-3.2 1.7-3.8.9-2.1 3.4-3.2 5.6-2.4 1.7-1.5 4.2-1.5 5.9 0 .6-1.2 2.1-1.8 3.3-1.2 1.9-1.2 4.4-.7 5.8 1 1.8-1.1 4-.5 5.2 1.2 2-1.2 4.5-.7 5.8 1.2.3-.2.6-.3.9-.3 1.1-.2 2.3.2 3 1.1 2-.1 3.8 1.1 4.5 3 2 .7 3.2 2.7 2.8 4.7 1.5.5 2.5 2 2.2 3.6 1.3.8 1.7 2.5.9 3.8.9 1.3.9 3 .2 4.4.1.7-.3 1.8-1.2 2.4z" stroke="#000" stroke-miterlimit="10" stroke-width="3.047"/><path d="m45 65.9c.1.8.5 1.5 1.1 2.1.3.4.8.6 1.3.6h14.8v-10.5h-14.8c-.7 0-1.3-.2-1.9-.5-.2.4-.4.9-.5 1.3-.5 2.3-.5 4.7 0 7z"/><path d="m45 79.7c.2.8.5 1.5 1.1 2.1.3.3.7.5 1.2.5h14.9v-10.6h-14.8c-.7 0-1.3-.2-1.9-.5-.2.4-.4.9-.5 1.3-.5 2.3-.5 4.7 0 7z"/><path d="m47.3 99.3c-.3.7-.5 1.4-.4 2.1v.8c0 .7.1 1.5.4 2.1h32.3c.3-.7.5-1.4.4-2.1v-.8c0-.7-.1-1.5-.4-2.1z"/><path d="m62.1 96.1v-10.6h-14.7c-.7 0-1.3-.2-1.9-.5-.2.4-.4.9-.5 1.3-.5 2.3-.5 4.7 0 7 .3 1.6 1.3 2.7 2.4 2.7z"/><path d="m42.5 66.6c-.2-1-.3-1.9-.4-2.9-3.7-2.5-6.4-6.2-7.5-10.5-3.1 3.4-5.1 7.6-5.9 12.1v.1c1.6 4 4.6 7.4 8.4 9.6 2.5-2.2 4.3-5 5.4-8.1 0-.1 0-.1 0-.3z"/><path d="m22.3 82.8c-.1.2-.2.4-.2.7 0 .2.1.4.3.6l3.7 3.4c.1.1.2.1.3.2.3.1.6-.1.8-.3l.8-1.3-4.9-4.5z"/><path d="m27 68.4c-1.6 3.3-2.4 6.9-2.4 10.5l5.4 4.9c2.6-1.4 4.6-3.6 5.6-6.4-3.7-2-6.6-5.2-8.6-9z"/><path d="m81.3 57.5c-.6.3-1.2.5-1.9.5h-14.6v10.6h14.7c.5 0 1-.2 1.3-.6.6-.6.9-1.3 1.1-2.1v-.1c.5-2.3.5-4.7 0-7-.2-.4-.4-.8-.6-1.3z"/><path d="m99.8 68.4c-2 3.8-4.9 7-8.6 9.1 1 2.7 3 5 5.6 6.4l5.4-4.9c0-3.7-.8-7.3-2.4-10.6z"/><path d="m103.6 81.6-4.9 4.5.8 1.2c.2.3.5.4.8.3.1 0 .2-.1.3-.2l3.7-3.4c.2-.2.3-.4.3-.6s0-.5-.1-.7z"/><path d="m81.3 71.3c-.6.3-1.2.5-1.9.5h-14.7v10.6h14.7c.4 0 .9-.2 1.2-.5.6-.6.9-1.3 1.1-2.1v-.2c.5-2.3.5-4.7 0-7-.1-.5-.2-.9-.4-1.3z"/><path d="m81.3 85c-.6.3-1.2.5-1.9.5h-14.6v10.6h14.7c1.1 0 2-1.1 2.4-2.7.5-2.3.5-4.7 0-7-.2-.5-.3-.9-.6-1.4z"/><path d="m98.2 65.4c-.8-4.6-2.8-8.8-5.8-12.2-1.2 4.3-3.8 8-7.5 10.5-.1 1-.2 2-.4 2.9v.1c1.1 3.1 3 5.9 5.4 8.1 3.7-2.1 6.6-5.4 8.3-9.4z"/></g><path d="m106.4 80.9-1.1-1.6c-.2-.3-.4-.5-.6-.7-.1-5-1.5-9.9-4.1-14.2-1-5.9-4-11.2-8.4-15.3-.9-1.9-2.1-3.7-3.6-5.2l-.1.1c0 1-.4 1.9-1.1 2.7 1.1 1.3 2 2.7 2.6 4.2-.6 3.6-2.6 6.9-5.4 9.2-.1-.7-.2-1.4-.3-2-.2-.9-.5-1.8-1-2.6.5-.8.8-1.7 1-2.6v-.1c.3-1.5.5-3.1.5-4.7h-.4c-.3 1.4-1.2 2.5-2.5 3.1 0 .3-.1.5-.2.8v.1c-.1.8-.5 1.5-1.1 2.1-.3.4-.8.6-1.3.6h-14.6v-4.2c-.3.3-.8.4-1.2.4-.5 0-1-.2-1.4-.5v4.3h-14.7c-.5 0-1-.2-1.3-.6-.6-.6-.9-1.3-1.1-2.1v-.1c-.2-.8-.3-1.7-.3-2.5-.9-.2-1.9-.6-2.7-1.1 0 1.4.1 2.9.4 4.3v.1c.2.9.5 1.8 1 2.6-.5.8-.8 1.7-1 2.6-.1.7-.3 1.3-.3 2-2.8-2.3-4.8-5.6-5.4-9.2.9-2 2.2-3.9 3.8-5.4-.9-.4-1.7-1.1-2.1-1.9-1.6 1.6-2.9 3.5-3.8 5.6-4.4 4-7.3 9.4-8.4 15.3-2.6 4.3-4 9.1-4.1 14.1-.3.2-.5.5-.8.8l-1.1 1.7c-.6.9-.8 1.9-.7 3 .1 1 .5 2 1.3 2.7l3.7 3.4c.4.4.8.6 1.3.8.2.1.5.1.7.1 1.1 0 2.1-.6 2.7-1.6l1.1-1.6c.1-.2.2-.4.3-.6 1.2-.5 5.5-2.7 7.8-9.5 1.4-1.2 2.6-2.6 3.7-4.1-.3 2.3-.2 4.7.3 7v.1c.2.9.5 1.8 1 2.6-.5.8-.8 1.7-1 2.6-.6 2.8-.6 5.7 0 8.5v.1c.3 1.6 1.1 3 2.3 4.1-.4 1-.5 2-.5 3v.8c0 3 1.2 5.2 2.9 5.2h32.7c1.7 0 2.9-2.2 2.9-5.2v-.8c0-1.1-.2-2.1-.5-3.1 1.2-1.1 2-2.5 2.3-4.1v-.1c.6-2.8.6-5.7 0-8.5-.2-.9-.5-1.8-1-2.6.5-.8.8-1.7 1-2.6v-.1c.5-2.3.5-4.7.2-7 1 1.5 2.3 2.9 3.7 4.1 2.2 6.5 6.3 8.8 7.7 9.4.1.2.2.5.4.7l1 1.6c.6 1 1.6 1.5 2.7 1.6.2 0 .5 0 .7-.1.5-.1 1-.4 1.3-.8l3.7-3.4c.7-.7 1.2-1.6 1.3-2.7 0-1-.2-2.1-.8-3zm-79.1 6.4c-.2.3-.5.4-.8.3-.1 0-.2-.1-.3-.2l-3.7-3.4c-.2-.2-.3-.4-.3-.6s0-.5.2-.7l.8-1.3 4.9 4.5zm2.8-3.4-5.4-4.9c0-3.6.8-7.2 2.4-10.5 1.9 3.8 4.9 7 8.6 9.1-1.1 2.7-3.1 5-5.6 6.3zm6.9-9c-3.8-2.1-6.7-5.5-8.4-9.6 0 0 0 0 0-.1.7-4.5 2.8-8.7 5.9-12.2 1.1 4.3 3.8 8 7.5 10.5.1 1 .2 2 .4 2.9v.1c-1 3.3-2.9 6.2-5.4 8.4zm8-16c.1-.5.3-.9.5-1.3.6.3 1.2.5 1.9.5h14.8v10.6h-14.8c-.5 0-1-.2-1.3-.6-.6-.6-.9-1.3-1.1-2.1v-.1c-.5-2.3-.5-4.7 0-7zm0 13.7c.1-.5.3-.9.5-1.3.6.3 1.2.5 1.9.5h14.8v10.6h-14.8c-.5 0-.9-.2-1.2-.5-.5-.6-.9-1.3-1.1-2.1v-.2c-.5-2.3-.6-4.7-.1-7zm0 20.8c-.5-2.3-.5-4.7 0-7 .1-.5.3-.9.5-1.3.6.3 1.2.5 1.9.5h14.8v10.6h-14.8c-1.1-.1-2-1.1-2.4-2.8zm34.9 8.8c0 .7-.1 1.5-.4 2.1h-32.3c-.3-.7-.5-1.4-.4-2.1v-.8c0-.7.1-1.5.4-2.1h32.3c.3.7.5 1.4.4 2.1zm1.9-8.8c-.3 1.6-1.3 2.7-2.4 2.7h-14.6v-10.6h14.7c.7 0 1.3-.2 1.9-.5.2.4.4.9.5 1.3.4 2.4.4 4.8-.1 7.1zm0-13.8c-.1.9-.5 1.6-1.1 2.2-.3.3-.7.5-1.2.5h-14.8v-10.6h14.7c.7 0 1.3-.2 1.9-.5.2.4.4.9.5 1.3.5 2.4.5 4.8 0 7.1zm0-13.7c-.1.9-.5 1.6-1.1 2.2-.3.4-.8.6-1.3.6h-14.6v-10.6h14.7c.7 0 1.3-.2 1.9-.5.2.4.4.9.5 1.3.4 2.3.4 4.7-.1 7zm2.5.9v-.1c.2-1 .3-1.9.4-2.9 3.7-2.5 6.4-6.2 7.5-10.5 3.1 3.4 5.1 7.6 5.8 12.2v.1c-1.6 4-4.6 7.4-8.4 9.6-2.4-2.4-4.2-5.2-5.3-8.4zm12.5 17.1c-2.6-1.4-4.6-3.6-5.6-6.4 3.7-2.2 6.6-5.3 8.6-9.1 1.6 3.3 2.4 6.9 2.4 10.5zm7.5.2-3.7 3.4c-.1.1-.2.1-.3.2-.3.1-.6-.1-.8-.3l-.8-1.2 4.9-4.5.8 1.2c.1.2.2.4.1.7 0 .2-.1.4-.2.5z" stroke="#000" stroke-miterlimit="10"/></g><path d="m46.9 39.7 3.1 3.8" fill="none" stroke="#000" stroke-miterlimit="10" stroke-width="3.047"/><path d="m53.8 39.5-3.8 4.1" fill="none" stroke="#000" stroke-miterlimit="10" stroke-width="3.047"/><path d="m21.4 55.9c0-.1 0-.2.1-.2h.5c.1 0 .1-.1.1-.2l-1.3-2.5h-.1l-1.3 2.5c0 .1 0 .2.1.2h.5c.1 0 .1.1.1.2l-.7 1.4c0 .1 0 .2.1.2h.7c.1 0 .2.1.2.2v.5c0 .1.1.2.2.2h.4c.1 0 .2-.1.2-.2v-.5c0-.1.1-.2.2-.2h.7c.1 0 .1-.1.1-.2z"/><g fill="none" stroke="#000" stroke-miterlimit="10"><path d="m21.4 55.9c0-.1 0-.2.1-.2h.5c.1 0 .1-.1.1-.2l-1.3-2.5h-.1l-1.3 2.5c0 .1 0 .2.1.2h.5c.1 0 .1.1.1.2l-.7 1.4c0 .1 0 .2.1.2h.7c.1 0 .2.1.2.2v.5c0 .1.1.2.2.2h.4c.1 0 .2-.1.2-.2v-.5c0-.1.1-.2.2-.2h.7c.1 0 .1-.1.1-.2z" stroke-width=".083644"/><ellipse cx="20.8" cy="55.7" rx="3.4" ry="3.9" stroke-width="1.5295"/></g></svg>