<svg id="Layer_1" data-name="Layer 1" xmlns="http://www.w3.org/2000/svg" viewBox="0 0 68.62 54.15"><path d="M50,28l-9.48-3.47a4.53,4.53,0,0,0-3,0L20.08,30.9a4.51,4.51,0,0,0-3,4.24V69.45A4.5,4.5,0,0,0,21.56,74a3.86,3.86,0,0,0,1.56-.28l14.36-5.24a4.53,4.53,0,0,1,3,0L50,71.86l9.48,3.47a4.53,4.53,0,0,0,3,0L79.92,69a4.52,4.52,0,0,0,3-4.25V30.48A4.5,4.5,0,0,0,78.44,26a3.86,3.86,0,0,0-1.56.28L62.52,31.47a4.53,4.53,0,0,1-3,0Z" transform="translate(-15.69 -22.85)" style="fill:none;stroke:#000;stroke-miterlimit:10;stroke-width:2.829670089323941px"/><path d="M38.89,59.69v8.56" transform="translate(-15.69 -22.85)" style="fill:none;stroke:#000;stroke-miterlimit:10;stroke-width:2.829670089323941px"/><path d="M38.89,53.47v6.15" transform="translate(-15.69 -22.85)" style="fill:none;stroke:#000;stroke-miterlimit:10;stroke-width:2.829670089323941px"/><path d="M38.89,24.25V53.47" transform="translate(-15.69 -22.85)" style="fill:none;stroke:#000;stroke-miterlimit:10;stroke-width:2.829670089323941px"/><path d="M61,61.46V75.75" transform="translate(-15.69 -22.85)" style="fill:none;stroke:#000;stroke-miterlimit:10;stroke-width:2.829670089323941px"/><path d="M61,31.75V61.46" transform="translate(-15.69 -22.85)" style="fill:none;stroke:#000;stroke-miterlimit:10;stroke-width:2.829670089323941px"/><path d="M17.11,61l21.78-7.93" transform="translate(-15.69 -22.85)" style="fill:none;stroke:#000;stroke-miterlimit:10;stroke-width:2.829670089323941px"/><path d="M17.11,67.83,38.89,59.9" transform="translate(-15.69 -22.85)" style="fill:none;stroke:#000;stroke-miterlimit:10;stroke-width:2.829670089323941px"/><path d="M61,61l21.78-7.93" transform="translate(-15.69 -22.85)" style="fill:none;stroke:#000;stroke-miterlimit:10;stroke-width:2.829670089323941px"/><path d="M61,67.83,82.82,59.9" transform="translate(-15.69 -22.85)" style="fill:none;stroke:#000;stroke-miterlimit:10;stroke-width:2.829670089323941px"/><path d="M60.89,61.11l-22-8" transform="translate(-15.69 -22.85)" style="fill:none;stroke:#000;stroke-miterlimit:10;stroke-width:2.829670089323941px"/><path d="M60.89,67.83,39,59.83" transform="translate(-15.69 -22.85)" style="fill:none;stroke:#000;stroke-miterlimit:10;stroke-width:2.829670089323941px"/><path d="M67.57,48.37v1s2.4-.88,2.87-1v-1.2l4.38-1.56v-.78c.1-.06.88-.32,1-.37v.78l2.13-.73v-7L66.06,41.81v6.82c.15-.05,1.46-.52,1.56-.57A.67.67,0,0,0,67.57,48.37Z" transform="translate(-15.69 -22.85)" style="stroke:#000;stroke-linejoin:round;stroke-width:1.5637655353746018px"/><path d="M53.09,50.45V49c.35.12,2.93,1.06,3.22,1.18V45.23L55,44.82V43.59c-.41-.18-8.2-3-8.44-3.05V37.2L43.47,36V45.7L50,48.1v1.53h.06l3,1.11v-.17C53.15,50.51,53.15,50.51,53.09,50.45Z" transform="translate(-15.69 -22.85)" style="stroke:#000;stroke-linejoin:round;stroke-width:1.7586784585097233px"/><path d="M33.29,37.63v.8l1.11-.37V43.8l-1.11.44v1.6l-4,1.48V48.8l-2.72,1V48.12C26.07,48.31,21.5,50,21.5,50s-.12.07-.18.07c0-1,.18-9.26.18-9.26l5.62-2.1V37.2S30,36.15,30.39,36v1.66l2.84-1Z" transform="translate(-15.69 -22.85)" style="stroke:#000;stroke-linejoin:round;stroke-width:1.8511266228270926px"/></svg>