<svg enable-background="new 0 0 95.8 80.6" viewBox="0 0 95.8 80.6" xmlns="http://www.w3.org/2000/svg"><g stroke="#000"><g fill="none"><path d="m47.9 11.8-13.4-4.9c-1.4-.5-2.9-.5-4.3 0l-24.6 9c-2.5.9-4.2 3.3-4.2 6v48.5c0 3.5 2.8 6.4 6.3 6.4.8 0 1.5-.1 2.2-.4l20.3-7.4c1.4-.5 2.9-.5 4.3 0l13.4 4.8 13.4 4.9c1.4.5 2.9.5 4.3 0l24.6-9c2.5-.9 4.2-3.3 4.2-6v-48.4c0-3.5-2.8-6.4-6.3-6.4-.8 0-1.5.1-2.2.4l-20.3 7.4c-1.4.5-2.9.5-4.3 0z" stroke-miterlimit="10" stroke-width="4"/><path d="m32.2 56.6v12.1" stroke-miterlimit="10" stroke-width="4"/><path d="m32.2 47.8v8.7" stroke-miterlimit="10" stroke-width="4"/><path d="m32.2 6.5v41.3" stroke-miterlimit="10" stroke-width="4"/><path d="m63.5 59.1v20.2" stroke-miterlimit="10" stroke-width="4"/><path d="m63.5 17.1v42" stroke-miterlimit="10" stroke-width="4"/><path d="m1.4 58.5 30.8-11.2" stroke-miterlimit="10" stroke-width="4"/><path d="m1.4 68.1 30.8-11.2" stroke-miterlimit="10" stroke-width="4"/><path d="m63.5 58.5 30.8-11.2" stroke-miterlimit="10" stroke-width="4"/><path d="m63.5 68.1 30.8-11.2" stroke-miterlimit="10" stroke-width="4"/><path d="m63.3 58.6-31.1-11.3" stroke-miterlimit="10" stroke-width="4"/><path d="m63.3 68.1-31-11.3" stroke-miterlimit="10" stroke-width="4"/><path d="m71.2 43.1v1.9s4.6-1.7 5.5-2v-2.3l8.4-3v-1.5c.2-.1 1.7-.6 1.9-.7v1.5l4.1-1.4v-13.4l-22.8 8.3v13.1c.3-.1 2.8-1 3-1.1-.1.2-.1.4-.1.6z" stroke-linejoin="round" stroke-width="3"/><path d="m53.2 45.6v-2.5c.6.2 5 1.8 5.5 2v-8.4l-2.3-.7v-2.1c-.7-.3-14-5.1-14.4-5.2v-5.7l-5.2-2v16.5l11.2 4.1v2.6h.1l5.2 1.9v-.3c0-.1 0-.1-.1-.2z" stroke-linejoin="round" stroke-width="3"/></g><path d="m79.6 1.4c-1.6 0-3.2.2-4.8.6-.3.1-.5.3-.6.6-.1.5-.3 1-.6 1.5-.4.8-.7 1.6-.7 2.5v17.1c0 .9.4 1.8 1.1 2.4l.2.1c.4.4.9.6 1.5.7 1.3.3 2.7.4 4 .4s2.7-.1 4-.4c.6-.1 1.1-.4 1.5-.7l.2-.1c.7-.6 1.1-1.5 1.1-2.4v-17.2c0-.9-.2-1.8-.7-2.6-.3-.5-.5-1-.6-1.5-.2-.2-.4-.4-.7-.5-1.6-.3-3.3-.5-4.9-.5z" fill="#fff" stroke-linejoin="round" stroke-width="4"/></g><path d="m81.5 15.3c.3 0 .5-.2.5-.4 0-.1 0-.2-.1-.3l-1.9-3.4c-.2-.2-.5-.3-.7-.1-.1 0-.1.1-.1.1l-1.9 3.4c-.1.2-.1.5.2.7.1 0 .2.1.2.1.3 0 .5.2.5.4 0 .1 0 .2-.1.3l-.8 1.4c-.1.2 0 .5.2.7.1 0 .2.1.2.1h.7c.3 0 .5.2.5.5v.5c0 .3.2.5.5.5h.6c.3 0 .5-.2.5-.5v-.5c0-.3.2-.5.5-.5h.7c.3 0 .5-.2.5-.5 0-.1 0-.2-.1-.3l-.9-1.5c-.2-.1-.2-.4 0-.6.1 0 .2-.1.3-.1z"/><g fill="none"><path d="m81.5 15.3c.3 0 .5-.2.5-.4 0-.1 0-.2-.1-.3l-1.9-3.4c-.2-.2-.5-.3-.7-.1-.1 0-.1.1-.1.1l-1.9 3.4c-.1.2-.1.5.2.7.1 0 .2.1.2.1.3 0 .5.2.5.4 0 .1 0 .2-.1.3l-.8 1.4c-.1.2 0 .5.2.7.1 0 .2.1.2.1h.7c.3 0 .5.2.5.5v.5c0 .3.2.5.5.5h.6c.3 0 .5-.2.5-.5v-.5c0-.3.2-.5.5-.5h.7c.3 0 .5-.2.5-.5 0-.1 0-.2-.1-.3l-.9-1.5c-.2-.1-.2-.4 0-.6.1 0 .2-.1.3-.1z"/><path d="m25.4 24.3v1.3l1.8-.6v.3 9l-1.8.7v2.6l-6.5 2.4v2.4c-1.1.4-4.4 1.6-4.4 1.6v-2.7c-.8.3-8.2 3-8.2 3-.1 0-.2.1-.3.1 0-1.7.3-15 .3-15s8.5-3.2 9.1-3.4v-2.4s4.6-1.7 5.3-1.9v2.7s4.1-1.5 4.6-1.7z" stroke="#000" stroke-linejoin="round" stroke-width="3"/></g></svg>