<svg id="Layer_1" data-name="Layer 1" xmlns="http://www.w3.org/2000/svg" viewBox="0 0 40.13 66.88"><path d="M59.3,53.16c-.63-1.13-.12-2,1.13-2H68c1.25,0,1.76-.88,1.13-2l-18-31.31a1.21,1.21,0,0,0-1.54-.74,1.24,1.24,0,0,0-.73.74L30.77,49.24c-.63,1.13-.12,2,1.13,2h7.58c1.25,0,1.76.89,1.13,2l-9.84,17c-.63,1.13-.12,2,1.13,2H42.11a2.27,2.27,0,0,1,2.27,2.27v6.19a2.26,2.26,0,0,0,2.27,2.26h6.7a2.26,2.26,0,0,0,2.27-2.26V74.48a2.27,2.27,0,0,1,2.27-2.27H68.1c1.25,0,1.76-.88,1.13-2Z" transform="translate(-29.93 -16.56)"/><path d="M59.3,53.16c-.63-1.13-.12-2,1.13-2H68c1.25,0,1.76-.88,1.13-2l-18-31.31a1.21,1.21,0,0,0-1.54-.74,1.24,1.24,0,0,0-.73.74L30.77,49.24c-.63,1.13-.12,2,1.13,2h7.58c1.25,0,1.76.89,1.13,2l-9.84,17c-.63,1.13-.12,2,1.13,2H42.11a2.27,2.27,0,0,1,2.27,2.27v6.19a2.26,2.26,0,0,0,2.27,2.26h6.7a2.26,2.26,0,0,0,2.27-2.26V74.48a2.27,2.27,0,0,1,2.27-2.27H68.1c1.25,0,1.76-.88,1.13-2Z" transform="translate(-29.93 -16.56)" style="fill:none;stroke:#000;stroke-miterlimit:10;stroke-width:1.1343980323189555px"/></svg>