<svg viewBox="0 0 35.33 58.98" xmlns="http://www.w3.org/2000/svg"><g transform="translate(-33.12 -19.94)"><path d="m59 52.21c-.55-1-.1-1.73 1-1.73h6.68c1.1 0 1.55-.78 1-1.73l-15.9-27.6a1.06 1.06 0 0 0 -2 0l-15.93 27.6c-.55 1-.1 1.73 1 1.73h6.68c1.1 0 1.55.78 1 1.73l-8.68 15c-.55 1-.1 1.74 1 1.74h9a2 2 0 0 1 2 2v5.45a2 2 0 0 0 2 2h5.91a2 2 0 0 0 2-2v-5.4a2 2 0 0 1 2-2h9c1.1 0 1.55-.78 1-1.74z"/><path d="m59 52.21c-.55-1-.1-1.73 1-1.73h6.68c1.1 0 1.55-.78 1-1.73l-15.9-27.6a1.06 1.06 0 0 0 -2 0l-15.93 27.6c-.55 1-.1 1.73 1 1.73h6.68c1.1 0 1.55.78 1 1.73l-8.68 15c-.55 1-.1 1.74 1 1.74h9a2 2 0 0 1 2 2v5.45a2 2 0 0 0 2 2h5.91a2 2 0 0 0 2-2v-5.4a2 2 0 0 1 2-2h9c1.1 0 1.55-.78 1-1.74z" fill="none" stroke="#000" stroke-miterlimit="10"/></g></svg>