<svg id="Layer_1" data-name="Layer 1" xmlns="http://www.w3.org/2000/svg" viewBox="0 0 67.77 68.38"><path d="M50,54.81a19.5,19.5,0,1,1,19.5-19.5A19.5,19.5,0,0,1,50,54.81ZM50,21.1A14.2,14.2,0,1,0,64.2,35.3h0A14.22,14.22,0,0,0,50,21.1Z" transform="translate(-16.12 -15.81)"/><path d="M18.77,84.18a2.74,2.74,0,0,1-.9-.15,2.65,2.65,0,0,1-1.6-3.39,35.85,35.85,0,0,1,67.46,0,2.66,2.66,0,0,1-5,1.79,30.54,30.54,0,0,0-57.48,0A2.66,2.66,0,0,1,18.77,84.18Z" transform="translate(-16.12 -15.81)"/><path d="M65.82,76.82c-.11-.17,0-.29.2-.29h1.32c.22,0,.31-.13.2-.3l-3.15-4.69a.23.23,0,0,0-.27-.11.19.19,0,0,0-.12.11l-3.16,4.69c-.1.17,0,.3.2.3h1.32c.22,0,.31.13.2.29l-1.72,2.55c-.1.17,0,.3.2.3h1.78a.37.37,0,0,1,.4.34h0v.93a.37.37,0,0,0,.39.34h1.17a.38.38,0,0,0,.4-.34V80a.36.36,0,0,1,.4-.34h1.78c.21,0,.3-.14.19-.3Z" transform="translate(-16.12 -15.81)"/><path d="M65.82,76.82c-.11-.17,0-.29.2-.29h1.32c.22,0,.31-.13.2-.3l-3.15-4.69a.23.23,0,0,0-.27-.11.19.19,0,0,0-.12.11l-3.16,4.69c-.1.17,0,.3.2.3h1.32c.22,0,.31.13.2.29l-1.72,2.55c-.1.17,0,.3.2.3h1.78a.37.37,0,0,1,.4.34h0v.93a.37.37,0,0,0,.39.34h1.17a.38.38,0,0,0,.4-.34V80a.36.36,0,0,1,.4-.34h1.78c.21,0,.3-.14.19-.3Z" transform="translate(-16.12 -15.81)" style="fill:none;stroke:#000;stroke-miterlimit:10;stroke-width:0.18000000715255737px"/></svg>