<svg viewBox="0 0 67.77 76.58" xmlns="http://www.w3.org/2000/svg"><path d="m50 50.71a19.5 19.5 0 1 1 19.5-19.5 19.53 19.53 0 0 1 -19.5 19.5zm0-33.71a14.2 14.2 0 1 0 14.2 14.2 14.22 14.22 0 0 0 -14.2-14.2z" transform="translate(-16.12 -11.71)"/><path d="m18.77 80.08a2.79 2.79 0 0 1 -.9-.15 2.66 2.66 0 0 1 -1.6-3.39 35.85 35.85 0 0 1 67.46 0 2.65 2.65 0 1 1 -5 1.79 30.54 30.54 0 0 0 -57.48 0 2.65 2.65 0 0 1 -2.48 1.75z" transform="translate(-16.12 -11.71)"/><text x="-16.12" y="-11.71"/><text x="-16.12" y="-11.71"/><text x="-16.12" y="-11.71"/><text x="-16.12" y="-11.71"/><g transform="translate(-16.12 -11.71)"><path d="m65.82 72.72c-.11-.17 0-.29.2-.29h1.32c.22 0 .31-.13.2-.3l-3.15-4.69a.23.23 0 0 0 -.27-.11.19.19 0 0 0 -.12.11l-3.16 4.69c-.1.17 0 .3.2.3h1.32c.22 0 .31.13.2.29l-1.72 2.55c-.1.17 0 .3.2.3h1.78a.37.37 0 0 1 .4.34v.93a.38.38 0 0 0 .39.34h1.17a.38.38 0 0 0 .4-.34v-.92a.37.37 0 0 1 .4-.34h1.78c.21 0 .3-.14.19-.3z"/><path d="m65.82 72.72c-.11-.17 0-.29.2-.29h1.32c.22 0 .31-.13.2-.3l-3.15-4.69a.23.23 0 0 0 -.27-.11.19.19 0 0 0 -.12.11l-3.16 4.69c-.1.17 0 .3.2.3h1.32c.22 0 .31.13.2.29l-1.72 2.55c-.1.17 0 .3.2.3h1.78a.37.37 0 0 1 .4.34v.93a.38.38 0 0 0 .39.34h1.17a.38.38 0 0 0 .4-.34v-.92a.37.37 0 0 1 .4-.34h1.78c.21 0 .3-.14.19-.3z" fill="none" stroke="#000" stroke-miterlimit="10" stroke-width=".18"/></g></svg>