<svg xmlns="http://www.w3.org/2000/svg" xmlns:xlink="http://www.w3.org/1999/xlink" version="1.1" x="0px" y="0px" viewBox="0 0 100 125" style="enable-background:new 0 0 100 100;" xml:space="preserve"><g><path d="M13.6,60.9h2.4c0.6,1.8,1.3,3.6,2.2,5.3L16.5,68c-1.1,1.1-1.7,2.6-1.7,4.2s0.6,3.1,1.7,4.2l7.1,7.1   c1.1,1.1,2.6,1.7,4.2,1.7s3.1-0.6,4.2-1.7l1.7-1.7c1.7,0.9,3.5,1.6,5.3,2.2v2.4c0,3.3,2.7,5.9,5.9,5.9H55c3.3,0,5.9-2.7,5.9-5.9   v-2.4c1.8-0.6,3.6-1.3,5.3-2.2l1.7,1.7c1.1,1.1,2.6,1.7,4.2,1.7s3.1-0.6,4.2-1.7l7.1-7.1c1.1-1.1,1.7-2.6,1.7-4.2s-0.6-3.1-1.7-4.2   l-1.7-1.7c0.9-1.7,1.6-3.5,2.2-5.3h2.4c3.3,0,5.9-2.7,5.9-5.9V45c0-3.3-2.7-5.9-5.9-5.9h-2.4c-0.6-1.8-1.3-3.6-2.2-5.3l1.7-1.7   c1.1-1.1,1.7-2.6,1.7-4.2s-0.6-3.1-1.7-4.2l-7.1-7.1c-1.1-1.1-2.6-1.7-4.2-1.7s-3.1,0.6-4.2,1.7l-1.7,1.7c-1.7-0.9-3.5-1.6-5.3-2.2   v-2.4c0-3.3-2.7-5.9-5.9-5.9H45c-3.3,0-5.9,2.7-5.9,5.9v2.4c-1.8,0.6-3.6,1.3-5.3,2.2L32,16.6c-1.1-1.1-2.6-1.7-4.2-1.7   s-3.1,0.6-4.2,1.7l-7.1,7.1c-1.1,1.1-1.7,2.6-1.7,4.2s0.6,3.1,1.7,4.2l1.7,1.7c-0.9,1.7-1.6,3.5-2.2,5.3h-2.4   c-3.3,0-5.9,2.7-5.9,5.9V55C7.7,58.3,10.4,60.9,13.6,60.9z M11.7,45c0-1.1,0.9-1.9,1.9-1.9h5.4l0.4-1.5c0.7-2.5,1.7-4.9,3-7.2   l0.8-1.3l-3.8-3.8c-0.7-0.7-0.7-2,0-2.7l7.1-7.1c0.7-0.7,2-0.7,2.7,0l3.8,3.8l1.3-0.8c2.3-1.3,4.7-2.3,7.2-3l1.5-0.4v-5.4   c0-1.1,0.9-1.9,1.9-1.9H55c1.1,0,1.9,0.9,1.9,1.9v5.4l1.5,0.4c2.5,0.7,4.9,1.7,7.2,3l1.3,0.8l3.8-3.8c0.7-0.7,2-0.7,2.7,0l7.1,7.1   c0.7,0.7,0.7,2,0,2.7l-3.8,3.8l0.8,1.3c1.3,2.3,2.3,4.7,3,7.2l0.4,1.5h5.4c1.1,0,1.9,0.9,1.9,1.9V55c0,1.1-0.9,1.9-1.9,1.9h-5.4   l-0.4,1.5c-0.7,2.5-1.7,4.9-3,7.2l-0.8,1.3l3.8,3.8c0.7,0.7,0.7,2,0,2.7l-7.1,7.1c-0.7,0.7-2,0.7-2.7,0l-3.8-3.8l-1.3,0.8   c-2.3,1.3-4.7,2.3-7.2,3l-1.5,0.4v5.4c0,1.1-0.9,1.9-1.9,1.9H45c-1.1,0-1.9-0.9-1.9-1.9v-5.4l-1.5-0.4c-2.5-0.7-4.9-1.7-7.2-3   L33,76.8l-3.8,3.8c-0.7,0.7-2,0.7-2.7,0l-7.1-7.1c-0.7-0.7-0.7-2,0-2.7l3.8-3.8l-0.8-1.3c-1.3-2.3-2.3-4.7-3-7.2l-0.4-1.5h-5.4   c-1.1,0-1.9-0.9-1.9-1.9V45z"/><path d="M50,69.9c11,0,19.9-8.9,19.9-19.9S61,30.1,50,30.1S30.1,39,30.1,50S39,69.9,50,69.9z M50,34.1c8.8,0,15.9,7.1,15.9,15.9   S58.7,65.9,50,65.9S34.1,58.8,34.1,50S41.2,34.1,50,34.1z"/></g><text x="0" y="115" fill="#000000" font-size="5px" font-weight="bold" font-family="'Helvetica Neue', Helvetica, Arial-Unicode, Arial, Sans-serif">Created by Viktor Vorobyev</text><text x="0" y="120" fill="#000000" font-size="5px" font-weight="bold" font-family="'Helvetica Neue', Helvetica, Arial-Unicode, Arial, Sans-serif">from the Noun Project</text></svg>