<svg id="Layer_1" data-name="Layer 1" xmlns="http://www.w3.org/2000/svg" viewBox="0 0 69 69"><path d="M20.12,58.87H21a1.58,1.58,0,0,1,1.48,1c.29.8.61,1.6,1,2.37A1.54,1.54,0,0,1,23.12,64l-.63.68a4.91,4.91,0,0,0,0,6.85l5.8,5.8a4.93,4.93,0,0,0,6.86,0l.59-.59a1.57,1.57,0,0,1,1.76-.32,25,25,0,0,0,2.34,1,1.57,1.57,0,0,1,1,1.48v.84a4.83,4.83,0,0,0,4.82,4.82h8.25a4.84,4.84,0,0,0,4.82-4.82v-.84a1.57,1.57,0,0,1,1-1.48q1.18-.42,2.34-1a1.58,1.58,0,0,1,1.76.32l.59.59a4.93,4.93,0,0,0,6.86,0l5.8-5.8a4.91,4.91,0,0,0,0-6.85l-.59-.59a1.58,1.58,0,0,1-.32-1.77c.36-.76.67-1.55,1-2.33a1.58,1.58,0,0,1,1.48-1h.84a4.83,4.83,0,0,0,4.81-4.82V45.88a4.82,4.82,0,0,0-4.81-4.81h-.84a1.58,1.58,0,0,1-1.48-1c-.29-.79-.6-1.57-1-2.34a1.56,1.56,0,0,1,.32-1.76l.59-.59a4.93,4.93,0,0,0,0-6.86l-5.8-5.8a5,5,0,0,0-6.86,0l-.59.59a1.54,1.54,0,0,1-1.76.32q-1.15-.53-2.34-1a1.56,1.56,0,0,1-1-1.47v-.84a4.83,4.83,0,0,0-4.82-4.82H45.76a4.83,4.83,0,0,0-4.82,4.82v.84a1.56,1.56,0,0,1-1,1.47c-.8.29-1.6.61-2.37,1a1.56,1.56,0,0,1-1.73-.29l-.67-.64a5,5,0,0,0-6.86,0l-5.8,5.8a4.93,4.93,0,0,0,0,6.86l.59.59a1.56,1.56,0,0,1,.32,1.76c-.36.77-.67,1.55-1,2.34a1.58,1.58,0,0,1-1.48,1h-.84a4.83,4.83,0,0,0-4.82,4.81v8.17A4.84,4.84,0,0,0,20.12,58.87Zm-1.55-13a1.56,1.56,0,0,1,1.55-1.55h3.2a1.57,1.57,0,0,0,1.52-1.17l0,0a26.42,26.42,0,0,1,2.45-5.88h0a1.57,1.57,0,0,0-.23-1.94L26,34.18a3.15,3.15,0,0,1,0-4.44l3.57-3.56a3.15,3.15,0,0,1,4.44,0l1.1,1.1a1.59,1.59,0,0,0,2,.23h0a26.15,26.15,0,0,1,5.87-2.45H43a1.58,1.58,0,0,0,1.17-1.53V20.33a1.55,1.55,0,0,1,1.55-1.56h8.25a1.55,1.55,0,0,1,1.55,1.56v3.19a1.58,1.58,0,0,0,1.17,1.53h.05a26,26,0,0,1,5.88,2.45h0a1.59,1.59,0,0,0,2-.23l1.1-1.1a3.15,3.15,0,0,1,4.44,0l3.56,3.56a3.15,3.15,0,0,1,0,4.44l-1.1,1.11a1.57,1.57,0,0,0-.23,1.94h0a26.42,26.42,0,0,1,2.45,5.88v0a1.58,1.58,0,0,0,1.53,1.17h3.2A1.55,1.55,0,0,1,81,45.88v8.17a1.55,1.55,0,0,1-1.55,1.55h-3.2a1.58,1.58,0,0,0-1.53,1.17v.06a26.42,26.42,0,0,1-2.45,5.88h0a1.57,1.57,0,0,0,.23,1.94l1.1,1.1a3.15,3.15,0,0,1,0,4.44l-3.56,3.57a3.15,3.15,0,0,1-4.44,0l-1.1-1.11a1.59,1.59,0,0,0-2-.23h0a26,26,0,0,1-5.88,2.45l-.05,0a1.57,1.57,0,0,0-1.17,1.52v3.2a1.55,1.55,0,0,1-1.55,1.55H45.76a1.54,1.54,0,0,1-1.55-1.55v-3.2A1.57,1.57,0,0,0,43,74.89l0,0a26.22,26.22,0,0,1-5.88-2.45L37,72.36a1.58,1.58,0,0,0-1.82.3L34,73.84a3.15,3.15,0,0,1-4.44,0L26,70.27a3.14,3.14,0,0,1,0-4.43l1.11-1.11a1.57,1.57,0,0,0,.23-1.94h0a26.42,26.42,0,0,1-2.45-5.88l0-.06a1.57,1.57,0,0,0-1.52-1.17h-3.2a1.54,1.54,0,0,1-1.55-1.55Z" transform="translate(-15.3 -15.51)"/><path d="M49.8,66.26A16.25,16.25,0,1,0,33.55,50,16.24,16.24,0,0,0,49.8,66.26ZM49.8,37a13,13,0,1,1-13,13A13,13,0,0,1,49.8,37Z" transform="translate(-15.3 -15.51)"/></svg>