<svg enable-background="new 0 0 100 100" viewBox="0 0 100 100" xmlns="http://www.w3.org/2000/svg"><path d="m50 15.5c-2.6 0-4.7-2.1-4.7-4.7s2.1-4.8 4.7-4.8 4.7 2.1 4.7 4.7-2.1 4.8-4.7 4.8zm0-8.2c-1.9 0-3.4 1.5-3.4 3.4s1.5 3.4 3.4 3.4 3.4-1.5 3.4-3.4c0-1.9-1.5-3.4-3.4-3.4z"/><path d="m42.4 22.6c-.1 0-.1 0-.2 0-.3-.1-.5-.5-.4-.8 1.6-4.5 6.6-6.9 11.1-5.2 2.4.9 4.4 2.8 5.2 5.2.1.3-.1.7-.4.8s-.7-.1-.8-.4c-1.4-3.8-5.6-5.8-9.5-4.5-2.1.7-3.7 2.4-4.5 4.5 0 .2-.2.4-.5.4z"/><path d="m53.8 20.8.4-.1c.1 0 .1 0 0-.1l-.8-1.1s0 0-.1 0l-.8 1.1v.1h.5c.1 0 .1 0 0 .1l-.4.6v.1h.4s.1 0 .1.1v.2s0 .1.1.1h.3s.1 0 .1-.1v-.2s0-.1.1-.1h.4c.1 0 .1 0 0-.1z"/><path d="m53.8 20.8.4-.1c.1 0 .1 0 0-.1l-.8-1.1s0 0-.1 0l-.8 1.1v.1h.5c.1 0 .1 0 0 .1l-.4.6v.1h.4s.1 0 .1.1v.2s0 .1.1.1h.3s.1 0 .1-.1v-.2s0-.1.1-.1h.4c.1 0 .1 0 0-.1z" fill="none" stroke="#000" stroke-miterlimit="10" stroke-width=".25"/><circle cx="50" cy="15" fill="none" r="11.2" stroke="#000" stroke-miterlimit="10" stroke-width="2"/><path d="m85 50.5c-2.6 0-4.7-2.1-4.7-4.7s2.1-4.7 4.7-4.7 4.7 2.1 4.7 4.7c0 2.5-2.1 4.7-4.7 4.7zm0-8.2c-1.9 0-3.4 1.5-3.4 3.4s1.5 3.4 3.4 3.4 3.4-1.5 3.4-3.4c0-1.9-1.5-3.4-3.4-3.4z"/><path d="m77.4 57.6c-.1 0-.1 0-.2 0-.3-.1-.5-.5-.4-.8 1.6-4.5 6.6-6.9 11.1-5.2 2.4.9 4.4 2.8 5.2 5.2.1.3-.1.7-.4.8s-.7-.1-.8-.4c-1.4-3.8-5.6-5.8-9.5-4.5-2.1.7-3.7 2.4-4.5 4.5 0 .2-.2.4-.5.4z"/><path d="m88.8 55.8.4-.1c.1 0 .1 0 0-.1l-.8-1.1s0 0-.1 0l-.8 1.1v.1h.5c.1 0 .1 0 0 .1l-.4.6v.1h.4s.1 0 .1.1v.2s0 .1.1.1h.3s.1 0 .1-.1v-.2s0-.1.1-.1h.4c.1 0 .1 0 0-.1z"/><path d="m88.8 55.8.4-.1c.1 0 .1 0 0-.1l-.8-1.1s0 0-.1 0l-.8 1.1v.1h.5c.1 0 .1 0 0 .1l-.4.6v.1h.4s.1 0 .1.1v.2s0 .1.1.1h.3s.1 0 .1-.1v-.2s0-.1.1-.1h.4c.1 0 .1 0 0-.1z" fill="none" stroke="#000" stroke-miterlimit="10" stroke-width=".25"/><circle cx="85" cy="50" fill="none" r="11.2" stroke="#000" stroke-miterlimit="10" stroke-width="2"/><path d="m50 85.5c-2.6 0-4.7-2.1-4.7-4.7s2.1-4.7 4.7-4.7 4.7 2.1 4.7 4.7c0 2.5-2.1 4.7-4.7 4.7zm0-8.2c-1.9 0-3.4 1.5-3.4 3.4s1.5 3.4 3.4 3.4 3.4-1.5 3.4-3.4c0-1.9-1.5-3.4-3.4-3.4z"/><path d="m42.4 92.6c-.1 0-.1 0-.2 0-.3-.1-.5-.5-.4-.8 1.6-4.5 6.6-6.9 11.1-5.2 2.4.9 4.4 2.8 5.2 5.2.1.3-.1.7-.4.8s-.7-.1-.8-.4c-1.4-3.8-5.6-5.8-9.5-4.5-2.1.7-3.7 2.4-4.5 4.5 0 .2-.2.4-.5.4z"/><path d="m53.8 90.8.4-.1c.1 0 .1 0 0-.1l-.8-1.1s0 0-.1 0l-.8 1.1v.1h.5c.1 0 .1 0 0 .1l-.4.6v.1h.4s.1 0 .1.1v.2s0 .1.1.1h.3s.1 0 .1-.1v-.2s0-.1.1-.1h.4c.1 0 .1 0 0-.1z"/><path d="m53.8 90.8.4-.1c.1 0 .1 0 0-.1l-.8-1.1s0 0-.1 0l-.8 1.1v.1h.5c.1 0 .1 0 0 .1l-.4.6v.1h.4s.1 0 .1.1v.2s0 .1.1.1h.3s.1 0 .1-.1v-.2s0-.1.1-.1h.4c.1 0 .1 0 0-.1z" fill="none" stroke="#000" stroke-miterlimit="10" stroke-width=".25"/><circle cx="50" cy="85" fill="none" r="11.2" stroke="#000" stroke-miterlimit="10" stroke-width="2"/><path d="m15 50.5c-2.6 0-4.7-2.1-4.7-4.7s2.1-4.7 4.7-4.7 4.7 2.1 4.7 4.7c0 2.5-2.1 4.7-4.7 4.7zm0-8.2c-1.9 0-3.4 1.5-3.4 3.4s1.5 3.4 3.4 3.4 3.4-1.5 3.4-3.4c0-1.9-1.5-3.4-3.4-3.4z"/><path d="m7.4 57.6c-.1 0-.1 0-.2 0-.3-.1-.5-.5-.4-.8 1.6-4.5 6.6-6.9 11.1-5.2 2.4.9 4.4 2.8 5.2 5.2.1.3-.1.7-.4.8s-.7-.1-.8-.4c-1.4-3.8-5.6-5.8-9.5-4.5-2.1.7-3.7 2.4-4.5 4.5 0 .2-.2.4-.5.4z"/><path d="m18.8 55.8.4-.1c.1 0 .1 0 0-.1l-.8-1.1s0 0-.1 0l-.8 1.1v.1h.5c.1 0 .1 0 0 .1l-.4.6v.1h.4s.1 0 .1.1v.2s0 .1.1.1h.3s.1 0 .1-.1v-.2s0-.1.1-.1h.4c.1 0 .1 0 0-.1z"/><g fill="none" stroke="#000" stroke-miterlimit="10"><path d="m18.8 55.8.4-.1c.1 0 .1 0 0-.1l-.8-1.1s0 0-.1 0l-.8 1.1v.1h.5c.1 0 .1 0 0 .1l-.4.6v.1h.4s.1 0 .1.1v.2s0 .1.1.1h.3s.1 0 .1-.1v-.2s0-.1.1-.1h.4c.1 0 .1 0 0-.1z" stroke-width=".25"/><circle cx="15" cy="50" r="11.2" stroke-width="2"/><path d="m38.7 85c-11.2-3.6-20.1-12.5-23.7-23.7" stroke-width="2"/><path d="m85.1 61.1c-3.6 11.3-12.5 20.3-23.8 23.9" stroke-width="2"/><path d="m61.1 14.9c11.3 3.6 20.3 12.5 23.9 23.8" stroke-width="2"/><path d="m15 38.7c3.6-11.2 12.5-20.1 23.8-23.7" stroke-width="2"/></g></svg>